STARTFONT 2.3
FONT -FontForge-Bungee Shade-Book-R-Normal--28-280-72-72-P-240-ISO10646-1
SIZE 28 72 72  4
FONTBOUNDINGBOX 72 72 -17 -26
COMMENT "Generated by fontforge, http://fontforge.sourceforge.net"
COMMENT "Copyright 2008 The Bungee Project Authors (david@djr.com)"
STARTPROPERTIES 40
FOUNDRY "FontForge"
FAMILY_NAME "Bungee Shade"
WEIGHT_NAME "Book"
SLANT "R"
SETWIDTH_NAME "Normal"
ADD_STYLE_NAME ""
PIXEL_SIZE 28
POINT_SIZE 280
RESOLUTION_X 72
RESOLUTION_Y 72
SPACING "P"
AVERAGE_WIDTH 240
CHARSET_REGISTRY "ISO10646"
CHARSET_ENCODING "1"
FONTNAME_REGISTRY ""
CHARSET_COLLECTIONS "ISO8859-2 ISO8859-9 ISO8859-4 ISO10646-1"
BITS_PER_PIXEL 4
FONT_NAME "BungeeShade-Regular"
FACE_NAME "Bungee Shade"
COPYRIGHT "Copyright 2008 The Bungee Project Authors (david@djr.com)"
FONT_VERSION "1.000;PS 1.0;hotconv 1.0.72;makeotf.lib2.5.5900"
FONT_ASCENT 24
FONT_DESCENT 4
UNDERLINE_POSITION 0
UNDERLINE_THICKNESS 0
X_HEIGHT 20
CAP_HEIGHT 20
RAW_ASCENT 860
RAW_DESCENT 140
NORM_SPACE 9
RELATIVE_WEIGHT 40
RELATIVE_SETWIDTH 50
SUPERSCRIPT_X 0
SUPERSCRIPT_Y 9
SUPERSCRIPT_SIZE 16
SUBSCRIPT_X 0
SUBSCRIPT_Y 2
SUBSCRIPT_SIZE 16
AVG_LOWERCASE_WIDTH 229
AVG_UPPERCASE_WIDTH 233
ENDPROPERTIES
CHARS 1065
STARTCHAR space
ENCODING 32
SWIDTH 325 0
DWIDTH 9 0
BBX 1 1 0 0
BITMAP
00
ENDCHAR
STARTCHAR exclam
ENCODING 33
SWIDTH 524 0
DWIDTH 15 0
BBX 13 24 1 -3
BITMAP
00006444444600
001B8000000310
02CF9000000400
1DFFA000400400
5FFFA000400400
5FFFB000400400
4FFFB000400400
3FFFC000400400
3FFFC000400400
2FFFD000400400
2FFFE000300400
1FFFE000000400
0FFFF100000500
0FFFFFEEEEA100
0EFFFAAAA94400
0DFFA000000400
02CF9000000410
08FF9000400410
3FFF9000100410
4FFF9000000400
4FFFD555555500
4FFFFFFFFF9000
4FFFFFFFF70000
2DFFFFFE500000
ENDCHAR
STARTCHAR quotedbl
ENCODING 34
SWIDTH 746 0
DWIDTH 21 0
BBX 21 15 0 6
BITMAP
0001744444442644444530
001C80000007E300000040
03DF8000000AF400000040
2EFF9003100AF400400040
5FFF9003100BF400400140
5FFFA003100BF500400130
5FFFA003100CF500400130
4FFFA003100CF600400230
4FFFB001100CF600200220
3FFFB000000DF600000220
3FFFD100001EF900000400
2FFFFFFFFFFFFFFFFFE400
2FFFFFFFFBFFFFFFFD2000
1FFFFFFE45FFFFFFB10000
0355555200555554000000
ENDCHAR
STARTCHAR numbersign
ENCODING 35
SWIDTH 850 0
DWIDTH 24 0
BBX 24 24 0 -3
BITMAP
000000006444450064444500
0000001C7000042C90000400
000003DF402008EF60200400
00002CAA204008AA30400542
000084000040000000400004
0008F3000040000000400004
01AFF3014474444444743004
08FFF3000140000000400004
0AFFF7110320111101301123
0AFFFFF50400BFF603109F60
0AFFFFF20400DFF40400B400
09FFDAA00400AAA204006420
015D40000400000004000040
01BF30000400000004000040
2CFF30144744444447430040
9FFF30002200000013000040
AFFF72004001221031012330
AFFFFF30400DFF50400BE500
AFFFFF10100FFF20100C3000
8FFFFE00002FFF0000140000
03CFFF65559FFF7555500000
00DFFFFFFACFFFFFFB100000
00FFFFFF80DFFFFF90000000
00CFFFE600AFFFE700000000
ENDCHAR
STARTCHAR dollar
ENCODING 36
SWIDTH 750 0
DWIDTH 21 0
BBX 21 30 0 -6
BITMAP
0000000003444443000000
0000000068000004000000
00000009F7000004000000
000000A941004002444400
0000053000004000000400
0000740000004000000400
0009D00014446444300400
00AFA00050000000000400
08FFA00410000000001400
0EFFA004000CFFFFFF8000
3FFFA0040008CEFFF60000
4FFFA00310000012532000
4FFFB00054100000002300
4FFFE10000344441000220
3FFFF90000000002400040
2FFFFFC410000000220040
0DFFFFFFFCA85200140040
05FFFFFFFFFFFD00040040
005DE99999999600220040
0008A00000000001600050
01BFA00344446444000140
1CFFA00000004000000700
4FFFA00000004000039100
4FFFFAAAA5001005EA0000
4FFFFFFFF7000006700000
4FFFFFFFFA000005000000
1DFFFFFFFFFFFFC1000000
000006FFFFFFFA00000000
000005FFFFFF7000000000
0000004555530000000000
ENDCHAR
STARTCHAR percent
ENCODING 37
SWIDTH 1131 0
DWIDTH 32 0
BBX 32 24 0 -3
BITMAP
00000344444563000644445000000000
0000630444430421B800004000000000
000990420003208DF402004000000000
01BF6040000040AFF104014000000000
1DFF60407F4040AFC004041000000000
5FFF60408F5040AF8031050000000000
7FFF60408F5040AF4040050000000000
8FFF60408F5040AF1040140000000000
8FFF6040492040AC0040410444445200
8FFF8041000320C80310534000000350
7FFFD103444302F40400970144442032
6FFFFC5210137EF10400F30500004104
4FFFFFFFFFFFFFC00404F20406800404
0CFFFFFFFFDCFF802207F2040CF10404
01AFFFFFFA1DFF50400BF2040CF10404
00014553101FFF10400EF2040CF10404
00000000005FFC00404FF2040BE10404
00000000009FF801207FF30500004104
0000000000CFF50000BFF60144442013
0000000001FFF10000EFFE2000000050
0000000004FFFA888BFFFFE976569800
0000000008FFFFFFA9FFFFFFFFFF7000
000000000CFFFFF802EFFFFFFFE50000
000000000AFFFE600029DEFED9200000
ENDCHAR
STARTCHAR ampersand
ENCODING 38
SWIDTH 866 0
DWIDTH 24 0
BBX 25 24 0 -3
BITMAP
00000001544444444440000000
00000036000000000040000000
000005A0000000000040000000
00008F50003444440040000000
000AFF20042000000040000000
005FFF20040014444530000000
00AFFF200400AFFFF500000000
00BFFF5004009FFE3000000000
00BFFFB0040000620000000000
00AFFFB4041000404444444500
007FF700347510499000000140
003FB0042000004F8004420040
04EF60040000006F8004000040
1EFF4013006FFFFF8004000040
6FFF4013008FEFFF8004004710
9FFF4004002868882004007100
AFFF5005100000000023004000
AFFF8000444444444430004000
9FFFE100000000000000041000
7FFFFB10000000000000330000
3FFFFFE9655555555579300000
0BFFFFFFFFFFFFFFFFC2000000
01CFFFFFFFFFFFFFFB10000000
0017CEFFFFFFFFEB6000000000
ENDCHAR
STARTCHAR quotesingle
ENCODING 39
SWIDTH 456 0
DWIDTH 13 0
BBX 12 15 0 6
BITMAP
000064444446
0009C0000004
01BFD0000004
0CFFD0004004
1FFFD0004004
1FFFE0004004
0FFFE0004004
0FFFF0004004
0FFFF0002004
0EFFF1000004
0EFFF3000005
0EFFFFFFFFB1
0DFFFFFFF900
0CFFFFFF7000
025555530000
ENDCHAR
STARTCHAR parenleft
ENCODING 40
SWIDTH 529 0
DWIDTH 15 0
BBX 15 29 0 -6
BITMAP
0000000144444500
0000005400000130
0000181000000040
0002C30004420040
003DD00060000040
02EFA00410000130
0BFF90040008B800
1FFF8004000F9000
4FFF800400180000
5FFF800400140000
5FFF800400140000
5FFF800400140000
5FFF800400140000
5FFF800400140000
5FFF800400140000
5FFF800400140000
5FFF800400140000
5FFF800400140000
5FFF800400140000
5FFF800400040000
5FFF900410044500
5FFFB00060000130
5FFFF20004420040
4FFFFA0000000040
3FFFFF9100000140
0EFFFFFEB8666710
07FFFFFFFFFFD200
008FFFFFFFFA1000
00038CEFFE800000
ENDCHAR
STARTCHAR parenright
ENCODING 41
SWIDTH 529 0
DWIDTH 15 0
BBX 15 29 0 -6
BITMAP
0000344444200000
0007800000252000
009F700000005200
1BFF700442000600
5FFF700003300500
6FFF900000400320
6FFFFFE400400220
6FFFFFF700400230
5FFFFFF800400230
056CFFF800400230
0006FFF800400230
0006FFF800400230
0006FFF800400230
0006FFF800400230
0006FFF800400230
0006FFF800400230
0006FFF800400230
0006FFF800400230
0006FFF700400230
0006FFF400400230
0006A00000400220
004E700003400400
05FF700442000500
3FFF700000003300
6FFF700000043000
6FFFD66679C30000
6FFFFFFFFD200000
6FFFFFFFA1000000
3EFFED9400000000
ENDCHAR
STARTCHAR asterisk
ENCODING 42
SWIDTH 818 0
DWIDTH 23 0
BBX 22 20 1 1
BITMAP
0000000007444454000000
00000001BC000004000000
0000002DFE001022000000
000015CFFF104040014400
0002C105CF304052430400
003DB00004304042000140
04EF600200004000020050
0CFF100155404145410040
2FFF41000015A400000161
7FFFFFDB700514019BED30
CFFFFFFE303203207FB100
DFFFFFF401400050071000
0368BF4004019004005100
0000BA000007F300000500
000BFF80001EFB00016000
00AFFFFC208FFF40460000
04FFFFFFE9FFFFD9500000
008FFFFFC5FFFFD3000000
0004EFFB10AFF910000000
00001970002B5000000000
ENDCHAR
STARTCHAR plus
ENCODING 43
SWIDTH 834 0
DWIDTH 23 0
BBX 22 21 1 -2
BITMAP
0000000002544452000000
000000003B000004000000
00000004EB000004000000
0000006FFB003004000000
000001FFFB004004000000
000002FFFB004004000000
000045AAA7004005444440
001A300000004000000031
01CF300000004000000031
2DFF301444447444441031
AFFF300000004000000031
BFFF500000004000000040
BFFFFFFFFB00400CFFFE30
BFFFFFFFFB00400CFFC200
AFFFFFFFFB00400CFB1000
155557FFFB000007500000
000002FFFB000004000000
000002FFFE655553000000
000002FFFFFFFE40000000
000002FFFFFFD200000000
000000DFFFFB1000000000
ENDCHAR
STARTCHAR comma
ENCODING 44
SWIDTH 484 0
DWIDTH 14 0
BBX 13 15 0 -6
BITMAP
00002444444430
0004B000000040
005FC000000040
07FFC014444040
1FFFC000004040
2FFFC000004040
2FFFD100004040
2FFFFFFFB04040
2FFFF733142040
1FFFF214420220
02CFF300003400
08FFFDBBBC4000
0BFFFFFFD30000
0BFFFFFB100000
04999840000000
ENDCHAR
STARTCHAR hyphen
ENCODING 45
SWIDTH 520 0
DWIDTH 15 0
BBX 15 10 0 4
BITMAP
0000444444444400
0008600000000320
01AF500000000220
1CFF501444410220
7FFF500000000220
8FFF500000000220
8FFFB66666666600
8FFFFFFFFFFFA100
8FFFFFFFFFF80000
5EFFFFFFFE600000
ENDCHAR
STARTCHAR period
ENCODING 46
SWIDTH 484 0
DWIDTH 14 0
BBX 13 12 0 -3
BITMAP
00002444444430
0003B000000040
005FC000000040
07FFC000300040
1FFFC000400040
2FFFC000400040
2FFFC000000040
2FFFC000000040
2FFFE655555530
2FFFFFFFFFE500
2FFFFFFFFE3000
0CFFFFFFC20000
ENDCHAR
STARTCHAR slash
ENCODING 47
SWIDTH 487 0
DWIDTH 14 0
BBX 14 29 0 -5
BITMAP
00000004444443
00000096000004
00001BF3000004
0002DFF1013004
0008FFE0031004
000AFFC0040022
000DFF90040040
000FFF70040040
002FFF50040040
004FFF30040040
006FFF10130040
008FFD00310140
00BFFB00400320
00DFF900400400
00FFF700400400
02FFF500400400
04FFF200400400
07FFF001300400
09FFD003101300
0BFFB004003100
0DFF9004004000
0FFF6004004000
3FFF4004004000
5FFF2001004000
7FFF0000004000
9FFF7555561000
BFFFFFFFC20000
DFFFFFFB100000
AFFFFF80000000
ENDCHAR
STARTCHAR zero
ENCODING 48
SWIDTH 827 0
DWIDTH 23 0
BBX 23 24 0 -3
BITMAP
000000014444444444410000
000000440000000000044000
000018100044444430002300
0002C4003500000016100500
003EF0005000000000500310
02EFD0013007EFD400400130
0AFFD002200CFFFA00400140
0EFFD002200CFFFA00400140
0FFFD002200CFFFA00400140
1FFFD0022008FFFA00400140
1FFFD0022008FFFA00400140
1FFFD0022008FFFA00400140
1FFFD0022008FFFA00400140
1FFFD0022008FFFA00400140
1FFFD0013007FFF600400140
1FFFD0005000232000500130
1FFFF0003510000016100310
0FFFF5000044444540000500
0EFFFD100000000000003400
0BFFFFD50000000000165000
06FFFFFFEA8665678BD30000
00BFFFFFFFFFFFFFFC200000
0008FFFFFFFFFFFF80000000
000017ADEFFEDA7200000000
ENDCHAR
STARTCHAR one
ENCODING 49
SWIDTH 701 0
DWIDTH 20 0
BBX 20 24 0 -3
BITMAP
00002644444444430000
0003E200000000040000
004EF200000000040000
05FFF201444510040000
0BFFF200000220040000
0CFFF300000220040000
0CFFFECC800220040000
0CFFFFFFB00220040000
0BFFFFFFB00220040000
0399AFFFB00220040000
00003FFFB00220040000
00003FFFB00220040000
00003FFFB00220040000
00003FFFB00220040000
00003FFFB00220040000
00004AAA700220054450
00079000000220000013
009F8000000220000014
1CFF8004444554442014
5FFF9000000000000013
5FFFD555555555555571
5FFFFFFFFFFFFFFFFD20
5FFFFFFFFFFFFFFFA100
2EFFFFFFFFFFFFE70000
ENDCHAR
STARTCHAR two
ENCODING 50
SWIDTH 739 0
DWIDTH 21 0
BBX 20 24 0 -3
BITMAP
00001644444444444400
0002C600000000000160
003EF600000000000014
03EFF600444444430004
07FFF600000000023004
07FFFC66666650004004
07FFFFFFFFFFF3004004
07FFFFFFFFFA50004004
04EFFFFFA51000005004
00000251000001440004
00003600002443000023
0005D000442000000350
007F9004000000039500
06FF6004000038DE4000
1EFF5004002DFFD20000
5FFF5004003AAA544444
7FFF5004000000000004
8FFF5004444444444104
8FFF5000000000000004
8FFF5000000000000004
8FFFB555555555555556
8FFFFFFFFFFFFFFFFFA1
8FFFFFFFFFFFFFFFF700
5EFFFFFFFFFFFFFE4000
ENDCHAR
STARTCHAR three
ENCODING 51
SWIDTH 737 0
DWIDTH 21 0
BBX 21 24 0 -3
BITMAP
0000644444444445300000
001A900000000000240000
01CF900000000000040000
1DFF900444444400013000
4FFF900000000150004000
4FFFC22222200040004000
4FFFFFFFFFFC0031013000
4FFFFFFFFFFB0031031000
3FFFFFE100000041050000
02445ED000000050244000
0003DFD003445743001400
000EFFD000000002400500
000FFFE100000000400310
000FFFFFFFFFF800400220
000FFFFFFFFFFA00400220
000DE76666666200400220
001B900000000001500220
02CF900444444444000400
1EFF900000000000000500
4FFF900000000000006100
4FFFD55555555556980000
4FFFFFFFFFFFFFFF700000
4FFFFFFFFFFFFFE5000000
2EFFFFFFFFFED920000000
ENDCHAR
STARTCHAR four
ENCODING 52
SWIDTH 809 0
DWIDTH 23 0
BBX 21 24 1 -3
BITMAP
0004544444400544444530
006F000000406C00000040
08FF00000047FC00000040
9FFF0004009FFC00220040
DFFF000400AFFC00220040
EFFF000400AFFC00220040
EFFF000400AFFC00220040
EFFF000400AFFC00220040
EFFF000400AFFC00220040
EFFF0004009FFC00220040
EFFF000400277600220040
EFFF000400000000220040
EFFF100510000000220040
EFFF500044444444620040
DFFFD10000000000220040
AFFFFD6200000000220040
5FFFFFFFFFFFFC00220040
0CFFFFFFFFFFFC00220040
01AFFFFFFFFFFC00000040
0001455556FFFC00000040
0000000001FFFF65555520
0000000001FFFFFFFFD300
0000000001FFFFFFFB1000
0000000000CFFFFF900000
ENDCHAR
STARTCHAR five
ENCODING 53
SWIDTH 747 0
DWIDTH 21 0
BBX 21 24 0 -3
BITMAP
0000354444444444445200
0005F10000000000000400
007FF10000000000000400
08FFF10054444444300400
0DFFF10040000000000400
0DFFF10040000000002300
0DFFF1004009FFFFFF6000
0DFFF1004008DDDDE60000
0DFFF10040000000035000
0DFFF10040000000000500
0DFFF10054444444100220
0DFFF10000000000500040
0DFFF30000000000400040
0DFFFFFFFFFFF900310040
0DFFFFFFFFFFFB00310040
0AFFE76666666300400040
002CC00000000000500040
01CFC00344444455100230
0DFFC00000000000000500
2FFFC00000000000005200
2FFFE65555555556891000
2FFFFFFFFFFFFFFF900000
2FFFFFFFFFFFFFF7000000
0CFFFFFFFFFFD930000000
ENDCHAR
STARTCHAR six
ENCODING 54
SWIDTH 793 0
DWIDTH 22 0
BBX 22 24 0 -3
BITMAP
0000000344444444444300
0000016100000000000400
0000290002444444300400
0003E50042000000000400
005FF00040000000000400
03FFD0004006DDDDDDA100
0AFFD000400CFFFFF80000
0EFFD00040053101145400
0FFFD00040000000000150
1FFFD00042444543300031
1FFFD00073000000050004
1FFFD00060000000022004
1FFFD0004008EFA0004004
1FFFD000400CFFF0004004
1FFFD000400CFFF0004004
1FFFD0004005AB60004004
1FFFF00050000000031004
0FFFF40034000000250022
0EFFFC1001444444200040
0CFFFFD400000000003500
06FFFFFFEA8665679D6000
00CFFFFFFFFFFFFFE40000
0019FFFFFFFFFFFC200000
000028BDEFEEC940000000
ENDCHAR
STARTCHAR seven
ENCODING 55
SWIDTH 727 0
DWIDTH 20 0
BBX 20 24 0 -3
BITMAP
00016444444444444444
002D4000000000000004
03EF4000000000000004
4FFF4014444444443004
9FFF4000000000004004
9FFF7000000000004004
9FFFFFFFFFFFF0004004
9FFFFFFFFFFFF0004004
8FFFFFFFFFFEA0004004
15555555783000014004
00000003100000161004
00000091000045400031
00001C90005510000140
0002DF60050000005500
000CFF500400059D5000
004FFF5004002FD30000
007FFF5004002A100000
008FFF50040022000000
008FFF50010022000000
008FFF50000022000000
008FFFB5555560000000
008FFFFFFFFB10000000
008FFFFFFF9000000000
005EFFFFE60000000000
ENDCHAR
STARTCHAR eight
ENCODING 56
SWIDTH 811 0
DWIDTH 23 0
BBX 23 24 0 -3
BITMAP
000000014444444444200000
000000440000000000250000
000008500144444420014000
0001BE002500000033004000
002DFD004000341004004000
00AFFD004008FFD004004000
00FFFE004009FFE004004000
01FFFF404005EFA004004000
01FFFFD22400000024081000
00EFFC200387556860005100
009FF2005300000016100500
005FB0032000000000500400
04FF9004001CFFD500400410
0DFF8004004FFFF900400310
3FFF8004004FFFF900400310
5FFF80040005887100400310
5FFF90041000000000500400
5FFFD0006300000016200500
5FFFF7000244444430002300
3FFFFF920000000000164000
0DFFFFFFC97665678BD30000
04FFFFFFFFFFFFFFFC200000
004DFFFFFFFFFFFF91000000
000049BDEFFEDB7200000000
ENDCHAR
STARTCHAR nine
ENCODING 57
SWIDTH 793 0
DWIDTH 22 0
BBX 22 24 0 -3
BITMAP
0000000344444444441000
0000025100000000004500
0000460003444445100240
0007D00051000000530050
009FA00310000000050022
08FF8004001CFE60050004
1FFF8004002FFFA0040004
4FFF8004002FFFA0040004
5FFF80040008AA30040004
5FFFA00400000000060004
5FFFE10050000000360004
5FFFF90003345433240004
3FFFFFC520000010040004
0EFFFFFFFFEEEFA0040004
06FFFFFFFFFFFE50040004
005CFFC100000000040014
00004FA000000000230032
0004EFA003444444200050
002FFFA000000000000240
003FFFA000000000003500
004FFFE6555555568B5000
004FFFFFFFFFFFFFE30000
003FFFFFFFFFFFFC200000
001DFFFFFFFEDA50000000
ENDCHAR
STARTCHAR colon
ENCODING 58
SWIDTH 484 0
DWIDTH 14 0
BBX 13 22 0 -3
BITMAP
00002444444430
0004B000000040
006FC000000040
08FFC000300040
1FFFC000400040
2FFFC000400040
2FFFC000000040
2FFFC000000040
2FFFF988888830
2FFFFFFFFFD200
2FFFFBAAAA5430
0ACEC000000040
005EC000000040
06FFC000300040
1FFFC000400040
2FFFC000400040
2FFFC000000040
2FFFC000000040
2FFFE655555530
2FFFFFFFFFE500
2FFFFFFFFE3000
0CFFFFFFC20000
ENDCHAR
STARTCHAR semicolon
ENCODING 59
SWIDTH 484 0
DWIDTH 14 0
BBX 13 25 0 -6
BITMAP
00002444444430
0004B000000040
006FC000000040
08FFC000300040
1FFFC000400040
2FFFC000400040
2FFFC000000040
2FFFC000000040
2FFFF988888830
2FFFFFFFFFD200
1FFFFBAAAA5430
07ADC000000040
007FC000000040
08FFC014444040
1FFFC000004040
2FFFC000004040
2FFFD100004040
2FFFFFFFB04040
2FFFF733142040
1FFFF214420220
02CFF300003400
08FFFDBBBC4000
0BFFFFFFD30000
0BFFFFFB100000
04999840000000
ENDCHAR
STARTCHAR less
ENCODING 60
SWIDTH 814 0
DWIDTH 23 0
BBX 20 21 1 -2
BITMAP
00000000000000002445
00000000000004553004
00000000024541000004
00000025530000003104
00000530000014442004
00019100034440000004
002C9003520000002693
03DF70040000159DFD20
0DFF7004006CFFFFB100
4FFF7004005BEFB70000
6FFF7004000004443000
7FFFA002520000001443
7FFFE200024440000004
6FFFFE50000014442004
4FFFFFFD840000002104
0DFFFFFFFFEB62000004
02CFFFFFFFFFFFD84004
0005AEFFFFFFFFFFFEB5
00000048CFFFFFFFFF60
00000000026AEFFFE400
000000000000048A2000
ENDCHAR
STARTCHAR equal
ENCODING 61
SWIDTH 834 0
DWIDTH 23 0
BBX 22 18 1 0
BITMAP
0000444444444444444440
000A300000000000000031
01BF300000000000000031
1CFF301444444444441031
9FFF300000000000000031
BFFF400000000000000041
BFFFEBBBBBBBBBBBBBBB50
BFFFFFFFFFFFFFFFFFF500
AFFFFFFFFFFFFFFFFE4000
4BCCC99999999999964440
001B300000000000000031
02DF300000000000000031
3EFF301444444444441031
AFFF300000000000000031
BFFF955555555555555570
BFFFFFFFFFFFFFFFFFFB10
BFFFFFFFFFFFFFFFFF9000
7FFFFFFFFFFFFFFFE60000
ENDCHAR
STARTCHAR greater
ENCODING 62
SWIDTH 814 0
DWIDTH 23 0
BBX 21 21 1 -2
BITMAP
0000889730000000000000
001BB00158851000000000
02CFB00000037873000000
1EFFB00330000015871000
2FFFB00014442000018300
2FFFC00000003443000700
2FFFFC8400000001500320
2FFFFFFFEB730000140130
1FFFFFFFFFFFEA10040040
038CFFFFFFFFC810040040
000015AFEA610000320130
0000376300000035400310
0005B00000145520000300
008FB00244400000024000
0AFFB00100000027B70000
2FFFB00000149DFE400000
2FFFB0027BFFFFC2000000
2FFFFADFFFFD8300000000
2FFFFFFEA6200000000000
2FFFD84000000000000000
0662000000000000000000
ENDCHAR
STARTCHAR question
ENCODING 63
SWIDTH 756 0
DWIDTH 21 0
BBX 21 24 0 -3
BITMAP
0000644444444444551000
001B700000000000005300
02DF700000000000000610
2DFF700444444444100150
6FFF700000000000500050
6FFFA00000000000320040
6FFFFFFFFFFFFC00230040
6FFFFFFFFFFDB700230040
5FFFFFE753100000230040
04555CB000000000410030
0001AFD001344444100120
001CFFF001100000000200
002FFFF300000000144000
000FFFF6002468ACE50000
000DFFFDBCCCCEFE300000
000AFFC000000391000000
0006FFB000000220000000
0007FFB000400220000000
002FFFB000100220000000
003FFFB000000220000000
003FFFE655555500000000
003FFFFFFFFFA100000000
002FFFFFFFF80000000000
001DFFFFFE600000000000
ENDCHAR
STARTCHAR at
ENCODING 64
SWIDTH 967 0
DWIDTH 27 0
BBX 26 29 1 -5
BITMAP
00000000034444444442000000
00000024444444444444551000
00000535520000000003535300
0000826116ACEFFEEC95025420
001B7414EFFFFFFFFFFFC13150
02DF251EFFFFFFFFFFFFFA0450
0DFF0449768AA999999AFE0440
6FFE0440151000000000BF0431
BFFE0442A00254444510BF0431
EFFE044E703400000220BF0431
FFFE044F50500DFB0220BF0431
FFFE044F50402FFB0220BF0431
FFFE044F50402FFB0220BF0431
FFFE044F50402FFB0220BF0431
FFFE044F50402FFB0220BF0431
FFFE044F50401FFB0220BE0440
FFFE044F504002430220B70440
FFFE044F803200000220006140
FFFE044FE10444444554551310
FFFE043FFC4000000000036200
FFFF140CFFFFDCCCCCDDEA1000
EFFF5411AFFFFFFFFFFF700000
DFFFC061015799AAAAA8400000
9FFFFA14520000000000400000
4FFFFFD6124444444441400000
0AFFFFFFFC9765555555600000
01BFFFFFFFFFFFFFFFF9000000
0007EFFFFFFFFFFFFF70000000
0000059CDEFFFFFFE500000000
ENDCHAR
STARTCHAR A
ENCODING 65
SWIDTH 830 0
DWIDTH 23 0
BBX 23 24 0 -3
BITMAP
000000005444444445400000
000000092000000000410000
000000AC0000000000040000
00000AF60015444500040000
00008FE10050000150022000
0000EFA00220000050004000
0005FF4005007F3014004000
000BFD001400DF8005001400
002FF8005003FFD002300400
007FF3005007FFF200500400
00DFE0014008BBB500500130
04FFC0031000000000320040
09FFB0040000000000230040
0DFFB0044444444444530040
1FFFB0040000000000130040
2FFFB0040015555400130040
2FFFB004002FFFFC00130040
2FFFB004002FFFFC00130040
2FFFB000002FFFFC00000040
2FFFB0000023FFFC00000040
2FFFE6555561FFFF65555520
2FFFFFFFFA11FFFFFFFFD300
2FFFFFFF8001FFFFFFFB1000
1DFFFFE60000BFFFFF900000
ENDCHAR
STARTCHAR B
ENCODING 66
SWIDTH 825 0
DWIDTH 23 0
BBX 22 24 1 -3
BITMAP
0002644444444444440000
004E200000000000016000
06FF200000000000001400
6FFF200544444442000400
BFFF200400000004200400
BFFF2004008FFA00500400
BFFF2004008FFD00400400
BFFF2004008FFB00400400
BFFF200400011000405100
BFFF200400000003203520
BFFF200644444566410050
BFFF200400000000061004
BFFF200400355530005004
BFFF2004008FFFF1004004
BFFF2004008FFFF2004004
BFFF2004008FFFD1004004
BFFF200400000000042004
BFFF200544444444420004
BFFF200000000000000032
BFFF200000000000000240
BFFF95555555555557A400
BFFFFFFFFFFFFFFFFE3000
BFFFFFFFFFFFFFFFC20000
7FFFFFFFFFFFFEB6000000
ENDCHAR
STARTCHAR C
ENCODING 67
SWIDTH 728 0
DWIDTH 20 0
BBX 20 24 0 -3
BITMAP
00000003544444444445
00000062000000000004
00001910000000000004
0003D500034444444004
004EF100520000000004
02EFD000400000000004
09FFD0022006EFFFFFB1
0DFFD002200BFFFFF900
0FFFD002200CFFFF7000
1FFFD002200755530000
1FFFD002200400000000
1FFFD002200400000000
1FFFD002200400000000
1FFFD002200400000000
1FFFD002300400000000
1FFFD000400244444443
1FFFF100510000000004
0FFFF500034444444004
0EFFFC10000000000004
0BFFFFC2000000000004
05FFFFFFB86555555556
00BFFFFFFFFFFFFFFF90
001BFFFFFFFFFFFFF600
00005ADEFFFFFFFD3000
ENDCHAR
STARTCHAR D
ENCODING 68
SWIDTH 846 0
DWIDTH 24 0
BBX 22 24 1 -3
BITMAP
0002644444444444444000
004E200000000000000520
06FF200000000000000050
6FFF200544444444300014
BFFF200400000000160004
BFFF200400000000013004
BFFF2004006CCCA0004004
BFFF2004007FFFF2004004
BFFF2004007FFFF2004004
BFFF2004006FFFF2004004
BFFF2004004BFFF2004004
BFFF2004004BFFF2004004
BFFF2004004BFFF2004004
BFFF2004004BFFF2004004
BFFF2004004BFFF2004004
BFFF20040038AA70014004
BFFF200400000000160004
BFFF200544444444400014
BFFF200000000000000050
BFFF200000000000001610
BFFF9555555555567AA100
BFFFFFFFFFFFFFFFF80000
BFFFFFFFFFFFFFFE600000
7FFFFFFFFFFFEB71000000
ENDCHAR
STARTCHAR E
ENCODING 69
SWIDTH 754 0
DWIDTH 21 0
BBX 20 24 1 -3
BITMAP
00026444444444444453
004E2000000000000004
06FF2000000000000004
6FFF2005444444443004
BFFF2004000000000004
BFFF2004001333333343
BFFF2004009FFFFFFE40
BFFF2004009FFFFFE300
BFFF2004000000004100
BFFF2004000000002300
BFFF2006444444202300
BFFF2004000000002300
BFFF2004000000003100
BFFF2004008DDDDD6000
BFFF2004009FFFE50000
BFFF2004006AAA744451
BFFF2004000000000004
BFFF2005444444443004
BFFF2000000000000004
BFFF2000000000000004
BFFF9555555555555563
BFFFFFFFFFFFFFFFFE40
BFFFFFFFFFFFFFFFC200
7FFFFFFFFFFFFFFA1000
ENDCHAR
STARTCHAR F
ENCODING 70
SWIDTH 718 0
DWIDTH 20 0
BBX 19 24 1 -3
BITMAP
00026444444444444450
004E2000000000000040
06FF2000000000000040
6FFF2005444444441040
BFFF2004000000000040
BFFF2004000000000040
BFFF2004007FFFFFFC10
BFFF2004007FFFFFA100
BFFF2004007EEEEC1000
BFFF2004000000005000
BFFF2004000000004000
BFFF2007444444004000
BFFF2004000000004000
BFFF2004000000005000
BFFF2004007FFFFB1000
BFFF2004007FFF900000
BFFF2004007FF6000000
BFFF2004005520000000
BFFF2000004000000000
BFFF2000004000000000
BFFF9555554000000000
BFFFFFFFF60000000000
BFFFFFFE400000000000
7FFFFFC2000000000000
ENDCHAR
STARTCHAR G
ENCODING 71
SWIDTH 808 0
DWIDTH 23 0
BBX 22 24 0 -3
BITMAP
0000000354444444444500
0000016200000000000400
0000191000000000000400
0003D40003444444410400
004EF00052000000000400
02EFD00040000000000400
09FFD0013007EFFFFFC200
0DFFD002300CFFFFFB1000
0FFFD002300CFFFF900000
1FFFD00230075568444443
1FFFD002300401B4000004
1FFFD00230042CF3000004
1FFFD0023007EFF3004004
1FFFD002300CFFF3004004
1FFFD0013007DEE3004004
1FFFD00050000000004004
1FFFF10063000000004004
0FFFF50002444444444004
0EFFFC1000000000000004
0BFFFFC200000000000004
05FFFFFFB8655555555554
00BFFFFFFFFFFFFFFFFF60
001BFFFFFFFFFFFFFFE400
00005ADEFFFFFFFFFD3000
ENDCHAR
STARTCHAR H
ENCODING 72
SWIDTH 859 0
DWIDTH 24 0
BBX 22 24 1 -3
BITMAP
0002644444400026444445
004E2000004003E3000004
06FF200000404EF3000004
6FFF20040045FFF3004004
BFFF2004004AFFF3004004
BFFF2004004BFFF3004004
BFFF2004004BFFF3004004
BFFF20040038AAA2004004
BFFF200400000000004004
BFFF200400000000004004
BFFF200744444444445004
BFFF200400000000004004
BFFF200400000000004004
BFFF200400355551004004
BFFF2004007FFFF3004004
BFFF2004007FFFF3004004
BFFF2004007FFFF3004004
BFFF2004004BFFF3004004
BFFF2001004BFFF3001004
BFFF2000004BFFF3000004
BFFF9555555BFFF9555554
BFFFFFFFF80BFFFFFFFF70
BFFFFFFE500BFFFFFFE400
7FFFFFC30007FFFFFD3000
ENDCHAR
STARTCHAR I
ENCODING 73
SWIDTH 705 0
DWIDTH 20 0
BBX 19 24 0 -3
BITMAP
00005444444444444450
0008B000000000000040
00AFB000000000000040
0BFFB003444644441040
2FFFB000000400000040
3FFFC000000400000040
3FFFFDCC6004001CCB20
3FFFFFFF7004001FC100
2FFFFFFF7004001B1000
0688BFFF700400130000
00006FFF700400130000
00006FFF700400130000
00006FFF700400130000
00006FFF700400130000
00006FFF700400130000
00006AAA500400154440
0005A000000400000040
008FB003444644441040
0AFFB000000000000040
2FFFB000000000000040
3FFFE655555555555560
3FFFFFFFFFFFFFFFFA10
3FFFFFFFFFFFFFFF7000
1DFFFFFFFFFFFFD40000
ENDCHAR
STARTCHAR J
ENCODING 74
SWIDTH 788 0
DWIDTH 22 0
BBX 21 24 0 -3
BITMAP
0000000000000264444450
0000000000003D40000040
000000000005EF40010040
00000000005FFF40040040
00000000009FFF40040040
00000000009FFF40040040
00000000009FFF40040040
00000000009FFF40040040
00000000009FFF40040040
0000444444BFFF40040040
00096000009FFF40040040
01BF6000008FFF40040040
2DFF6004008FFF40040040
8FFF6004008FFF40040040
8FFF6004004CEB10040040
8FFF600500000000140040
8FFF800161000002600040
8FFFC00003444453000050
7FFFF60000000000000410
4FFFFF9100000000017200
0DFFFFFFB9765679BB1000
04FFFFFFFFFFFFFF900000
004DFFFFFFFFFFE6000000
000059CEFFEDA610000000
ENDCHAR
STARTCHAR K
ENCODING 75
SWIDTH 846 0
DWIDTH 24 0
BBX 22 24 1 -3
BITMAP
0002644444400045444452
004E200000400860000041
06FF200000409E00000050
6FFF2004004BF800500220
BFFF2004007FF200500400
BFFF2004007FA004101400
BFFF2004007F3005004000
BFFF2004006A0032007100
BFFF200400000050000330
BFFF200400000130000032
BFFF200644444644410004
BFFF200400000000051004
BFFF200400000000004004
BFFF2004006CCCA0004004
BFFF2004007FFFF1004004
BFFF2004007FFFF1004004
BFFF2004006FFFF1004004
BFFF2004004CFFF1004004
BFFF2001004CFFF1001004
BFFF2000004CFFF1000004
BFFF9555555CFFF8555554
BFFFFFFFF70CFFFFFFFF50
BFFFFFFE400CFFFFFFE300
7FFFFFC20008FFFFFC2000
ENDCHAR
STARTCHAR L
ENCODING 76
SWIDTH 795 0
DWIDTH 22 0
BBX 21 24 1 -3
BITMAP
0002644444400000000000
004E200000400000000000
06FF200100400000000000
6FFF200400400000000000
BFFF200400400000000000
BFFF200400400000000000
BFFF200400400000000000
BFFF200400400000000000
BFFF200400400000000000
BFFF200400400044444430
BFFF200400400960000040
BFFF20040041CF50000040
BFFF2004006DFF50040040
BFFF2004007FFF50040040
BFFF2004007EEE50040040
BFFF200400000000040040
BFFF200400000000040040
BFFF200544444444440040
BFFF200000000000000040
BFFF200000000000000040
BFFF955555555555555540
BFFFFFFFFFFFFFFFFFF500
BFFFFFFFFFFFFFFFFE3000
7FFFFFFFFFFFFFFFC20000
ENDCHAR
STARTCHAR M
ENCODING 77
SWIDTH 949 0
DWIDTH 27 0
BBX 25 24 1 -3
BITMAP
00026444445000000644444520
004E200000040001A100000040
06FF20000003001C8000000040
6FFF2004510031CE1015400040
BFFF200405002BF70050400040
BFFF200401500AD00410400040
BFFF2004002301203300400040
BFFF2004000410014000400040
BFFF2004000050050000400040
BFFF2004002005510200400040
BFFF2004009100000900400040
BFFF200400A700006B00400040
BFFF200400AE1001DB00400040
BFFF200400AFD99DFB00400040
BFFF200400AFFFFFFB00400040
BFFF200400AFF8FFFB00400040
BFFF2004009C42FFFB00400040
BFFF2004004002FFFB00400040
BFFF2000004002FFFB00000040
BFFF2000004002FFFB00000040
BFFF9555553002FFFE65555620
BFFFFFFFE40002FFFFFFFFC200
BFFFFFFD200002FFFFFFFB1000
7FFFFFB1000001DFFFFF800000
ENDCHAR
STARTCHAR N
ENCODING 78
SWIDTH 853 0
DWIDTH 24 0
BBX 22 24 1 -3
BITMAP
0002644444000026444444
004E2000014003E2000004
06FF200000234EF2000004
6FFF20072003EFF2004004
BFFF200441006FF2004004
BFFF2004051008F2004004
BFFF2004005000A2004004
BFFF200400050011004004
BFFF200400015000004004
BFFF200400002400004004
BFFF200400200230004004
BFFF200400940033004004
BFFF2004009E2004204004
BFFF2004009FC100414004
BFFF2004009FFA00055004
BFFF2004009FFF80005004
BFFF2004009FFFF2004004
BFFF2004009FFFF2004004
BFFF2001009FFFF2001004
BFFF2000004CFFF2000004
BFFF9555554BFFF9555553
BFFFFFFFE50BFFFFFFFE50
BFFFFFFD300BFFFFFFD300
7FFFFFB10007FFFFFB1000
ENDCHAR
STARTCHAR O
ENCODING 79
SWIDTH 837 0
DWIDTH 23 0
BBX 23 24 0 -3
BITMAP
000000014554444444510000
000000440000000000045000
000017100044444440001500
0002C4002500000004200320
003EF0005000000000500040
02EFD0013006EFE700220040
0AFFD002200CFFFD00130040
0EFFD002200CFFFE00130040
0FFFD002200AFFFE00130040
1FFFD0022004FFFE00130040
1FFFD0022004FFFE00130040
1FFFD0022004FFFE00130040
1FFFD0022004FFFE00130040
1FFFD0022004FFFE00130040
1FFFD0013005FFFA00220040
1FFFD0005000232000500040
1FFFF0002510000015200040
0FFFF5000044444440000320
0EFFFD100000000000001600
0BFFFFD50000000000057000
05FFFFFFEB8665668AE60000
00AFFFFFFFFFFFFFFE400000
0008FFFFFFFFFFFFB2000000
000016ADEFFEDB8300000000
ENDCHAR
STARTCHAR P
ENCODING 80
SWIDTH 782 0
DWIDTH 22 0
BBX 21 24 1 -3
BITMAP
0002644444444444440000
004E200000000000005200
06FF200000000000000600
6FFF200544444444000140
BFFF200400000001600040
BFFF200400244200140040
BFFF2004008FFF20040040
BFFF2004008FFF40040040
BFFF2004008FFF40040040
BFFF2004008FFD10040040
BFFF200400000000040040
BFFF200400000000500040
BFFF200644444444000510
BFFF200400000000003300
BFFF200400000012483000
BFFF2004007FFFFFD20000
BFFF2004007FFFFB100000
BFFF2004007FFD70000000
BFFF200100542000000000
BFFF200000400000000000
BFFF955555400000000000
BFFFFFFFF6000000000000
BFFFFFFE40000000000000
7FFFFFC200000000000000
ENDCHAR
STARTCHAR Q
ENCODING 81
SWIDTH 837 0
DWIDTH 23 0
BBX 23 27 0 -6
BITMAP
000000014554544444410000
000000440000000000045000
000007200000000000001500
0001B5000044444440000410
002DF1002500000004200040
01DFD0005000354000500040
08FFD0013009FFFB00220040
0DFFD002200CFFFE00130040
0FFFD002200CFFFE00130040
1FFFD0022008FFFE00130040
1FFFD0022004FFFE00130040
1FFFD0022004FFFE00130040
1FFFD0022004FFFE00130040
1FFFD0022004FFFE00130040
1FFFD0022004FFFD00130040
1FFFD0013004EFE700220040
1FFFE0005000000000500050
1FFFF3002500000005300130
0EFFFA000144464441000600
0DFFFF800000040000006200
09FFFFFD73000400037A2000
03FFFFFFFF5000005FB10000
006FFFFFFF60000059000000
0004CFFFFFB6555560000000
000003BFFFFFFFF800000000
0000008FFFFFFF6000000000
0000004EFFFFD40000000000
ENDCHAR
STARTCHAR R
ENCODING 82
SWIDTH 843 0
DWIDTH 24 0
BBX 23 24 1 -3
BITMAP
000264444444444445200000
004E20000000000000420000
06FF20000000000000050000
6FFF20054444444200031000
BFFF20040000000420014000
BFFF20040059940040004000
BFFF2004008FFB0040004000
BFFF2004008FFC0040022000
BFFF2004008FF80040050000
BFFF20040000000050271000
BFFF20040000000230005100
BFFF20064444445642000500
BFFF20040000000003200400
BFFF20040000000000400310
BFFF2004008FFFF400400310
BFFF2004008FFFF700400310
BFFF2004008FFFF700400310
BFFF2004006CFFF700400310
BFFF20000046FFF700000310
BFFF20000046FFF700000310
BFFF95555546FFFC55555600
BFFFFFFFF606FFFFFFFFA100
BFFFFFFE4006FFFFFFF80000
7FFFFFC20003EFFFFE500000
ENDCHAR
STARTCHAR S
ENCODING 83
SWIDTH 750 0
DWIDTH 21 0
BBX 21 24 0 -3
BITMAP
0000001544444444444400
0000034000000000000400
0000660000000000000400
0008E00014444444300400
00AFB00050000000000400
07FFA00410000000001400
0EFFA004000CFFFFFF8000
3FFFA0040008CEFFF60000
4FFFA00310000013642000
4FFFB00054100000002300
4FFFE10000344441000320
3FFFF80000000002400040
2FFFFFB400000000220040
0DFFFFFFEC975200140040
05FFFFFFFFFFFD00040040
005DE99999999600220040
0008A00000000001600040
01BFA00344444444000040
1CFFA00000000000000500
4FFFA00000000000005200
4FFFD555555555568A2000
4FFFFFFFFFFFFFFFA10000
4FFFFFFFFFFFFFF8000000
1DFFFFFFFFFED930000000
ENDCHAR
STARTCHAR T
ENCODING 84
SWIDTH 756 0
DWIDTH 21 0
BBX 22 24 0 -3
BITMAP
0003544444444444444460
005F000000000000000031
07FF000000000000000031
7FFF002444446444441031
DFFF000000004000000031
DFFF300000004000000040
DFFFFFFFF2004005FFFD20
DFFFFFFFF2004005FFC100
CFFFFFFFF2004005FA0000
25555DFFF2004004400000
00000CFFF2004004000000
00000CFFF2004004000000
00000CFFF2004004000000
00000CFFF2004004000000
00000CFFF2004004000000
00000CFFF2004004000000
00000CFFF2004004000000
00000CFFF2004004000000
00000CFFF2001004000000
00000CFFF2000004000000
00000CFFF9555556000000
00000CFFFFFFFF90000000
00000BFFFFFFF600000000
000007FFFFFD4000000000
ENDCHAR
STARTCHAR U
ENCODING 85
SWIDTH 846 0
DWIDTH 24 0
BBX 22 24 1 -3
BITMAP
0004544444400045444444
006F0000004006F1000004
08FF000100409FF1001004
9FFF00040049FFF1004004
DFFF0004004DFFF1004004
DFFF0004004DFFF1004004
DFFF0004004DFFF1004004
DFFF0004004DFFF1004004
DFFF0004004DFFF1004004
DFFF0004004DFFF1004004
DFFF0004004DFFF1004004
DFFF0004004DFFF1004004
DFFF0004004DFFF1004004
DFFF0004004DFFF0004004
DFFF0004002ACC70004004
DFFF100500000000041004
DFFF300151000000430004
DFFF700003444444100032
BFFFE30000000000000160
8FFFFE7100000000005700
2FFFFFFFB9765668AE6000
07FFFFFFFFFFFFFFE40000
006EFFFFFFFFFFFB200000
00016ACEFFEDB830000000
ENDCHAR
STARTCHAR V
ENCODING 86
SWIDTH 830 0
DWIDTH 23 0
BBX 23 24 0 -3
BITMAP
000064444453000644444530
0009B0000004009B00000040
01BFB00010041CFB00100040
0CFFB0023005DFFB00410040
2FFFB0023006FFFB00410040
2FFFB0023007FFFB00410040
2FFFB0023007FFFB00410040
2FFFB0023007FFFB00410040
2FFFB0023007FFFB00410040
2FFFB0014006FFF900400040
2FFFD0005005FFF500500040
2FFFF2005000EFE100500410
2FFFF8003200AFA003200400
1FFFFD0005004F5005001300
0CFFFF400410040014004000
06FFFFA00050000050004000
01EFFFF20050000140031000
009FFFF70004444400040000
003FFFFD0000000000130000
000CFFFF4000000000400000
0007FFFFD655555556300000
0001FFFFFFFFFFFFE4000000
0000AFFFFFFFFFFC20000000
00002DFFFFFFFFA100000000
ENDCHAR
STARTCHAR W
ENCODING 87
SWIDTH 931 0
DWIDTH 26 0
BBX 25 24 1 -3
BITMAP
00055444443000000644444600
007E0000004000009900000310
09FE00000040001BF900000310
AFFE0013004000CFF900400310
FFFE0013004004FFF900400310
FFFE0013004004FFF900400310
FFFE0013004004FFF900400310
FFFE0013004056AEF900400310
FFFE001300590001E900400310
FFFE001300B600008900400310
FFFE001300A100002900400310
FFFE0013004024510400400310
FFFE0013000050050000400310
FFFE0004000410023000400410
FFFF1004001403105000400400
FFFF500400500D901400400400
EFFFA00402302FD00503100400
DFFFF10054007FF20054004000
9FFFF6000000BFF60000004000
4FFFFB000001FFFA0000013000
0DFFFF85555AFFFF8555550000
08FFFFFFFFA9FFFFFFFF800000
02FFFFFFF804FFFFFFF6000000
008FFFFE5000AFFFFD40000000
ENDCHAR
STARTCHAR X
ENCODING 88
SWIDTH 837 0
DWIDTH 23 0
BBX 22 24 1 -3
BITMAP
0004544444300045444443
006E0000004005D0000004
08FE000000407FE0000004
9FFE00230048FFD0023004
FFFE0013004EFFA0032004
FFFF1005001EFE20050014
FFFF70023005F600230050
EFFFF20041000000500240
CFFFFC0005000004000500
7FFFFF8001300022005100
0CFFFFF100544450005000
02EFFF7002300022004100
006FFA0014000004100500
000DD10050004100500140
008F50041009FA00140031
04FF0005005FFF60041004
2EFE001300CFFFD0022004
9FFE002300CFFFE0013004
DFFE000100BFFFE0001004
FFFE0000005FFFE0000004
FFFF7555563FFFF7555563
FFFFFFFFE30FFFFFFFFE40
FFFFFFFC200FFFFFFFC200
BFFFFF91000BFFFFFA1000
ENDCHAR
STARTCHAR Y
ENCODING 89
SWIDTH 805 0
DWIDTH 23 0
BBX 22 24 0 -3
BITMAP
0000644444600006444445
001C7000003101B8000004
02DF700000312CF8000004
2EFF70040033DFF8004004
6FFF70040037FFF8004004
6FFF70040037FFF8004004
6FFF70040027FFF7004004
6FFF8004000AFFF3005004
6FFF90013004FF80013005
6FFFE10041008C10050005
6FFFFA0005000000410050
4FFFFF5001400002200330
0EFFFFE200320014001400
05FFFFFC00035640005000
009FFFFF80000400041000
000CFFFFF4000400230000
0002EFFFFC000400400000
00006FFFFC000400400000
00000AFFFC000100400000
000001FFFD000000400000
000001FFFF655555400000
000001FFFFFFFFF6000000
000001FFFFFFFE40000000
000000CFFFFFC200000000
ENDCHAR
STARTCHAR Z
ENCODING 90
SWIDTH 760 0
DWIDTH 21 0
BBX 21 24 0 -3
BITMAP
0000354444444444444510
0005E00000000000000130
006FF00000000000000130
07FFF00244444444400130
0DFFF00000000000400130
0DFFF30000000000500230
0DFFFFFFFFF90005000410
0DFFFFFFFFB00041000500
0CFFFFFFFD100320005000
0255555AE3002300041000
0000003E40014000330000
000001D700050001400000
00000C9000500005000000
00009C0004100050000000
0007E10032000410000000
004F900140001644444430
03EF800400000000000040
1DFF800244444444440040
5FFF800000000000000040
6FFF800000000000000040
6FFFC55555555555555550
6FFFFFFFFFFFFFFFFFF700
6FFFFFFFFFFFFFFFFE4000
3EFFFFFFFFFFFFFFC20000
ENDCHAR
STARTCHAR bracketleft
ENCODING 91
SWIDTH 529 0
DWIDTH 15 0
BBX 15 29 0 -6
BITMAP
0000344444444500
0006900000000130
008F800000000040
0AFF800344420040
4FFF800400000040
5FFF800400000130
5FFF8004000BB800
5FFF8004001F9000
5FFF800400180000
5FFF800400140000
5FFF800400140000
5FFF800400140000
5FFF800400140000
5FFF800400140000
5FFF800400140000
5FFF800400140000
5FFF800400140000
5FFF800400140000
5FFF800400140000
5FFF800400140000
5FFF800400054500
5FFF800400000130
5FFF800344420040
5FFF800000000040
5FFF900000000140
5FFFD66666666710
5FFFFFFFFFFFD200
5FFFFFFFFFFA1000
2EFFFFFFFE800000
ENDCHAR
STARTCHAR backslash
ENCODING 92
SWIDTH 487 0
DWIDTH 14 0
BBX 14 29 0 -5
BITMAP
00014444440000
002C0000004000
04EF1000004000
6FFF3004004000
EFFF6004004000
CFFF8004004000
AFFFA004004000
8FFFC004002200
6FFFE002200400
4FFFF100400400
1FFFF400400400
0EFFF600400400
0CFFF800400400
0AFFFA00400310
08FFFC00400130
05FFFF00230040
03FFFF20040040
01FFFF40040040
00EFFF60040040
00CFFF80040040
00AFFFB0040031
007FFFD0041013
005FFFF0013004
003FFFF2001004
001FFFF4000004
000EFFFB555564
000BFFFFFFFF60
0009FFFFFFE400
0005EFFFFC2000
ENDCHAR
STARTCHAR bracketright
ENCODING 93
SWIDTH 529 0
DWIDTH 15 0
BBX 15 29 0 -6
BITMAP
0000344444444500
0007800000000220
009F700000000230
1BFF700444500230
5FFF700000400230
6FFF900000400230
6FFFFFF700400230
6FFFFFF800400230
5FFFFFF800400230
0569FFF800400230
0006FFF800400230
0006FFF800400230
0006FFF800400230
0006FFF800400230
0006FFF800400230
0006FFF800400230
0006FFF800400230
0006FFF800400230
0006FFF800400230
0006FFF800400230
0006A00000400230
004E700000400230
05FF700444500230
3FFF700000000230
6FFF700000000220
6FFFD66666666600
6FFFFFFFFFFFB100
6FFFFFFFFFF90000
3EFFFFFFFE600000
ENDCHAR
STARTCHAR asciicircum
ENCODING 94
SWIDTH 814 0
DWIDTH 23 0
BBX 22 19 0 2
BITMAP
0000000014444445400000
0000000270000000240000
0000003D10244440050000
000005F900500004014000
00004FF403200004005000
0000DFE004002103104000
0004FFB00400C600401300
0009FF600401FA00400400
000DFF204105FE00400400
003FFD005008FF30230310
007FF900500CFF70040040
00BFF501301FFFB0040040
01FFF104005FFFE0040040
05FFB000009FFFF3000022
09FF7000009FFFF7000004
0DFFB555572EFFFD655563
2FFFFFFFD20BFFFFFFFE50
6FFFFFFB1007FFFFFFD300
5FFFFF800002DFFFFC2000
ENDCHAR
STARTCHAR underscore
ENCODING 95
SWIDTH 834 0
DWIDTH 23 0
BBX 22 10 1 -6
BITMAP
0000444444444444444440
001A300000000000000031
01CF300000000000000031
2DFF301444444444441031
AFFF300000000000000031
BFFF300000000000000031
BFFFA55555555555555550
BFFFFFFFFFFFFFFFFFFA00
BFFFFFFFFFFFFFFFFF8000
7FFFFFFFFFFFFFFFE60000
ENDCHAR
STARTCHAR grave
ENCODING 96
SWIDTH 600 0
DWIDTH 17 0
BBX 17 11 0 17
BITMAP
000012100000000000
000372444444431000
005F50000000023520
07FF50144320000040
6FFF50000134420040
8FFFB4200000000040
8FFFFFFFDCA8642330
8FFFFFFFFFFFFFF600
5FFFFFFFFFFFFE4000
002468ABDFFFD20000
000000000023100000
ENDCHAR
STARTCHAR a
ENCODING 97
SWIDTH 830 0
DWIDTH 23 0
BBX 23 24 0 -3
BITMAP
000000005444444445400000
000000092000000000410000
000000AC0000000000040000
00000AF60015444500040000
00008FE10050000150022000
0000EFA00220000050004000
0005FF4005007F3014004000
000BFD001400DF8005001400
002FF8005003FFD002300400
007FF3005007FFF200500400
00DFE0014008BBB500500130
04FFC0031000000000320040
09FFB0040000000000230040
0DFFB0044444444444530040
1FFFB0040000000000130040
2FFFB0040015555400130040
2FFFB004002FFFFC00130040
2FFFB004002FFFFC00130040
2FFFB000002FFFFC00000040
2FFFB0000023FFFC00000040
2FFFE6555561FFFF65555520
2FFFFFFFFA11FFFFFFFFD300
2FFFFFFF8001FFFFFFFB1000
1DFFFFE60000BFFFFF900000
ENDCHAR
STARTCHAR b
ENCODING 98
SWIDTH 825 0
DWIDTH 23 0
BBX 22 24 1 -3
BITMAP
0002644444444444440000
004E200000000000016000
06FF200000000000001400
6FFF200544444442000400
BFFF200400000004200400
BFFF2004008FFA00500400
BFFF2004008FFD00400400
BFFF2004008FFB00400400
BFFF200400011000405100
BFFF200400000003203520
BFFF200644444566410050
BFFF200400000000061004
BFFF200400355530005004
BFFF2004008FFFF1004004
BFFF2004008FFFF2004004
BFFF2004008FFFD1004004
BFFF200400000000042004
BFFF200544444444420004
BFFF200000000000000032
BFFF200000000000000240
BFFF95555555555557A400
BFFFFFFFFFFFFFFFFE3000
BFFFFFFFFFFFFFFFC20000
7FFFFFFFFFFFFEB6000000
ENDCHAR
STARTCHAR c
ENCODING 99
SWIDTH 728 0
DWIDTH 20 0
BBX 20 24 0 -3
BITMAP
00000003544444444445
00000062000000000004
00001910000000000004
0003D500034444444004
004EF100520000000004
02EFD000400000000004
09FFD0022006EFFFFFB1
0DFFD002200BFFFFF900
0FFFD002200CFFFF7000
1FFFD002200755530000
1FFFD002200400000000
1FFFD002200400000000
1FFFD002200400000000
1FFFD002200400000000
1FFFD002300400000000
1FFFD000400244444443
1FFFF100510000000004
0FFFF500034444444004
0EFFFC10000000000004
0BFFFFC2000000000004
05FFFFFFB86555555556
00BFFFFFFFFFFFFFFF90
001BFFFFFFFFFFFFF600
00005ADEFFFFFFFD3000
ENDCHAR
STARTCHAR d
ENCODING 100
SWIDTH 846 0
DWIDTH 24 0
BBX 22 24 1 -3
BITMAP
0002644444444444444000
004E200000000000000520
06FF200000000000000050
6FFF200544444444300014
BFFF200400000000160004
BFFF200400000000013004
BFFF2004006CCCA0004004
BFFF2004007FFFF2004004
BFFF2004007FFFF2004004
BFFF2004006FFFF2004004
BFFF2004004BFFF2004004
BFFF2004004BFFF2004004
BFFF2004004BFFF2004004
BFFF2004004BFFF2004004
BFFF2004004BFFF2004004
BFFF20040038AA70014004
BFFF200400000000160004
BFFF200544444444400014
BFFF200000000000000050
BFFF200000000000001610
BFFF9555555555567AA100
BFFFFFFFFFFFFFFFF80000
BFFFFFFFFFFFFFFE600000
7FFFFFFFFFFFEB71000000
ENDCHAR
STARTCHAR e
ENCODING 101
SWIDTH 754 0
DWIDTH 21 0
BBX 20 24 1 -3
BITMAP
00026444444444444453
004E2000000000000004
06FF2000000000000004
6FFF2005444444443004
BFFF2004000000000004
BFFF2004001333333343
BFFF2004009FFFFFFE40
BFFF2004009FFFFFE300
BFFF2004000000004100
BFFF2004000000002300
BFFF2006444444202300
BFFF2004000000002300
BFFF2004000000003100
BFFF2004008DDDDD6000
BFFF2004009FFFE50000
BFFF2004006AAA744451
BFFF2004000000000004
BFFF2005444444443004
BFFF2000000000000004
BFFF2000000000000004
BFFF9555555555555563
BFFFFFFFFFFFFFFFFE40
BFFFFFFFFFFFFFFFC200
7FFFFFFFFFFFFFFA1000
ENDCHAR
STARTCHAR f
ENCODING 102
SWIDTH 718 0
DWIDTH 20 0
BBX 19 24 1 -3
BITMAP
00026444444444444450
004E2000000000000040
06FF2000000000000040
6FFF2005444444441040
BFFF2004000000000040
BFFF2004000000000040
BFFF2004007FFFFFFC10
BFFF2004007FFFFFA100
BFFF2004007EEEEC1000
BFFF2004000000005000
BFFF2004000000004000
BFFF2007444444004000
BFFF2004000000004000
BFFF2004000000005000
BFFF2004007FFFFB1000
BFFF2004007FFF900000
BFFF2004007FF6000000
BFFF2004005520000000
BFFF2000004000000000
BFFF2000004000000000
BFFF9555554000000000
BFFFFFFFF60000000000
BFFFFFFE400000000000
7FFFFFC2000000000000
ENDCHAR
STARTCHAR g
ENCODING 103
SWIDTH 808 0
DWIDTH 23 0
BBX 22 24 0 -3
BITMAP
0000000354444444444500
0000016200000000000400
0000191000000000000400
0003D40003444444410400
004EF00052000000000400
02EFD00040000000000400
09FFD0013007EFFFFFC200
0DFFD002300CFFFFFB1000
0FFFD002300CFFFF900000
1FFFD00230075568444443
1FFFD002300401B4000004
1FFFD00230042CF3000004
1FFFD0023007EFF3004004
1FFFD002300CFFF3004004
1FFFD0013007DEE3004004
1FFFD00050000000004004
1FFFF10063000000004004
0FFFF50002444444444004
0EFFFC1000000000000004
0BFFFFC200000000000004
05FFFFFFB8655555555554
00BFFFFFFFFFFFFFFFFF60
001BFFFFFFFFFFFFFFE400
00005ADEFFFFFFFFFD3000
ENDCHAR
STARTCHAR h
ENCODING 104
SWIDTH 859 0
DWIDTH 24 0
BBX 22 24 1 -3
BITMAP
0002644444400026444445
004E2000004003E3000004
06FF200000404EF3000004
6FFF20040045FFF3004004
BFFF2004004AFFF3004004
BFFF2004004BFFF3004004
BFFF2004004BFFF3004004
BFFF20040038AAA2004004
BFFF200400000000004004
BFFF200400000000004004
BFFF200744444444445004
BFFF200400000000004004
BFFF200400000000004004
BFFF200400355551004004
BFFF2004007FFFF3004004
BFFF2004007FFFF3004004
BFFF2004007FFFF3004004
BFFF2004004BFFF3004004
BFFF2001004BFFF3001004
BFFF2000004BFFF3000004
BFFF9555555BFFF9555554
BFFFFFFFF80BFFFFFFFF70
BFFFFFFE500BFFFFFFE400
7FFFFFC30007FFFFFD3000
ENDCHAR
STARTCHAR i
ENCODING 105
SWIDTH 705 0
DWIDTH 20 0
BBX 19 24 0 -3
BITMAP
00005444444444444450
0008B000000000000040
00AFB000000000000040
0BFFB003444644441040
2FFFB000000400000040
3FFFC000000400000040
3FFFFDCC6004001CCB20
3FFFFFFF7004001FC100
2FFFFFFF7004001B1000
0688BFFF700400130000
00006FFF700400130000
00006FFF700400130000
00006FFF700400130000
00006FFF700400130000
00006FFF700400130000
00006AAA500400154440
0005A000000400000040
008FB003444644441040
0AFFB000000000000040
2FFFB000000000000040
3FFFE655555555555560
3FFFFFFFFFFFFFFFFA10
3FFFFFFFFFFFFFFF7000
1DFFFFFFFFFFFFD40000
ENDCHAR
STARTCHAR j
ENCODING 106
SWIDTH 788 0
DWIDTH 22 0
BBX 21 24 0 -3
BITMAP
0000000000000264444450
0000000000003D40000040
000000000005EF40010040
00000000005FFF40040040
00000000009FFF40040040
00000000009FFF40040040
00000000009FFF40040040
00000000009FFF40040040
00000000009FFF40040040
0000444444BFFF40040040
00096000009FFF40040040
01BF6000008FFF40040040
2DFF6004008FFF40040040
8FFF6004008FFF40040040
8FFF6004004CEB10040040
8FFF600500000000140040
8FFF800161000002600040
8FFFC00003444453000050
7FFFF60000000000000410
4FFFFF9100000000017200
0DFFFFFFB9765679BB1000
04FFFFFFFFFFFFFF900000
004DFFFFFFFFFFE6000000
000059CEFFEDA610000000
ENDCHAR
STARTCHAR k
ENCODING 107
SWIDTH 846 0
DWIDTH 24 0
BBX 22 24 1 -3
BITMAP
0002644444400045444452
004E200000400860000041
06FF200000409E00000050
6FFF2004004BF800500220
BFFF2004007FF200500400
BFFF2004007FA004101400
BFFF2004007F3005004000
BFFF2004006A0032007100
BFFF200400000050000330
BFFF200400000130000032
BFFF200644444644410004
BFFF200400000000051004
BFFF200400000000004004
BFFF2004006CCCA0004004
BFFF2004007FFFF1004004
BFFF2004007FFFF1004004
BFFF2004006FFFF1004004
BFFF2004004CFFF1004004
BFFF2001004CFFF1001004
BFFF2000004CFFF1000004
BFFF9555555CFFF8555554
BFFFFFFFF70CFFFFFFFF50
BFFFFFFE400CFFFFFFE300
7FFFFFC20008FFFFFC2000
ENDCHAR
STARTCHAR l
ENCODING 108
SWIDTH 795 0
DWIDTH 22 0
BBX 21 24 1 -3
BITMAP
0002644444400000000000
004E200000400000000000
06FF200100400000000000
6FFF200400400000000000
BFFF200400400000000000
BFFF200400400000000000
BFFF200400400000000000
BFFF200400400000000000
BFFF200400400000000000
BFFF200400400044444430
BFFF200400400960000040
BFFF20040041CF50000040
BFFF2004006DFF50040040
BFFF2004007FFF50040040
BFFF2004007EEE50040040
BFFF200400000000040040
BFFF200400000000040040
BFFF200544444444440040
BFFF200000000000000040
BFFF200000000000000040
BFFF955555555555555540
BFFFFFFFFFFFFFFFFFF500
BFFFFFFFFFFFFFFFFE3000
7FFFFFFFFFFFFFFFC20000
ENDCHAR
STARTCHAR m
ENCODING 109
SWIDTH 949 0
DWIDTH 27 0
BBX 25 24 1 -3
BITMAP
00026444445000000644444520
004E200000040001A100000040
06FF20000003001C8000000040
6FFF2004510031CE1015400040
BFFF200405002BF70050400040
BFFF200401500AD00410400040
BFFF2004002301203300400040
BFFF2004000410014000400040
BFFF2004000050050000400040
BFFF2004002005510200400040
BFFF2004009100000900400040
BFFF200400A700006B00400040
BFFF200400AE1001DB00400040
BFFF200400AFD99DFB00400040
BFFF200400AFFFFFFB00400040
BFFF200400AFF8FFFB00400040
BFFF2004009C42FFFB00400040
BFFF2004004002FFFB00400040
BFFF2000004002FFFB00000040
BFFF2000004002FFFB00000040
BFFF9555553002FFFE65555620
BFFFFFFFE40002FFFFFFFFC200
BFFFFFFD200002FFFFFFFB1000
7FFFFFB1000001DFFFFF800000
ENDCHAR
STARTCHAR n
ENCODING 110
SWIDTH 853 0
DWIDTH 24 0
BBX 22 24 1 -3
BITMAP
0002644444000026444444
004E2000014003E2000004
06FF200000234EF2000004
6FFF20072003EFF2004004
BFFF200441006FF2004004
BFFF2004051008F2004004
BFFF2004005000A2004004
BFFF200400050011004004
BFFF200400015000004004
BFFF200400002400004004
BFFF200400200230004004
BFFF200400940033004004
BFFF2004009E2004204004
BFFF2004009FC100414004
BFFF2004009FFA00055004
BFFF2004009FFF80005004
BFFF2004009FFFF2004004
BFFF2004009FFFF2004004
BFFF2001009FFFF2001004
BFFF2000004CFFF2000004
BFFF9555554BFFF9555553
BFFFFFFFE50BFFFFFFFE50
BFFFFFFD300BFFFFFFD300
7FFFFFB10007FFFFFB1000
ENDCHAR
STARTCHAR o
ENCODING 111
SWIDTH 837 0
DWIDTH 23 0
BBX 23 24 0 -3
BITMAP
000000014554444444510000
000000440000000000045000
000017100044444440001500
0002C4002500000004200320
003EF0005000000000500040
02EFD0013006EFE700220040
0AFFD002200CFFFD00130040
0EFFD002200CFFFE00130040
0FFFD002200AFFFE00130040
1FFFD0022004FFFE00130040
1FFFD0022004FFFE00130040
1FFFD0022004FFFE00130040
1FFFD0022004FFFE00130040
1FFFD0022004FFFE00130040
1FFFD0013005FFFA00220040
1FFFD0005000232000500040
1FFFF0002510000015200040
0FFFF5000044444440000320
0EFFFD100000000000001600
0BFFFFD50000000000057000
05FFFFFFEB8665668AE60000
00AFFFFFFFFFFFFFFE400000
0008FFFFFFFFFFFFB2000000
000016ADEFFEDB8300000000
ENDCHAR
STARTCHAR p
ENCODING 112
SWIDTH 782 0
DWIDTH 22 0
BBX 21 24 1 -3
BITMAP
0002644444444444440000
004E200000000000005200
06FF200000000000000600
6FFF200544444444000140
BFFF200400000001600040
BFFF200400244200140040
BFFF2004008FFF20040040
BFFF2004008FFF40040040
BFFF2004008FFF40040040
BFFF2004008FFD10040040
BFFF200400000000040040
BFFF200400000000500040
BFFF200644444444000510
BFFF200400000000003300
BFFF200400000012483000
BFFF2004007FFFFFD20000
BFFF2004007FFFFB100000
BFFF2004007FFD70000000
BFFF200100542000000000
BFFF200000400000000000
BFFF955555400000000000
BFFFFFFFF6000000000000
BFFFFFFE40000000000000
7FFFFFC200000000000000
ENDCHAR
STARTCHAR q
ENCODING 113
SWIDTH 837 0
DWIDTH 23 0
BBX 23 27 0 -6
BITMAP
000000014554544444410000
000000440000000000045000
000007200000000000001500
0001B5000044444440000410
002DF1002500000004200040
01DFD0005000354000500040
08FFD0013009FFFB00220040
0DFFD002200CFFFE00130040
0FFFD002200CFFFE00130040
1FFFD0022008FFFE00130040
1FFFD0022004FFFE00130040
1FFFD0022004FFFE00130040
1FFFD0022004FFFE00130040
1FFFD0022004FFFE00130040
1FFFD0022004FFFD00130040
1FFFD0013004EFE700220040
1FFFE0005000000000500050
1FFFF3002500000005300130
0EFFFA000144464441000600
0DFFFF800000040000006200
09FFFFFD73000400037A2000
03FFFFFFFF5000005FB10000
006FFFFFFF60000059000000
0004CFFFFFB6555560000000
000003BFFFFFFFF800000000
0000008FFFFFFF6000000000
0000004EFFFFD40000000000
ENDCHAR
STARTCHAR r
ENCODING 114
SWIDTH 843 0
DWIDTH 24 0
BBX 23 24 1 -3
BITMAP
000264444444444445200000
004E20000000000000420000
06FF20000000000000050000
6FFF20054444444200031000
BFFF20040000000420014000
BFFF20040059940040004000
BFFF2004008FFB0040004000
BFFF2004008FFC0040022000
BFFF2004008FF80040050000
BFFF20040000000050271000
BFFF20040000000230005100
BFFF20064444445642000500
BFFF20040000000003200400
BFFF20040000000000400310
BFFF2004008FFFF400400310
BFFF2004008FFFF700400310
BFFF2004008FFFF700400310
BFFF2004006CFFF700400310
BFFF20000046FFF700000310
BFFF20000046FFF700000310
BFFF95555546FFFC55555600
BFFFFFFFF606FFFFFFFFA100
BFFFFFFE4006FFFFFFF80000
7FFFFFC20003EFFFFE500000
ENDCHAR
STARTCHAR s
ENCODING 115
SWIDTH 750 0
DWIDTH 21 0
BBX 21 24 0 -3
BITMAP
0000001544444444444400
0000034000000000000400
0000660000000000000400
0008E00014444444300400
00AFB00050000000000400
07FFA00410000000001400
0EFFA004000CFFFFFF8000
3FFFA0040008CEFFF60000
4FFFA00310000013642000
4FFFB00054100000002300
4FFFE10000344441000320
3FFFF80000000002400040
2FFFFFB400000000220040
0DFFFFFFEC975200140040
05FFFFFFFFFFFD00040040
005DE99999999600220040
0008A00000000001600040
01BFA00344444444000040
1CFFA00000000000000500
4FFFA00000000000005200
4FFFD555555555568A2000
4FFFFFFFFFFFFFFFA10000
4FFFFFFFFFFFFFF8000000
1DFFFFFFFFFED930000000
ENDCHAR
STARTCHAR t
ENCODING 116
SWIDTH 756 0
DWIDTH 21 0
BBX 22 24 0 -3
BITMAP
0003544444444444444460
005F000000000000000031
07FF000000000000000031
7FFF002444446444441031
DFFF000000004000000031
DFFF300000004000000040
DFFFFFFFF2004005FFFD20
DFFFFFFFF2004005FFC100
CFFFFFFFF2004005FA0000
25555DFFF2004004400000
00000CFFF2004004000000
00000CFFF2004004000000
00000CFFF2004004000000
00000CFFF2004004000000
00000CFFF2004004000000
00000CFFF2004004000000
00000CFFF2004004000000
00000CFFF2004004000000
00000CFFF2001004000000
00000CFFF2000004000000
00000CFFF9555556000000
00000CFFFFFFFF90000000
00000BFFFFFFF600000000
000007FFFFFD4000000000
ENDCHAR
STARTCHAR u
ENCODING 117
SWIDTH 846 0
DWIDTH 24 0
BBX 22 24 1 -3
BITMAP
0004544444400045444444
006F0000004006F1000004
08FF000100409FF1001004
9FFF00040049FFF1004004
DFFF0004004DFFF1004004
DFFF0004004DFFF1004004
DFFF0004004DFFF1004004
DFFF0004004DFFF1004004
DFFF0004004DFFF1004004
DFFF0004004DFFF1004004
DFFF0004004DFFF1004004
DFFF0004004DFFF1004004
DFFF0004004DFFF1004004
DFFF0004004DFFF0004004
DFFF0004002ACC70004004
DFFF100500000000041004
DFFF300151000000430004
DFFF700003444444100032
BFFFE30000000000000160
8FFFFE7100000000005700
2FFFFFFFB9765668AE6000
07FFFFFFFFFFFFFFE40000
006EFFFFFFFFFFFB200000
00016ACEFFEDB830000000
ENDCHAR
STARTCHAR v
ENCODING 118
SWIDTH 830 0
DWIDTH 23 0
BBX 23 24 0 -3
BITMAP
000064444453000644444530
0009B0000004009B00000040
01BFB00010041CFB00100040
0CFFB0023005DFFB00410040
2FFFB0023006FFFB00410040
2FFFB0023007FFFB00410040
2FFFB0023007FFFB00410040
2FFFB0023007FFFB00410040
2FFFB0023007FFFB00410040
2FFFB0014006FFF900400040
2FFFD0005005FFF500500040
2FFFF2005000EFE100500410
2FFFF8003200AFA003200400
1FFFFD0005004F5005001300
0CFFFF400410040014004000
06FFFFA00050000050004000
01EFFFF20050000140031000
009FFFF70004444400040000
003FFFFD0000000000130000
000CFFFF4000000000400000
0007FFFFD655555556300000
0001FFFFFFFFFFFFE4000000
0000AFFFFFFFFFFC20000000
00002DFFFFFFFFA100000000
ENDCHAR
STARTCHAR w
ENCODING 119
SWIDTH 931 0
DWIDTH 26 0
BBX 25 24 1 -3
BITMAP
00055444443000000644444600
007E0000004000009900000310
09FE00000040001BF900000310
AFFE0013004000CFF900400310
FFFE0013004004FFF900400310
FFFE0013004004FFF900400310
FFFE0013004004FFF900400310
FFFE0013004056AEF900400310
FFFE001300590001E900400310
FFFE001300B600008900400310
FFFE001300A100002900400310
FFFE0013004024510400400310
FFFE0013000050050000400310
FFFE0004000410023000400410
FFFF1004001403105000400400
FFFF500400500D901400400400
EFFFA00402302FD00503100400
DFFFF10054007FF20054004000
9FFFF6000000BFF60000004000
4FFFFB000001FFFA0000013000
0DFFFF85555AFFFF8555550000
08FFFFFFFFA9FFFFFFFF800000
02FFFFFFF804FFFFFFF6000000
008FFFFE5000AFFFFD40000000
ENDCHAR
STARTCHAR x
ENCODING 120
SWIDTH 837 0
DWIDTH 23 0
BBX 22 24 1 -3
BITMAP
0004544444300045444443
006E0000004005D0000004
08FE000000407FE0000004
9FFE00230048FFD0023004
FFFE0013004EFFA0032004
FFFF1005001EFE20050014
FFFF70023005F600230050
EFFFF20041000000500240
CFFFFC0005000004000500
7FFFFF8001300022005100
0CFFFFF100544450005000
02EFFF7002300022004100
006FFA0014000004100500
000DD10050004100500140
008F50041009FA00140031
04FF0005005FFF60041004
2EFE001300CFFFD0022004
9FFE002300CFFFE0013004
DFFE000100BFFFE0001004
FFFE0000005FFFE0000004
FFFF7555563FFFF7555563
FFFFFFFFE30FFFFFFFFE40
FFFFFFFC200FFFFFFFC200
BFFFFF91000BFFFFFA1000
ENDCHAR
STARTCHAR y
ENCODING 121
SWIDTH 805 0
DWIDTH 23 0
BBX 22 24 0 -3
BITMAP
0000644444600006444445
001C7000003101B8000004
02DF700000312CF8000004
2EFF70040033DFF8004004
6FFF70040037FFF8004004
6FFF70040037FFF8004004
6FFF70040027FFF7004004
6FFF8004000AFFF3005004
6FFF90013004FF80013005
6FFFE10041008C10050005
6FFFFA0005000000410050
4FFFFF5001400002200330
0EFFFFE200320014001400
05FFFFFC00035640005000
009FFFFF80000400041000
000CFFFFF4000400230000
0002EFFFFC000400400000
00006FFFFC000400400000
00000AFFFC000100400000
000001FFFD000000400000
000001FFFF655555400000
000001FFFFFFFFF6000000
000001FFFFFFFE40000000
000000CFFFFFC200000000
ENDCHAR
STARTCHAR z
ENCODING 122
SWIDTH 760 0
DWIDTH 21 0
BBX 21 24 0 -3
BITMAP
0000354444444444444510
0005E00000000000000130
006FF00000000000000130
07FFF00244444444400130
0DFFF00000000000400130
0DFFF30000000000500230
0DFFFFFFFFF90005000410
0DFFFFFFFFB00041000500
0CFFFFFFFD100320005000
0255555AE3002300041000
0000003E40014000330000
000001D700050001400000
00000C9000500005000000
00009C0004100050000000
0007E10032000410000000
004F900140001644444430
03EF800400000000000040
1DFF800244444444440040
5FFF800000000000000040
6FFF800000000000000040
6FFFC55555555555555550
6FFFFFFFFFFFFFFFFFF700
6FFFFFFFFFFFFFFFFE4000
3EFFFFFFFFFFFFFFC20000
ENDCHAR
STARTCHAR braceleft
ENCODING 123
SWIDTH 555 0
DWIDTH 16 0
BBX 16 29 -1 -6
BITMAP
0000000000444444
0000000044000004
0000000710000004
000001B400044104
00002CD000600004
0001DFA004100004
0009FF90040008B5
000FFF9004000F50
003FFF9004001500
004FFF9004001400
005FFF6004001400
005FF40034001300
005FD00130016100
00AFC003206E2000
09FFD00130015000
0FFFF30044001300
2FFFFE5004001400
1FFFFF9004001400
0DFFFF9004001400
03CFFF9004000400
005FFF9004100444
005FFFB000600004
005FFFF100144104
004FFFF900000004
003FFFFF91000004
000EFFFFFEA86667
0008FFFFFFFFFFA1
00009FFFFFFFF700
0000039CEFFE5000
ENDCHAR
STARTCHAR bar
ENCODING 124
SWIDTH 447 0
DWIDTH 13 0
BBX 11 29 1 -5
BITMAP
000144444410
002C10000040
03DF10000040
4EFF10140040
CFFF10140040
DFFF10140040
DFFF10140040
DFFF10140040
DFFF10140040
DFFF10140040
DFFF10140040
DFFF10140040
DFFF10140040
DFFF10140040
DFFF10140040
DFFF10140040
DFFF10140040
DFFF10140040
DFFF10140040
DFFF10140040
DFFF10140040
DFFF10140040
DFFF10140040
DFFF10010040
DFFF10000040
DFFF85555620
DFFFFFFFD300
DFFFFFFB1000
9FFFFF900000
ENDCHAR
STARTCHAR braceright
ENCODING 125
SWIDTH 555 0
DWIDTH 16 0
BBX 16 29 0 -6
BITMAP
0000344444100000
0007800000351000
009F700000006000
1BFF700441001500
5FFF700004200500
6FFF900000400400
6FFFFFD100400400
6FFFFFF300400400
5FFFFFF300400400
056EFFF300400400
000BFFF300610151
000AFFF500051004
000AFFFE84004004
000AFFFE95004004
0009FFF500041004
0002BFF300510161
0001BFF300400510
0008FFF300400400
000AFFF300400400
000AFFE100400400
000AA00000400400
004E700005100500
06FF700441000500
4FFF700000005000
6FFF700000151000
6FFFD6667AA10000
6FFFFFFFF9000000
6FFFFFFF70000000
3EFFEC8200000000
ENDCHAR
STARTCHAR asciitilde
ENCODING 126
SWIDTH 834 0
DWIDTH 23 0
BBX 22 11 1 3
BITMAP
0000014444442000002440
0000640000002444453041
001B400000000000000031
02DF301555443200000031
3EFF300000000244451031
AFFF300000000000000050
BFFF96ADFFDB9753247920
BFFFFFFFFFFFFFFFFFA100
BFFFFFFFFFFFFFFFF80000
7EC754579BDFFFEA400000
0000000000002100000000
ENDCHAR
STARTCHAR uni00A0
ENCODING 160
SWIDTH 325 0
DWIDTH 9 0
BBX 1 1 0 0
BITMAP
00
ENDCHAR
STARTCHAR exclamdown
ENCODING 161
SWIDTH 523 0
DWIDTH 15 0
BBX 13 24 1 -3
BITMAP
00006444444600
001B9000000410
02CF9000000410
1EFF9000400410
4FFF9000100410
4FFFB000000500
4FFFFFFFFFD300
4FFFFCAAAA6200
3FFFF000000400
038FE000000400
05FFD000300400
0DFFD000400400
0EFFC000400400
0FFFC000400400
0FFFB000400400
1FFFB000400400
2FFFA000400400
2FFF9000400400
3FFF9000000410
3FFF8000000310
4FFFC555555600
5FFFFFFFFFA100
5FFFFFFFF80000
2EFFFFFE600000
ENDCHAR
STARTCHAR cent
ENCODING 162
SWIDTH 728 0
DWIDTH 20 0
BBX 20 27 0 -5
BITMAP
00000000004444443000
00000000095000005000
00000001BD4001004443
00000015100004000004
00000100000004000004
00002600035446444004
0004E200520000000004
005FE000400000000004
03FFD001300155555553
0AFFD002200AFFFFFF50
0EFFD002200CFFFFE400
0FFFD002200CFFFD2000
1FFFD002200400000000
1FFFD002200400000000
1FFFD002200400000000
1FFFD001300344444443
1FFFE000400000000004
0FFFF300420000000004
0FFFF900034446444004
0CFFFF50000004000004
08FFFFF9400004000004
02EFFFFFFF4001008DA2
005FFFFFFF5000009B10
0004DFFFFFB555567000
000003BFFFFFFFE50000
0000008FFFFFFD300000
0000005EFFFFC2000000
ENDCHAR
STARTCHAR sterling
ENCODING 163
SWIDTH 795 0
DWIDTH 22 0
BBX 23 24 -1 -3
BITMAP
000000002444444444440000
000000053000000000040000
000000930000000000040000
00001B900024444440040000
0002DF500440000000040000
000DFF300500035555540000
005FFF2004005FFFFF500000
009FFF2004007FFFE3000000
00BFD1000400005C20000000
00BFC0000400002200000000
03EFC0034744102200000000
1EFFC0000400002254444430
2FFFD1000400005C60000040
2FFFFF2004007FFF50010040
2FFFFF2004007FFF50040040
1EFFFF200400122210040040
01CFFF200400000000040040
00BFFF200544444444440040
00BFFF200000000000000040
00BFFF200000000000000040
00BFFF955555555555555540
00BFFFFFFFFFFFFFFFFFF600
00BFFFFFFFFFFFFFFFFE4000
007FFFFFFFFFFFFFFFC20000
ENDCHAR
STARTCHAR currency
ENCODING 164
SWIDTH 921 0
DWIDTH 26 0
BBX 26 25 0 -4
BITMAP
00000028600000000000397000
00000370360000000004802800
00005800026454444578000280
0006A000102100000020010033
006FD100600000000000240030
06FFFD10050254444402400200
3FFFFFD1008400000174003100
2EFFFFF7006005773005005000
03EFFFF701405FFFE005004000
003EFFF702206FFFF104004000
0006FFF702206FFFF104004000
0006FFF702206FFFF104004000
0006FFF702206FFFF104004000
0006FFF701402DFEA004004000
0006FFF6004000000004006000
0006FF90035300000155103500
0006F900330144444300500350
0007B001400000000000040033
005FC100006853334691000041
05FFFC1006FFFFFFFFFC100420
3FFFFFC16FFFFFFFFFFFC14200
2EFFFFFDEFFFFFCEFFFFFC2000
04EFFFA101121003EFFFB10000
004EF800000000003EF9000000
00024000000000000240000000
ENDCHAR
STARTCHAR yen
ENCODING 165
SWIDTH 803 0
DWIDTH 22 0
BBX 22 24 0 -3
BITMAP
0001644444600006444445
002C7000003101B8000004
03DF700100312DF8001004
3EFF70040033EFF8004004
6FFF70040037FFF8004004
7FFF70040027FFF8004004
7FFF8003100AFFF3004004
6FFFC0005003FF80041004
6FFFF50024005800230032
5FFFFE2003200000500150
1EFFFFC000510005000500
07FFFFF800044651004100
00BFFFBA10000400006420
001DFE0000000400000040
001BFD0024444744430040
00CFFD0000000400000040
00FFFE2111000400111250
00FFFFFFFE000400CFFB10
00FFFFFFFE000000CF8000
00EFFFFFFE000000B50000
002555FFFF755555300000
000000EFFFFFFFE3000000
000000EFFFFFFC20000000
000000AFFFFFA100000000
ENDCHAR
STARTCHAR brokenbar
ENCODING 166
SWIDTH 447 0
DWIDTH 13 0
BBX 11 29 1 -5
BITMAP
000144444410
001C10000040
03DF10000040
4EFF10140040
CFFF10140040
DFFF10140040
DFFF10140040
DFFF10140040
DFFF10140040
DFFF10020040
DFFF10000040
DFFF20000040
DFFFECCCCA10
DFFFFFFFA000
CFFFCAA94510
49CF10000040
04EF10000040
6FFF10140040
DFFF10140040
DFFF10140040
DFFF10140040
DFFF10140040
DFFF10140040
DFFF10020040
DFFF10000040
DFFF85555630
DFFFFFFFE300
DFFFFFFC2000
9FFFFF900000
ENDCHAR
STARTCHAR section
ENCODING 167
SWIDTH 750 0
DWIDTH 21 0
BBX 21 24 0 -3
BITMAP
0000000444444444444400
0000016100000000000400
0000390003444444300400
0004E20041000000000400
006FD00310002222223300
04FFB004001EFFFFFF5000
0BFFA00400155567A80000
1FFFA00544444444016100
3FFFA00400000001600600
3FFFB00400000000150320
3FFFC004103FFC10050040
3FFFF201501BEE30040040
3FFFF90053000000040040
1FFFFF7003544444460040
0DFFFFFD74322200040040
06FFFFFFFFFFFF10040040
00AFF75555555200040040
0009E00000000000410320
007FE00244444444100600
09FFE00000000000016100
0EFFF75555555567A80000
0EFFFFFFFFFFFFFF600000
0EFFFFFFFFFFFFD4000000
0AFFFFFFFFEDB610000000
ENDCHAR
STARTCHAR dieresis
ENCODING 168
SWIDTH 600 0
DWIDTH 17 0
BBX 18 10 -1 17
BITMAP
000035444521544444
0005A000005B000004
007FA000009E000004
09FFA004009E004004
3FFFA001009E001004
3FFFC10001BF200005
3FFFFFFFFFFFFFFFD2
3FFFFFFFFFFFFFFB10
2FFFFFF6EFFFFF9000
045555302555540000
ENDCHAR
STARTCHAR copyright
ENCODING 169
SWIDTH 967 0
DWIDTH 27 0
BBX 26 29 1 -5
BITMAP
00000000034444444442000000
00000024445444444444551000
00000535520000000003545300
0000826116ACEFFEEC94025420
001B7514EFFFFFFFFFFFC13250
02DF250EFFFC9888888EFA0440
0DFF04397A4000000009FE0440
6FFE0440650044444208FF0431
BFFE0448F10500000008FF0431
EFFE044FE0040155555CFF0431
FFFE044FD00407FFFFFFFF0431
FFFE044FD00408FFE5DFFF0431
FFFE044FD00408FD30DFFF0431
FFFE044FD004040000DFFF0431
FFFE044FD004040000DFFF0431
FFFE044FD004040000DFFF0431
FFFE044FE0040254449EFF0431
FFFE044FF20500000009FF0431
FFFE044FFA0144444308FF0431
FFFE044FFFA41000000AFE0441
FFFF141EFFFFFFEEEEEFFA0440
EFFF5414EFFFFFFFFBEFC24150
DFFFC06116ACEFFEC485034230
AFFFFA15520000000004532500
5FFFFFD6134444444441285000
0CFFFFFFFC97655568ADE40000
02DFFFFFFFFFFFFFFFFD200000
0008EFFFFFFFFFFFFE81000000
0000159CEFFFEDC95100000000
ENDCHAR
STARTCHAR ordfeminine
ENCODING 170
SWIDTH 620 0
DWIDTH 17 0
BBX 18 24 0 -3
BITMAP
000000544444453000
000009600000004000
0001BF103444201300
001DFA004000400400
007FF5040070220400
00DFE00404F2040040
03FFA02209F7031040
08FF60400796004040
0EFF40400000004040
4FFF40544444445041
8FFF40400000004041
9FFF40402999104041
AFFF40403FFF104041
AFFF40003FFF100041
AFFF82227FFF522260
AFFFFFFDEFFFFFFD20
AFFFDAA69AAAAAA540
8FFF40000000000040
03EF40344444443041
3EFF40000000000040
9FFFA5555555555560
AFFFFFFFFFFFFFFA00
AFFFFFFFFFFFFF8000
6FFFFFFFFFFFE50000
ENDCHAR
STARTCHAR guillemotleft
ENCODING 171
SWIDTH 912 0
DWIDTH 26 0
BBX 25 18 0 -1
BITMAP
00000000002455300000145530
00000003553000400155410040
00000352000000415400000040
00005500004300680000340040
0007D002541000C30055200040
00AFA005000005F00410000430
09FF90040049DFF0040038C400
1FFF900400AFFFF004009E3000
3FFFA00400015BF00400014510
4FFFB004300000D10250000040
4FFFF100244300C60014440040
4FFFFC20000000CE5000000040
2FFFFFFA410000CFFC62000040
0DFFFFFFFFB720DFFFFFC84140
04EFFFFFFFFFFFFFFFFFFFFA00
0028EFFFFFFF86CFFFFFFF7000
0000038CFFF500026AEFF50000
00000000153000000004200000
ENDCHAR
STARTCHAR logicalnot
ENCODING 172
SWIDTH 834 0
DWIDTH 23 0
BBX 22 16 1 -2
BITMAP
0000544444444444444450
001B300000000000000031
02DF300000000000000031
3EFF301444444444443031
AFFF300000000000004031
BFFF955555555552004031
BFFFFFFFFFFFFFF5004031
BFFFFFFFFFFFFFF5004031
7FFFFFFFFFFFFFF5004031
000000000008FFF5004031
000000000008FFF5000031
000000000008FFF5000031
000000000008FFFA555560
000000000008FFFFFFFA10
000000000008FFFFFF8000
000000000005EFFFE60000
ENDCHAR
STARTCHAR uni00AD
ENCODING 173
SWIDTH 520 0
DWIDTH 15 0
BBX 15 10 0 4
BITMAP
0000444444444400
0008600000000320
01AF500000000220
1CFF501444410220
7FFF500000000220
8FFF500000000220
8FFFB66666666600
8FFFFFFFFFFFA100
8FFFFFFFFFF80000
5EFFFFFFFE600000
ENDCHAR
STARTCHAR registered
ENCODING 174
SWIDTH 660 0
DWIDTH 18 0
BBX 18 18 0 3
BITMAP
000000499999999500
00000785BEFFEC6670
0001B64EBBBBCFF554
003DD489344414F944
04FFC489406340EA44
0CFFC48940D740FA44
1FFFC489400053DA44
2FFFC4894445725A44
2FFFC4894079143A44
2FFFC48940DF343A44
2FFFC48A00DF403944
2FFFE45FFFFFFFF655
2FFFF567BDEEDB7643
1FFFFF744444444660
0DFFFFFFDBAABDE500
06FFFFFFFFFFFD3000
007EFFFFFFFFA10000
000169BBBA73000000
ENDCHAR
STARTCHAR macron
ENCODING 175
SWIDTH 600 0
DWIDTH 17 0
BBX 17 9 0 17
BITMAP
000044444444444510
000960000000000040
01CF50144444420040
2DFF50000000000040
8FFF70000000000240
8FFFFFFFFFFFFFF800
8FFFFFFFFFFFFE5000
7FFFFFFFFFFFD30000
055555555555100000
ENDCHAR
STARTCHAR degree
ENCODING 176
SWIDTH 583 0
DWIDTH 16 0
BBX 16 16 0 5
BITMAP
0000025444445520
0000440000000043
0007A00344443005
00AF803200002304
0BFF70404DE30404
3FFF70406FF60404
6FFF70406FF60404
6FFF70404EE40404
6FFF704000000404
6FFF903200002304
6FFFD00344443002
5FFFFB3000000320
2FFFFFFECCCCD300
09FFFFFFFFFC2000
006DFFFFFE810000
0000234320000000
ENDCHAR
STARTCHAR plusminus
ENCODING 177
SWIDTH 834 0
DWIDTH 23 0
BBX 22 24 1 -3
BITMAP
0000000005444443000000
000000007B000004000000
00000009FB000004000000
000000AFFB004004000000
000002FFFB004004000000
000002FFFB004004000000
000045AAA7004005444440
001B300000004000000031
02DF301444447444441031
3EFF300000004000000031
AFFF400000004000000041
BFFFDBBBB8004008BBBBB0
BFFFFFFFFB00400CFFFB10
BFFFFFFFFB00400CFF9000
7FFFFFFFFB00300CE60000
000045AAA7000005444440
001B300000000000000031
02DF300000000000000031
3EFF301444444444441031
AFFF300000000000000031
BFFF955555555555555570
BFFFFFFFFFFFFFFFFFFB10
BFFFFFFFFFFFFFFFFF9000
7FFFFFFFFFFFFFFFE60000
ENDCHAR
STARTCHAR twosuperior
ENCODING 178
SWIDTH 585 0
DWIDTH 16 0
BBX 16 19 0 2
BITMAP
0000464444444520
0007F10000000041
009FF10444443004
09FFF20000004104
0CFFFDCCCC802204
0CFFFFFFFB402204
0BFFFFB510024005
0255B60023320051
0009B02410005810
01BF704005AE9000
0BFF50401AA84443
3FFF504000000005
7FFF503444444204
8FFF500000000004
8FFF700000000004
8FFFFFFFFFFFFF90
8FFFFFFFFFFFF700
8FFFFFFFFFFF6000
1555555555530000
ENDCHAR
STARTCHAR threesuperior
ENCODING 179
SWIDTH 584 0
DWIDTH 16 0
BBX 16 19 0 2
BITMAP
0001744444445300
002C900000000320
03DF902444530040
2EFFB00000041040
4FFFFFFFFB013040
4FFFFFC885013140
4FFFFF4000040540
178AFF4044553014
004EFF4000001304
009FFFDBBBB10404
00AFFFFFFFF10404
009FB00000001404
009F902444444005
0AFF900000000014
4FFFB00000002550
4FFFFFFFFFFFF600
4FFFFFFFFFFE4000
4FFFFFFFFFB20000
0455555542000000
ENDCHAR
STARTCHAR acute
ENCODING 180
SWIDTH 600 0
DWIDTH 17 0
BBX 17 11 0 17
BITMAP
000000000000002200
000000244444443330
000164210000000040
002C50000134420040
03EF50144320000040
4FFF50000000013520
8FFF823579BDEFD200
8FFFFFFFFFFFFB1000
8FFFFFFFFFFF900000
7FFFECA86431000000
032000000000000000
ENDCHAR
STARTCHAR mu
ENCODING 181
SWIDTH 813 0
DWIDTH 23 0
BBX 21 22 1 -5
BITMAP
0001444444200054444430
003C000000402B60000040
05EE00020046EF50020040
6FFE000400AFFF50040040
EFFE000400BFFF50040040
FFFE000400BFFF50040040
FFFE000400BFFF50040040
FFFE000400BFFF50040040
FFFE000400BFFF50040040
FFFE000400BFFF50040040
FFFE0005006FFD20040040
FFFE000800000000130040
FFFE000551000003500050
FFFE000404554452000060
FFFE000400000000000710
FFFE000400000000049300
FFFE00000089899BEC2000
FFFE000000BFFFFFA10000
FFFF544444EFFFE7000000
FFFFFFFFFFEDB720000000
EFFFFFFD30000000000000
AFFFFFB100000000000000
ENDCHAR
STARTCHAR paragraph
ENCODING 182
SWIDTH 782 0
DWIDTH 22 0
BBX 21 24 0 -3
BITMAP
0000002444444444444440
0000052000000000000040
0000920000000000000040
001B900034444444450040
02DF500510000000040040
0CFF302300000000040040
5FFF304000000000040040
8FFF304000000000040040
AFFF304000000000040040
AFFF304000000000040040
AFFF502200000000040040
AFFF700510000000040040
AFFFD00044464444470040
9FFFF80000040000040040
6FFFFFC610040000040040
1FFFFFFF700404E2040040
07FFFFFF700404F2040040
005CFFFF700404F2040040
00007FFF700104F2010040
00006FFF700004F2000040
00006FFFC5555AF9555530
00006FFFFFFFFFFFFFE500
00006FFFFFFEFFFFFD3000
00003EFFFE47FFFFB10000
ENDCHAR
STARTCHAR periodcentered
ENCODING 183
SWIDTH 464 0
DWIDTH 13 0
BBX 13 12 0 3
BITMAP
00003444444510
00068000000040
009F7000000040
0AFF7000300040
5FFF7000400040
6FFF7000400040
6FFF7000000040
6FFF7000000040
6FFFC555555520
6FFFFFFFFFD200
6FFFFFFFFB1000
3EFFFFFF900000
ENDCHAR
STARTCHAR cedilla
ENCODING 184
SWIDTH 600 0
DWIDTH 17 0
BBX 13 12 2 -7
BITMAP
00000044420000
00000780024400
0000AF30210410
000CFC00400500
005FF700400500
00AFF103103200
01FFB000005000
06FF5000005000
0CFF9555571000
2FFFFFFFB10000
8FFFFFF9000000
7FFFFE60000000
ENDCHAR
STARTCHAR onesuperior
ENCODING 185
SWIDTH 557 0
DWIDTH 16 0
BBX 16 19 0 2
BITMAP
0000654444454000
0009E00000004000
01CFE01445004000
0CFFF32104004000
0EFFFFF804004000
0EFFFFF804004000
0DFFFFF804004000
0237FFF804004000
0005FFF804004000
0005FFF804004000
0005EAA504005450
0006900004000023
005F800004000013
07FF802335333013
4FFFA00000000031
5FFFFFFFFFFFFE40
5FFFFFFFFFFFD300
4FFFFFFFFFFC2000
0555555555510000
ENDCHAR
STARTCHAR ordmasculine
ENCODING 186
SWIDTH 625 0
DWIDTH 18 0
BBX 18 24 0 -3
BITMAP
000000554444445100
000026000000000520
0004A0014444410050
006F60150000042041
08FF50400BEC104032
3FFF50400EFF204032
7FFF50400EFF204032
9FFF50400EFF204032
9FFF50400EFF204032
9FFF50400EFF204032
9FFF50400BFD104032
9FFF50400000004031
9FFF80150000042040
9FFFE2014444410140
8FFFFE830000026500
5FFFFFFFFEDDFE4000
1CFFDAAAAAAAA74440
01AF50000000000031
01CF50344444443032
2DFF50000000000031
8FFFB5555555555560
9FFFFFFFFFFFFFFA10
9FFFFFFFFFFFFF8000
5FFFFFFFFFFFE60000
ENDCHAR
STARTCHAR guillemotright
ENCODING 187
SWIDTH 912 0
DWIDTH 26 0
BBX 24 19 1 -1
BITMAP
000010000000002100000000
000888851000087897200000
01AE00048961AF0002697200
2CFE0000003AFF0000001770
CFFE004420008F0024400035
FFFE000025201F0000154005
FFFF600000400D7000004004
FFFFFE9400400CFEA5004004
EFFFFFFB00400CFFFC104004
7FFFC51000400CC610004004
019F100025200E1000154003
06FE004430004F0024400002
7FFE00000004DF0000000130
EFFE000015BFFF0000048500
FFFE137CFBEFFF126AEE4000
FFFFFFFF90EFFFFFFFC20000
FFFFFE9300EFFFFFB5000000
DFC7300000CFD95100000000
110000000022000000000000
ENDCHAR
STARTCHAR onequarter
ENCODING 188
SWIDTH 1303 0
DWIDTH 36 0
BBX 36 24 0 -3
BITMAP
000065444445400000744446000000000000
0008E000000040001C700004000000000000
00AFE01445004003DF400004000000000000
0AFFF3210400402EFF104004000000000000
0EFFFFF80400407FFD004004000000000000
0EFFFFF8040040AFFB004015544430154444
0EFFFFF8040040DFF800404C000041C00004
07ACFFF8040041FFF502206D00005BF00004
0005FFF8040043FFF204009D00408FF00404
0005FFF8040046FFF00400CD00408FF00404
0005EAA5040057CFC00400ED00408FF00404
000690000400002F900402FD00408FF00404
005F80000400001F601305FD00408FF00404
07FF80233533301F404008FE004026600404
4FFFA0000000003F10400BFF005000000404
5FFFFFFFFFFFFFFD00400DFF501444444504
5FFFFFFFFFFFFFFB00401FFFE51000000404
4FFFFFFFFFFBDFF800404FFFFFFFFFF00404
055555555551FFF500006FFFFFFFFFF00404
000000000003FFF200007EFFFFFFFFF00004
000000000006FFF955553145555EFFF75555
000000000009FFFFFFE40000000EFFFFFF70
00000000000BFFFFFD200000000EFFFFF500
000000000008FFFFB1000000000BFFFE4000
ENDCHAR
STARTCHAR onehalf
ENCODING 189
SWIDTH 1260 0
DWIDTH 35 0
BBX 35 24 0 -3
BITMAP
000055444445400000744446000000000000
0007E000000040001C700004000000000000
008FE01445004003DF400004000000000000
09FFF3210400402EFF104004000000000000
0EFFFFF80400407FFD004004000000000000
0EFFFFF8040040AFFB004014544444443000
0EFFFFF8040040DFF800404B000000002500
0CFFFFF8040041FFF502206F000000000230
0005FFF8040043FFF204009F014444430040
0005FFF8040046FFF00400CF533331050040
0005EAA5040057CFC00400EFFFFFF8031040
000690000400002F900402FFFFD940031050
005F80000400001F601305FFD40000240230
07FF80233533301F4041069B100333101600
4FFFA0000000003F10400597034100277000
5FFFFFFFFFFFFFFD00400DF404007CF70000
5FFFFFFFFFFFFFFB00401FF40402AA844530
4FFFFFFFFFFCDFF800404FF4040000000040
055555555551FFF500006FF4044444442040
000000000003FFF200009FF4000000000040
000000000006FFF95556EFF9555555555530
000000000008FFFFFFEDFFFFFFFFFFFFE500
00000000000BFFFFFD3AFFFFFFFFFFFD3000
000000000008FFFFB107FFFFFFFFFFC20000
ENDCHAR
STARTCHAR threequarters
ENCODING 190
SWIDTH 1313 0
DWIDTH 37 0
BBX 37 24 0 -3
BITMAP
00017444444453000054444520000000000000
002C90000000032008B0000130000000000000
03DF902444530040AF80000310000000000000
2EFFB0000004104BFF50220400000000000000
4FFFFFFFFB01307FFF30400400000000000000
4FFFFFA55301318FFF00400454445005444500
4FFFFF40000404AFFC00400D30004084000410
1789FF404455300CF900402F300048F4000310
002DFF4000002307F701305F30404FF4040310
009FFFDBBBB10406F403108F30404FF4040310
00AFFFFFFFF10406F10400AF30404FF4040310
00AFB00000000406D00400DF30404FF4040310
008F900000001308B00401FF30404FF4040310
01BF90244444401E800404FF30401782040310
1DFFB000000025DF502206FF40400000040310
4FFFFFFFFFFFFFFF204009FF90044444460310
4FFFFFFFFFFEAFFF00400CFFF8200000040310
4FFFFFFFFFC38FFC00400EFFFFFFFFF4040310
055555554200BFF900002FFFFFFFFFF4040310
000000000000EFF700004CFFFFFFFFF4000310
000000000001FFFB55555035555BFFF9555600
000000000004FFFFFFF70000000AFFFFFFB100
000000000007FFFFFE500000000AFFFFF90000
000000000005EFFFD30000000007FFFF700000
ENDCHAR
STARTCHAR questiondown
ENCODING 191
SWIDTH 756 0
DWIDTH 21 0
BBX 21 24 0 -3
BITMAP
0000000000454444452000
0000000005E00000004000
000000006FE00000004000
00000007FFE00040004000
0000000EFFE00010004000
0000000EFFF00000004000
0000000EFFFA8888871000
0000000EFFFFFDB9850000
0000002D97531000040000
0000065000000000040000
0001A20000134442022000
002CA00144310000004000
03EF800400000000004000
0DFF700400002468B70000
3FFF7004001EFFFF600000
6FFF70040009AAA8444420
6FFF800140000000000040
6FFFA00024444444440040
6FFFF30000000000000040
5FFFFD3000000000000040
3FFFFFFB76555555555540
0BFFFFFFFFFFFFFFFFF600
02DFFFFFFFFFFFFFFE3000
0006BEFFFFFFFFFFB10000
ENDCHAR
STARTCHAR Agrave
ENCODING 192
SWIDTH 830 0
DWIDTH 23 0
BBX 23 31 0 -3
BITMAP
000000038642100000000000
0000005B2357999986400000
000007F80000000013560000
0000AFF80044444420040000
0004FFF90000000020040000
0005FFFD5210000000040000
0005FFFFFFFECA8653120000
0005FFFFE888888889700000
0001BEFF4000000000400000
0000009D0000000000040000
00000AF70015444500040000
00008FF10050000150032000
0000EFB00220000050004000
0005FF5005007F3014004000
000BFE001400DF8005001300
002FF9005003FFD002300400
007FF4005007FFF200500400
00DFE0014008BBB500500130
04FFC0031000000000320040
09FFB0040000000000230040
0DFFB0044444444444530040
1FFFB0040000000000130040
2FFFB0040015555400130040
2FFFB004002FFFFC00130040
2FFFB004002FFFFC00130040
2FFFB000002FFFFC00000040
2FFFB0000023FFFC00000040
2FFFE6555561FFFF65555520
2FFFFFFFFA11FFFFFFFFD300
2FFFFFFF8001FFFFFFFC1000
1DFFFFE60000BFFFFF900000
ENDCHAR
STARTCHAR Aacute
ENCODING 193
SWIDTH 830 0
DWIDTH 23 0
BBX 23 31 0 -3
BITMAP
00000000000012468AB30000
000000028ACDCA9753270000
0000004C5310000010040000
000006F90044444420040000
00009FF80000000000030000
0004FFF80000000013110000
0005FFFB23579ACEF8000000
0005FFFFC544444445400000
0005FFFF2000000000410000
0003FFFC0000000000040000
00002BF60015444500040000
00008FE10050000150022000
0000EFA00220000050004000
0005FF4005007F3014004000
000BFD001400DF8005001400
002FF8005003FFD002300400
007FF3005007FFF200500400
00DFE0014008BBB500500130
04FFC0031000000000320040
09FFB0040000000000230040
0DFFB0044444444444530040
1FFFB0040000000000130040
2FFFB0040015555400130040
2FFFB004002FFFFC00130040
2FFFB004002FFFFC00130040
2FFFB000002FFFFC00000040
2FFFB0000023FFFC00000040
2FFFE6555561FFFF65555520
2FFFFFFFFA11FFFFFFFFD300
2FFFFFFF8001FFFFFFFB1000
1DFFFFE60000BFFFFF900000
ENDCHAR
STARTCHAR Acircumflex
ENCODING 194
SWIDTH 830 0
DWIDTH 23 0
BBX 23 32 0 -3
BITMAP
000000000001444100000000
000000000343000453000000
000000034100000001520000
000000590002545200040000
000006F80042000340040000
00007FF80000000000040000
0003FFF90149DFC840040000
0005FFFEBFFFFFFFFEA30000
0005FFFFC544444445600000
0005FFFF2000000000310000
0004FEFC0000000000040000
00002AF60015444500040000
00008FE10050000150022000
0000EFA00220000050004000
0005FF4005007F3014004000
000BFD001400DF8005001400
002FF8005003FFD002300400
007FF3005007FFF200500400
00DFE0014008BBB500500130
04FFC0031000000000320040
09FFB0040000000000230040
0DFFB0044444444444530040
1FFFB0040000000000130040
2FFFB0040015555400130040
2FFFB004002FFFFC00130040
2FFFB004002FFFFC00130040
2FFFB000002FFFFC00000040
2FFFB0000023FFFC00000040
2FFFE6555561FFFF65555520
2FFFFFFFFA11FFFFFFFFD300
2FFFFFFF8001FFFFFFFB1000
1DFFFFE60000BFFFFF900000
ENDCHAR
STARTCHAR Atilde
ENCODING 195
SWIDTH 830 0
DWIDTH 23 0
BBX 23 30 0 -3
BITMAP
000000003444443114520000
000000072000001331040000
000001C80010000000040000
00003DF80043444430040000
0002EFF80000000000040000
0005FFFB3698742103720000
0005FFFFFFEEEEEEEE200000
0005FFFF8000000001600000
0004FEFE1000000000220000
000029F90015444500040000
00008FF30050000150040000
0000EFC00220000050004000
0005FF7005007F3014004000
000BFF101400DF8005002200
002FFA005003FFD002300400
007FF5005007FFF200500400
00DFF1014008BBB500500220
04FFC0031000000000320040
09FFB0040000000000230040
0DFFB0044444444444530040
1FFFB0040000000000130040
2FFFB0040015555400130040
2FFFB004002FFFFC00130040
2FFFB004002FFFFC00130040
2FFFB000002FFFFC00000040
2FFFB0000023FFFC00000040
2FFFE6555561FFFF65555630
2FFFFFFFFA11FFFFFFFFD300
2FFFFFFF8001FFFFFFFC1000
1DFFFFE60000BFFFFF900000
ENDCHAR
STARTCHAR Adieresis
ENCODING 196
SWIDTH 830 0
DWIDTH 23 0
BBX 23 31 0 -3
BITMAP
000000154444305444440000
000002C000005A3000031000
00002DD000006F2000022000
0003EFD004006F2022022000
000DFFD001006F2011022000
000FFFD000006F2000022000
000FFFF200008F5000040000
000FFFFFFFFFFFFFFFE30000
000FFFFFA322222223600000
000CFFFF1000000000320000
00001AFA0015444500040000
00008FF40050000150040000
0000EFD00220000050013000
0005FF7005007F3014004000
000BFF201400DF8005003100
002FFB005003FFD002300400
007FF5005007FFF200500400
00DFF1014008BBB500500310
04FFD0031000000000320040
09FFB0040000000000230040
0DFFB0044444444444530040
1FFFB0040000000000130040
2FFFB0040015555400130040
2FFFB004002FFFFC00130040
2FFFB004002FFFFC00130040
2FFFB000002FFFFC00000040
2FFFB0000023FFFC00000040
2FFFE6555561FFFF65555630
2FFFFFFFFA11FFFFFFFFE300
2FFFFFFF8001FFFFFFFC2000
1DFFFFE60000BFFFFF910000
ENDCHAR
STARTCHAR Aring
ENCODING 197
SWIDTH 830 0
DWIDTH 23 0
BBX 23 31 0 -3
BITMAP
000000000144444441000000
000000004300000004500000
000000180014444510140000
000002C70250000051040000
00003EF50400CFC004040000
0001EFF50402FFF204040000
0005FFF70401FFF104040000
0007FFFC0250352051040000
0008FFFF1025444520220000
0008FFFA0000000000040000
0005FFF40015444500040000
0001EFE00050000150013000
0000EF800220000050005000
0005FF3005008F3014004100
000BFC001400DF8005000400
002FF7005003FFD002300500
008FF2005007FFF200500410
00DFE0014008BBB500500140
04FFC0031000000000320040
09FFB0040000000000230040
0DFFB0044444444444530040
1FFFB0040000000000130040
2FFFB0040015555400130040
2FFFB004002FFFFC00130040
2FFFB004002FFFFC00130040
2FFFB000002FFFFC00000040
2FFFB0000023FFFC00000040
2FFFE6555561FFFF65555520
2FFFFFFFFA11FFFFFFFFD200
2FFFFFFF8001FFFFFFFB1000
1DFFFFE60000BFFFFF900000
ENDCHAR
STARTCHAR AE
ENCODING 198
SWIDTH 1105 0
DWIDTH 31 0
BBX 31 24 0 -3
BITMAP
00000001544444444444444444444510
0000002C100000000000000000000040
000003E9000000000000000000000040
00005FF4003444444464444444420040
0000DFD0005000000040000000000040
0004FF80051000000040000000000320
000AFF2006006FF8004002FFFFFFE400
001EFC002400BFF8004002FFFFFD3000
005FF7006002FFF80040003333360000
00BFF2007007FFF80040000000040000
01FFE003300ADDD70054444441040000
06FFC005000000000040000000040000
0BFFB004000000000040000000040000
0FFFB00544444444447001BBBBA40000
2FFFB00400000000004002FFFE300000
2FFFB00400155553004001AAA6444500
2FFFB004002FFFF80040000000000140
2FFFB003002FFFF80034444444420040
2FFFB000002FFFF80000000000000040
2FFFB0000027FFF80000000000000040
2FFFE6555565FFFD5555555555555710
2FFFFFFFFA15FFFFFFFFFFFFFFFFD200
2FFFFFFF8005FFFFFFFFFFFFFFFB1000
0DFFFFE50002EFFFFFFFFFFFFF800000
ENDCHAR
STARTCHAR Ccedilla
ENCODING 199
SWIDTH 728 0
DWIDTH 20 0
BBX 20 28 0 -7
BITMAP
00000003444444444445
00000152000000000004
00001800034444444004
0003D400420000000004
004EF000400000000004
02EFD001300055555555
09FFD0022009FFFFFF70
0DFFD002200BFFFFE500
0FFFD002200CFFFD3000
1FFFD002200400000000
1FFFD002200400000000
1FFFD002200400000000
1FFFD002200400000000
1FFFD002200400000000
1FFFD001300400000000
1FFFE000400244444443
1FFFF100420000000005
0FFFF700034444644004
0EFFFE30000001400004
0AFFFFE7200004000005
04FFFFFFFD6004008AA8
00AFFFFFFF300101FF80
0009FFFFFD000006E500
000038CFFB00001A2000
000000AFFFFFFFA10000
000001EFFFFFF7000000
000003FFFFFE40000000
00000045555100000000
ENDCHAR
STARTCHAR Egrave
ENCODING 200
SWIDTH 754 0
DWIDTH 21 0
BBX 20 31 1 -3
BITMAP
000006B9764200000000
00009B23579BCDBA7100
001BF800100000136600
01DFF800344444300400
06FFF800000000000400
06FFFC42100000000400
06FFFFFFFECA86430100
05FF8444444444444453
01BF2000000000000004
03DF2000000000000004
4EFF2005444444443004
BFFF2004000000000004
BFFF2004001333333343
BFFF2004009FFFFFFE40
BFFF2004009FFFFFE300
BFFF2004000000004100
BFFF2004000000002300
BFFF2006444444202300
BFFF2004000000002300
BFFF2004000000003100
BFFF2004008DDDDD6000
BFFF2004009FFFE50000
BFFF2004006AAA744451
BFFF2004000000000004
BFFF2005444444443004
BFFF2000000000000004
BFFF2000000000000004
BFFF9555555555555563
BFFFFFFFFFFFFFFFFE40
BFFFFFFFFFFFFFFFC200
7FFFFFFFFFFFFFFA1000
ENDCHAR
STARTCHAR Eacute
ENCODING 201
SWIDTH 754 0
DWIDTH 21 0
BBX 20 31 1 -3
BITMAP
0000000000013568AA10
00000048ACDCA8643350
000007B4210000010040
00009F50144444410040
001BFF50000000000030
008FFF50000000013100
008FFF823579BDEF5000
008F8444444444444453
009F2000000000000004
06FF2000000000000004
6FFF2005444444443004
BFFF2004000000000004
BFFF2004001333333343
BFFF2004009FFFFFFE40
BFFF2004009FFFFFE300
BFFF2004000000004100
BFFF2004000000002300
BFFF2006444444202300
BFFF2004000000002300
BFFF2004000000003100
BFFF2004008DDDDD6000
BFFF2004009FFFE50000
BFFF2004006AAA744451
BFFF2004000000000004
BFFF2005444444443004
BFFF2000000000000004
BFFF2000000000000004
BFFF9555555555555563
BFFFFFFFFFFFFFFFFE40
BFFFFFFFFFFFFFFFC200
7FFFFFFFFFFFFFFA1000
ENDCHAR
STARTCHAR Ecircumflex
ENCODING 202
SWIDTH 754 0
DWIDTH 21 0
BBX 20 32 1 -3
BITMAP
00000000014442000000
00000004540003540000
00000362000000015400
00005C00025453000400
0008FC00330002400400
009FFC00000000000400
01FFFC0048CFD9510400
02FFFFBEFFFFFFFFB500
02FF8444444444444453
01FF2000000000000004
0AFF2000000000000004
8FFF2005444444443004
BFFF2004000000000004
BFFF2004001333333343
BFFF2004009FFFFFFE40
BFFF2004009FFFFFE300
BFFF2004000000004100
BFFF2004000000002300
BFFF2006444444202300
BFFF2004000000002300
BFFF2004000000003100
BFFF2004008DDDDD6000
BFFF2004009FFFE50000
BFFF2004006AAA744451
BFFF2004000000000004
BFFF2005444444443004
BFFF2000000000000004
BFFF2000000000000004
BFFF9555555555555563
BFFFFFFFFFFFFFFFFE40
BFFFFFFFFFFFFFFFC200
7FFFFFFFFFFFFFFA1000
ENDCHAR
STARTCHAR Edieresis
ENCODING 203
SWIDTH 754 0
DWIDTH 21 0
BBX 20 31 1 -3
BITMAP
00000444445134444420
00007700000890000040
0008F600000DA0000040
009FF600400DA0040040
06FFF600100DA0010040
08FFF600000DA0000030
08FFF900001EC0000320
08FFFFFFFFFFFFFFFFE3
08FF7222222222222236
05FF2000000000000004
1BFF2005444444443004
AFFF2004000000000004
BFFF2004001333333333
BFFF2004009FFFFFFE40
BFFF2004009FFFFFE300
BFFF2004000000004100
BFFF2004000000002300
BFFF2006444444202300
BFFF2004000000002300
BFFF2004000000003100
BFFF2004008DDDDD6000
BFFF2004009FFFE50000
BFFF2004006AAA744451
BFFF2004000000000004
BFFF2005444444443004
BFFF2000000000000004
BFFF2000000000000004
BFFF9555555555555563
BFFFFFFFFFFFFFFFFE40
BFFFFFFFFFFFFFFFC200
7FFFFFFFFFFFFFFA1000
ENDCHAR
STARTCHAR Igrave
ENCODING 204
SWIDTH 705 0
DWIDTH 20 0
BBX 19 31 0 -3
BITMAP
000003BA864210000000
00005E23578ACDCA8300
0008FC00100000135900
00AFFC00244444400400
01FFFC00000000000400
01FFFE53100000000400
01FFFFFFFECB97531000
01FFE544444444444450
007EB000000000000040
007FB000000000000040
09FFB003444644441040
2FFFB000000400000040
3FFFC000000400000040
3FFFFDCC6004001CCB20
3FFFFFFF7004001FC100
2FFFFFFF7004001B1000
0688BFFF700400130000
00006FFF700400130000
00006FFF700400130000
00006FFF700400130000
00006FFF700400130000
00006FFF700400130000
00006AAA500400154440
0005A000000400000040
008FB003444644441040
0AFFB000000000000040
2FFFB000000000000040
3FFFE655555555555560
3FFFFFFFFFFFFFFFFA10
3FFFFFFFFFFFFFFF7000
1DFFFFFFFFFFFFD40000
ENDCHAR
STARTCHAR Iacute
ENCODING 205
SWIDTH 705 0
DWIDTH 20 0
BBX 19 31 0 -3
BITMAP
0000000000024679B600
0000017ABDCB97532700
00002C63100000100400
0004EC00344444300400
006FFC00000000000300
01FFFC00000000122100
01FFFE23468ACEFB1000
01FFE544444444444450
01FFB000000000000040
00EFB000000000000040
07FFB003444644441040
2FFFB000000400000040
3FFFC000000400000040
3FFFFDCC6004001CCB20
3FFFFFFF7004001FC100
2FFFFFFF7004001B1000
0688BFFF700400130000
00006FFF700400130000
00006FFF700400130000
00006FFF700400130000
00006FFF700400130000
00006FFF700400130000
00006AAA500400154440
0005A000000400000040
008FB003444644441040
0AFFB000000000000040
2FFFB000000000000040
3FFFE655555555555560
3FFFFFFFFFFFFFFFFA10
3FFFFFFFFFFFFFFF7000
1DFFFFFFFFFFFFD40000
ENDCHAR
STARTCHAR Icircumflex
ENCODING 206
SWIDTH 705 0
DWIDTH 20 0
BBX 19 32 0 -3
BITMAP
00000000004442000000
00000002440003540000
00000252000000015400
00002B00015453000400
0003EC00330002500400
004EFC00000000000400
00EFFC0038CFD9510400
01FFFFBEFFFFFFFFB500
01FFE544444444444450
01FFB000000000000040
01FFB000000000000040
06FFB003444644441040
2FFFB000000400000040
3FFFC000000400000040
3FFFFDCC6004001CCB20
3FFFFFFF7004001FC100
2FFFFFFF7004001B1000
0688BFFF700400130000
00006FFF700400130000
00006FFF700400130000
00006FFF700400130000
00006FFF700400130000
00006FFF700400130000
00006AAA500400154440
0005A000000400000040
008FB003444644441040
0AFFB000000000000040
2FFFB000000000000040
3FFFE655555555555560
3FFFFFFFFFFFFFFFFA10
3FFFFFFFFFFFFFFF7000
1DFFFFFFFFFFFFD40000
ENDCHAR
STARTCHAR Idieresis
ENCODING 207
SWIDTH 705 0
DWIDTH 20 0
BBX 19 31 0 -3
BITMAP
00000544444044444510
0000A300003860000040
001BF200002F60000040
01CFF202202F60040040
0AFFF200102F60010040
0BFFF200002F60000030
0CFFF500005F80000400
0CFFFFFFFFFFFFFFFF90
0BFFD322222222222280
08FFB000000000000040
06FFB003444644441040
2FFFB000000400000040
3FFFC000000400000030
3FFFFDCC6004001CCB20
3FFFFFFF7004001FC100
2FFFFFFF7004001B1000
0688BFFF700400130000
00006FFF700400130000
00006FFF700400130000
00006FFF700400130000
00006FFF700400130000
00006FFF700400130000
00006AAA500400154440
0005A000000400000040
008FB003444644441040
0AFFB000000000000040
2FFFB000000000000040
3FFFE655555555555560
3FFFFFFFFFFFFFFFFA10
3FFFFFFFFFFFFFFF7000
1DFFFFFFFFFFFFD40000
ENDCHAR
STARTCHAR Eth
ENCODING 208
SWIDTH 856 0
DWIDTH 24 0
BBX 25 24 -1 -3
BITMAP
00000164444444444444410000
00002C70000000000000044000
0003EF70000000000000004300
003EFF70044444444440000500
007FFF70040000000005100500
007FFF70040026665000500400
007FFF7004004FFFF500400410
007FFF7004004FFFF700400410
007FD1000400005FF700400410
007FC0000400002FF700400410
03EFC0034744102FF700400410
1EFFC0000400002FF700400410
2FFFD1000400005FF700400410
2FFFFF7004004FFFF600400410
2FFFFF7004004AFFF300400410
1EFFFF70040012221000500400
018FFF70040000000005200400
007FFF70044444444441000500
007FFF70000000000000004200
007FFF70000000000000043000
007FFFC5555555555569B20000
007FFFFFFFFFFFFFFFFB100000
007FFFFFFFFFFFFFFF90000000
003EFFFFFFFFFFEC9300000000
ENDCHAR
STARTCHAR Ntilde
ENCODING 209
SWIDTH 853 0
DWIDTH 24 0
BBX 22 30 1 -3
BITMAP
0000000244444421354000
0000006300000023204000
00001AD000100000004000
0002DFD002344444004000
000EFFD000000000002000
000FFFE358975310211000
000F84445CFFFFF9444444
003F200001DFFFF2000004
05EF2000002DEFF2000004
5FFF20072003EFF2004004
BFFF200441006FF2004004
BFFF2004051008F2004004
BFFF2004005000A2004004
BFFF200400050011004004
BFFF200400015000004004
BFFF200400002400004004
BFFF200400200230004004
BFFF200400940033004004
BFFF2004009E2004204004
BFFF2004009FC100414004
BFFF2004009FFA00055004
BFFF2004009FFF80005004
BFFF2004009FFFF2004004
BFFF2004009FFFF2004004
BFFF2001009FFFF2001004
BFFF2000004CFFF2000004
BFFF9555554BFFF9555553
BFFFFFFFE50BFFFFFFFE50
BFFFFFFD300BFFFFFFD300
7FFFFFB10007FFFFFB1000
ENDCHAR
STARTCHAR Ograve
ENCODING 210
SWIDTH 837 0
DWIDTH 23 0
BBX 23 32 0 -3
BITMAP
000000001000000000000000
0000000AFECB975310000000
000001CC23579BCEFEC40000
00003DFA0044310013580000
0001EFFA0000134440040000
0004FFFA0000000000040000
0004FFFD5310000000030000
0004FFFFFDB8532001120000
0002FFF93000000000253000
000028300000000000003400
000066000044444440000400
0008F1002500000004200140
00AFE0005000000000500040
06FFD0013006EFE700220040
0CFFD002200CFFFD00130040
0FFFD002200CFFFE00130040
1FFFD002200AFFFE00130040
1FFFD0022004FFFE00130040
1FFFD0022004FFFE00130040
1FFFD0022004FFFE00130040
1FFFD0022004FFFE00130040
1FFFD0022004FFFE00130040
1FFFD0013005FFFA00220040
1FFFD0005000232000500040
1FFFF1002510000015200040
0FFFF5000044444440000410
0EFFFD200000000000001500
0BFFFFE61000000000055000
05FFFFFFEB8765668BE50000
009FFFFFFFFFFFFFFD300000
0007EFFFFFFFFFFFA1000000
000016ADEFFEDB8300000000
ENDCHAR
STARTCHAR Oacute
ENCODING 211
SWIDTH 837 0
DWIDTH 23 0
BBX 23 32 0 -3
BITMAP
000000000000000000100000
000000000024689BDFF70000
00000006DFFECB9753270000
0000008D5310013440040000
00001BFA0044431000040000
0001CFFA0000000000010000
0004FFFA0000000012420000
0004FFFC21002358B8300000
0004FFF93000000000253000
0003FE300000000000003400
0000C7000044444440000510
0007F1002500000004200140
009FE0005000000000500040
06FFD0013006EFE700220040
0CFFD002200CFFFD00130040
0FFFD002200CFFFE00130040
1FFFD002200AFFFE00130040
1FFFD0022004FFFE00130040
1FFFD0022004FFFE00130040
1FFFD0022004FFFE00130040
1FFFD0022004FFFE00130040
1FFFD0022004FFFE00130040
1FFFD0013005FFFA00220040
1FFFD0005000232000500040
1FFFF1002510000015200040
0FFFF5000044444440000410
0EFFFD200000000000001400
0BFFFFE61000000000055000
05FFFFFFEB8765668BE50000
009FFFFFFFFFFFFFFD300000
0007EFFFFFFFFFFFA1000000
000016ADEFFEDB8200000000
ENDCHAR
STARTCHAR Ocircumflex
ENCODING 212
SWIDTH 837 0
DWIDTH 23 0
BBX 23 32 0 -3
BITMAP
000000000001444100000000
000000000454000354000000
000000046100000001530000
0000007A0002545200040000
000009FA0043000340040000
0000AFFA0000000000040000
0003FFFA0048DFD840040000
0004FFFEBEFEEDEEFEB30000
0004FFFD8410000013651000
0003FF800000000000006200
0001D9000044444440000500
0007F2002500000004200130
009FE0005000000000500040
05FFD0013006EFE700220040
0CFFD002200CFFFD00130040
0FFFD002200CFFFE00130040
1FFFD002200AFFFE00130040
1FFFD0022004FFFE00130040
1FFFD0022004FFFE00130040
1FFFD0022004FFFE00130040
1FFFD0022004FFFE00130040
1FFFD0022004FFFE00130040
1FFFD0013005FFFA00220040
1FFFD0005000232000500040
1FFFF0002510000015200040
0FFFF5000044444440000410
0EFFFD200000000000001500
0BFFFFE61000000000056000
05FFFFFFEB8665668AE50000
009FFFFFFFFFFFFFFE300000
0007EFFFFFFFFFFFB2000000
000016ADEFFEDB8300000000
ENDCHAR
STARTCHAR Otilde
ENCODING 213
SWIDTH 837 0
DWIDTH 23 0
BBX 23 31 0 -3
BITMAP
000000002544442003620000
000000073000002453050000
000000AA0000000000040000
00001CFA0055542000040000
0001DFFA0000003540040000
0004FFFA0000000000040000
0004FFFC37AA863103510000
0004FFFFFB9766679B510000
0003FFE61000000000155000
0000BD200044444440001500
0007F5002500000004200310
009FF0005000000000500040
05FFD0013006EFE700220040
0CFFD002200CFFFD00130040
0FFFD002200CFFFE00130040
1FFFD002200AFFFE00130040
1FFFD0022004FFFE00130040
1FFFD0022004FFFE00130040
1FFFD0022004FFFE00130040
1FFFD0022004FFFE00130040
1FFFD0022004FFFE00130040
1FFFD0013005FFFA00220040
1FFFD0005000232000500040
1FFFF0002510000015200050
0FFFF4000044444440000320
0EFFFD100000000000001600
0BFFFFD50000000000057000
05FFFFFFEB8665668AE60000
009FFFFFFFFFFFFFFE400000
0007EFFFFFFFFFFFB2000000
000016ADEFFEDB8300000000
ENDCHAR
STARTCHAR Odieresis
ENCODING 214
SWIDTH 837 0
DWIDTH 23 0
BBX 23 31 0 -3
BITMAP
000000154444404444450000
000002C00000494000023000
00003EF000004F3000013000
0005FFF004004F3013013000
000DFFF001004F3001013000
000EFFF000004F3000013000
000EFFF200007F6000031000
000EFFFFFFECBBBCEFE30000
000DFFFB5100000001574000
0002AF500044444440004500
0007F7002500000004200500
009FF1005000000000500140
05FFD0013006EFE700220040
0CFFD002200CFFFD00130040
0FFFD002200CFFFE00130040
1FFFD002200AFFFE00130040
1FFFD0022004FFFE00130040
1FFFD0022004FFFE00130040
1FFFD0022004FFFE00130040
1FFFD0022004FFFE00130040
1FFFD0022004FFFE00130040
1FFFD0013005FFFA00220040
1FFFD0005000232000500040
1FFFE0002510000015200050
0FFFF4000044444440000320
0EFFFC100000000000001600
0BFFFFD50000000000057000
05FFFFFFEA8665668AE70000
009FFFFFFFFFFFFFFE400000
0007EFFFFFFFFFFFB2000000
000016ADEFFEDB8300000000
ENDCHAR
STARTCHAR multiply
ENCODING 215
SWIDTH 834 0
DWIDTH 23 0
BBX 21 20 1 -1
BITMAP
0000001450000000451000
0000026005000006105100
0000370000600181000510
0005B00000162A10000050
005FD10030018100300150
05FFFC1005000005001600
2FFFFFC100500050016000
2EFFFFFC10051500160000
03EFFFFF90009100600000
003EFFFC10051500150000
0003EFC100500050015000
00006C1005000005001500
0002B10030018100300150
002DB000000BFC10000060
02DFF90000BFFFB1000610
1DFFFF900BFFFFFB106100
3FFFFFFB64FFFFFFC82000
06FFFFF7005FFFFFB10000
007FFE500005FFF9000000
0006B30000006E60000000
ENDCHAR
STARTCHAR Oslash
ENCODING 216
SWIDTH 837 0
DWIDTH 23 0
BBX 23 29 0 -5
BITMAP
000000000000000044445000
000000000000000600002300
000000000000003800004000
000000015555555200005000
000000440000000004005100
000017100144444441000500
0002C4004400000011100220
003EE0024000000100010040
02EFD005001AEA0100030040
0AFFD004005FF41100040040
0EFFD004005FC01000040040
0FFFD004005F601040040040
1FFFD004005E110370040040
1FFFD0040059010970040040
1FFFD0040052101F70040040
1FFFD0040020107F70040040
1FFFD004000010DF70040040
1FFFD004000105FF60040040
1FFFE001100108B800420040
1FFFF1001110000004500050
0FFFF7000244544541000520
0EFFFF500410000000002700
0CFFFFD00200000000288000
07FFFF7000038899BDF60000
01DFFF30000BFFFFFE300000
002FFFECCCDFFFFFB2000000
005FFFFFFFFEDB8300000000
00BFFFFF6000000000000000
003777730000000000000000
ENDCHAR
STARTCHAR Ugrave
ENCODING 217
SWIDTH 846 0
DWIDTH 24 0
BBX 22 31 1 -3
BITMAP
0000006B98642000000000
000009B23579BCDBA71000
0001BF8001000001366000
001DFF8003444443004000
006FFF8000000000004000
006FFFC421000000004000
006FFFFFFFECA864301000
005F744445DFFFF7444444
006F0000009FFFF1000004
09FF00010056EFF1001004
9FFF00040049FFF1004004
DFFF0004004DFFF1004004
DFFF0004004DFFF1004004
DFFF0004004DFFF1004004
DFFF0004004DFFF1004004
DFFF0004004DFFF1004004
DFFF0004004DFFF1004004
DFFF0004004DFFF1004004
DFFF0004004DFFF1004004
DFFF0004004DFFF1004004
DFFF0004004DFFF0004004
DFFF0004002ACC70004004
DFFF100500000000041004
DFFF300151000000430004
DFFF700003444444100032
BFFFE30000000000000160
8FFFFE7100000000005700
2FFFFFFFB9765668AE6000
07FFFFFFFFFFFFFFE40000
006EFFFFFFFFFFFB200000
00016ACEFFEDB830000000
ENDCHAR
STARTCHAR Uacute
ENCODING 218
SWIDTH 846 0
DWIDTH 24 0
BBX 22 31 1 -3
BITMAP
00000000000013579B9000
000000069BCDB986427100
000001A842000001103100
00002CF102444443103100
0003DFF100000000003000
000CFFF100000000231000
000CFFF524689BDFD30000
000C744445DFFFF7444444
006F0000008CADF1000004
09FF000100409FF1001004
9FFF00040049FFF1004004
DFFF0004004DFFF1004004
DFFF0004004DFFF1004004
DFFF0004004DFFF1004004
DFFF0004004DFFF1004004
DFFF0004004DFFF1004004
DFFF0004004DFFF1004004
DFFF0004004DFFF1004004
DFFF0004004DFFF1004004
DFFF0004004DFFF1004004
DFFF0004004DFFF0004004
DFFF0004002ACC70004004
DFFF100500000000041004
DFFF300151000000430004
DFFF700003444444100032
BFFFE30000000000000160
8FFFFE7100000000005700
2FFFFFFFB9765668AE6000
07FFFFFFFFFFFFFFE40000
006EFFFFFFFFFFFB200000
00016ACEFFEDB830000000
ENDCHAR
STARTCHAR Ucircumflex
ENCODING 219
SWIDTH 846 0
DWIDTH 24 0
BBX 22 32 1 -3
BITMAP
0000000000144420000000
0000000034300023300000
0000002300000000023000
000004B000354430004000
00006FC003200013004000
0007FFC000047510004000
001FFFD36BEFFFFC736000
002FFFFFFFFFFFFFFF6000
002F744445DFFFF7444444
006F0000008EFFF1000004
08FF00010040BFF1001004
9FFF00040049FFF1004004
DFFF0004004DFFF1004004
DFFF0004004DFFF1004004
DFFF0004004DFFF1004004
DFFF0004004DFFF1004004
DFFF0004004DFFF1004004
DFFF0004004DFFF1004004
DFFF0004004DFFF1004004
DFFF0004004DFFF1004004
DFFF0004004DFFF1004004
DFFF0004004DFFF1004004
DFFF0004003CFEA0004004
DFFF100500000000041004
DFFF300151000000430004
DFFF700003444444100032
BFFFE30000000000000160
8FFFFE7100000000005700
2FFFFFFFB9765668AE6000
07FFFFFFFFFFFFFFE40000
006EFFFFFFFFFFFB200000
00016ACEFFEDB830000000
ENDCHAR
STARTCHAR Udieresis
ENCODING 220
SWIDTH 846 0
DWIDTH 24 0
BBX 22 31 1 -3
BITMAP
0000005444440444445100
00001C2000038600000400
0002DF200002F500000400
004EFF202202F500400400
00BFFF201102F500100400
00CFFF200002F500000300
00CFFF400005F800004000
00CFFFFFFFFFFFFFFFFFF5
00DF522222CFFFF5222237
1CFF0000009FFFF1000004
BFFF00020054EFF1002004
DFFF0004004BFFF1004004
DFFF0004004DFFF1004004
DFFF0004004DFFF1004004
DFFF0004004DFFF1004004
DFFF0004004DFFF1004004
DFFF0004004DFFF1004004
DFFF0004004DFFF1004004
DFFF0004004DFFF1004004
DFFF0004004DFFF1004004
DFFF0004004DFFF1004004
DFFF0004003CEE90004004
DFFF100500000000041004
DFFF200151000000440004
DFFF700004444444100022
BFFFE20000000000000050
8FFFFE6100000000004600
2FFFFFFFB8765668AD6000
07FFFFFFFFFFFFFFE40000
005EFFFFFFFFFFFB200000
000059CEFFEDB830000000
ENDCHAR
STARTCHAR Yacute
ENCODING 221
SWIDTH 805 0
DWIDTH 23 0
BBX 22 31 0 -3
BITMAP
00000000000012468AB200
000000038ACDCA87532600
0000005B53100000100400
000007F700444444200400
0000AFF700000000000300
0005FFF700000000130000
0006FFFA23579BCEF70000
0006C444449FFFFC444445
001C7000003ECBF8000004
02DF700000312DF8000004
2EFF70040033DFF8004004
6FFF70040037FFF8004004
6FFF70040037FFF8004004
6FFF70040027FFF7004004
6FFF8004000AFFF3005004
6FFF90013004FF80013005
6FFFE10041008C10050005
6FFFFA0005000000410050
4FFFFF5001400002200330
0EFFFFE200320014001400
05FFFFFC00035640005000
009FFFFF80000400041000
000CFFFFF4000400230000
0002EFFFFC000400400000
00006FFFFC000400400000
00000AFFFC000100400000
000001FFFD000000400000
000001FFFF655555400000
000001FFFFFFFFF6000000
000001FFFFFFFE40000000
000000CFFFFFC200000000
ENDCHAR
STARTCHAR Thorn
ENCODING 222
SWIDTH 792 0
DWIDTH 22 0
BBX 21 24 1 -3
BITMAP
0002644444400000000000
004E200000400000000000
06FF200000400000000000
6FFF200400244444441000
BFFF200400000000005200
BFFF200744444443000600
BFFF200400000001500140
BFFF200400000000220040
BFFF200400244200040040
BFFF2004008FFF20040040
BFFF2004008FFF40040040
BFFF2004008FFF40040040
BFFF2004008FFD10040040
BFFF200400000000220040
BFFF200400000001500140
BFFF200744444443000600
BFFF200400000000005200
BFFF2004002555679A1000
BFFF2001007FFFFF900000
BFFF2000007FFFF6000000
BFFF955555CEC820000000
BFFFFFFFE5000000000000
BFFFFFFE30000000000000
7FFFFFC200000000000000
ENDCHAR
STARTCHAR germandbls
ENCODING 223
SWIDTH 859 0
DWIDTH 24 0
BBX 23 24 1 -3
BITMAP
000264444444444445200000
004E30000000000000430000
06FF20000000000000050000
6FFF20044444444400041000
BFFF20040000000140031000
BFFF20040000000040040000
BFFF2004007EE20040050000
BFFF2004007FF20410040000
BFFF2004007FE00500053000
BFFF2004007FB00500002500
BFFF2004007F801644200140
BFFF2004007F500000420040
BFFF2004007F700000040040
BFFF2004007FFFFE10040040
BFFF2004007FFFFF20040040
BFFF2004007FDAA900040040
BFFF2004007F300000420040
BFFF2003007F301445300040
BFFF2000007F300000000330
BFFF2000007F300000003500
BFFF955555CF9555557A5000
BFFFFFFFFFFFFFFFFFD30000
BFFFFFFEDFFFFFFFFB100000
7FFFFFC27FFFFFEB60000000
ENDCHAR
STARTCHAR agrave
ENCODING 224
SWIDTH 830 0
DWIDTH 23 0
BBX 23 31 0 -3
BITMAP
000000038642100000000000
0000005B2357999986400000
000007F80000000013560000
0000AFF80044444420040000
0004FFF90000000020040000
0005FFFD5210000000040000
0005FFFFFFFECA8653120000
0005FFFFE888888889700000
0001BEFF4000000000400000
0000009D0000000000040000
00000AF70015444500040000
00008FF10050000150032000
0000EFB00220000050004000
0005FF5005007F3014004000
000BFE001400DF8005001300
002FF9005003FFD002300400
007FF4005007FFF200500400
00DFE0014008BBB500500130
04FFC0031000000000320040
09FFB0040000000000230040
0DFFB0044444444444530040
1FFFB0040000000000130040
2FFFB0040015555400130040
2FFFB004002FFFFC00130040
2FFFB004002FFFFC00130040
2FFFB000002FFFFC00000040
2FFFB0000023FFFC00000040
2FFFE6555561FFFF65555520
2FFFFFFFFA11FFFFFFFFD300
2FFFFFFF8001FFFFFFFC1000
1DFFFFE60000BFFFFF900000
ENDCHAR
STARTCHAR aacute
ENCODING 225
SWIDTH 830 0
DWIDTH 23 0
BBX 23 31 0 -3
BITMAP
00000000000012468AB30000
000000028ACDCA9753270000
0000004C5310000010040000
000006F90044444420040000
00009FF80000000000030000
0004FFF80000000013110000
0005FFFB23579ACEF8000000
0005FFFFC544444445400000
0005FFFF2000000000410000
0003FFFC0000000000040000
00002BF60015444500040000
00008FE10050000150022000
0000EFA00220000050004000
0005FF4005007F3014004000
000BFD001400DF8005001400
002FF8005003FFD002300400
007FF3005007FFF200500400
00DFE0014008BBB500500130
04FFC0031000000000320040
09FFB0040000000000230040
0DFFB0044444444444530040
1FFFB0040000000000130040
2FFFB0040015555400130040
2FFFB004002FFFFC00130040
2FFFB004002FFFFC00130040
2FFFB000002FFFFC00000040
2FFFB0000023FFFC00000040
2FFFE6555561FFFF65555520
2FFFFFFFFA11FFFFFFFFD300
2FFFFFFF8001FFFFFFFB1000
1DFFFFE60000BFFFFF900000
ENDCHAR
STARTCHAR acircumflex
ENCODING 226
SWIDTH 830 0
DWIDTH 23 0
BBX 23 32 0 -3
BITMAP
000000000001444100000000
000000000343000453000000
000000034100000001520000
000000590002545200040000
000006F80042000340040000
00007FF80000000000040000
0003FFF90149DFC840040000
0005FFFEBFFFFFFFFEA30000
0005FFFFC544444445600000
0005FFFF2000000000310000
0004FEFC0000000000040000
00002AF60015444500040000
00008FE10050000150022000
0000EFA00220000050004000
0005FF4005007F3014004000
000BFD001400DF8005001400
002FF8005003FFD002300400
007FF3005007FFF200500400
00DFE0014008BBB500500130
04FFC0031000000000320040
09FFB0040000000000230040
0DFFB0044444444444530040
1FFFB0040000000000130040
2FFFB0040015555400130040
2FFFB004002FFFFC00130040
2FFFB004002FFFFC00130040
2FFFB000002FFFFC00000040
2FFFB0000023FFFC00000040
2FFFE6555561FFFF65555520
2FFFFFFFFA11FFFFFFFFD300
2FFFFFFF8001FFFFFFFB1000
1DFFFFE60000BFFFFF900000
ENDCHAR
STARTCHAR atilde
ENCODING 227
SWIDTH 830 0
DWIDTH 23 0
BBX 23 30 0 -3
BITMAP
000000003444443114520000
000000072000001331040000
000001C80010000000040000
00003DF80043444430040000
0002EFF80000000000040000
0005FFFB3698742103720000
0005FFFFFFEEEEEEEE200000
0005FFFF8000000001600000
0004FEFE1000000000220000
000029F90015444500040000
00008FF30050000150040000
0000EFC00220000050004000
0005FF7005007F3014004000
000BFF101400DF8005002200
002FFA005003FFD002300400
007FF5005007FFF200500400
00DFF1014008BBB500500220
04FFC0031000000000320040
09FFB0040000000000230040
0DFFB0044444444444530040
1FFFB0040000000000130040
2FFFB0040015555400130040
2FFFB004002FFFFC00130040
2FFFB004002FFFFC00130040
2FFFB000002FFFFC00000040
2FFFB0000023FFFC00000040
2FFFE6555561FFFF65555630
2FFFFFFFFA11FFFFFFFFD300
2FFFFFFF8001FFFFFFFC1000
1DFFFFE60000BFFFFF900000
ENDCHAR
STARTCHAR adieresis
ENCODING 228
SWIDTH 830 0
DWIDTH 23 0
BBX 23 31 0 -3
BITMAP
000000154444305444440000
000002C000005A3000031000
00002DD000006F2000022000
0003EFD004006F2022022000
000DFFD001006F2011022000
000FFFD000006F2000022000
000FFFF200008F5000040000
000FFFFFFFFFFFFFFFE30000
000FFFFFA322222223600000
000CFFFF1000000000320000
00001AFA0015444500040000
00008FF40050000150040000
0000EFD00220000050013000
0005FF7005007F3014004000
000BFF201400DF8005003100
002FFB005003FFD002300400
007FF5005007FFF200500400
00DFF1014008BBB500500310
04FFD0031000000000320040
09FFB0040000000000230040
0DFFB0044444444444530040
1FFFB0040000000000130040
2FFFB0040015555400130040
2FFFB004002FFFFC00130040
2FFFB004002FFFFC00130040
2FFFB000002FFFFC00000040
2FFFB0000023FFFC00000040
2FFFE6555561FFFF65555630
2FFFFFFFFA11FFFFFFFFE300
2FFFFFFF8001FFFFFFFC2000
1DFFFFE60000BFFFFF910000
ENDCHAR
STARTCHAR aring
ENCODING 229
SWIDTH 830 0
DWIDTH 23 0
BBX 23 31 0 -3
BITMAP
000000000144444441000000
000000004300000004500000
000000180014444510140000
000002C70250000051040000
00003EF50400CFC004040000
0001EFF50402FFF204040000
0005FFF70401FFF104040000
0007FFFC0250352051040000
0008FFFF1025444520220000
0008FFFA0000000000040000
0005FFF40015444500040000
0001EFE00050000150013000
0000EF800220000050005000
0005FF3005008F3014004100
000BFC001400DF8005000400
002FF7005003FFD002300500
008FF2005007FFF200500410
00DFE0014008BBB500500140
04FFC0031000000000320040
09FFB0040000000000230040
0DFFB0044444444444530040
1FFFB0040000000000130040
2FFFB0040015555400130040
2FFFB004002FFFFC00130040
2FFFB004002FFFFC00130040
2FFFB000002FFFFC00000040
2FFFB0000023FFFC00000040
2FFFE6555561FFFF65555520
2FFFFFFFFA11FFFFFFFFD200
2FFFFFFF8001FFFFFFFB1000
1DFFFFE60000BFFFFF900000
ENDCHAR
STARTCHAR ae
ENCODING 230
SWIDTH 1105 0
DWIDTH 31 0
BBX 31 24 0 -3
BITMAP
00000001544444444444444444444510
0000002C100000000000000000000040
000003E9000000000000000000000040
00005FF4003444444464444444420040
0000DFD0005000000040000000000040
0004FF80051000000040000000000320
000AFF2006006FF8004002FFFFFFE400
001EFC002400BFF8004002FFFFFD3000
005FF7006002FFF80040003333360000
00BFF2007007FFF80040000000040000
01FFE003300ADDD70054444441040000
06FFC005000000000040000000040000
0BFFB004000000000040000000040000
0FFFB00544444444447001BBBBA40000
2FFFB00400000000004002FFFE300000
2FFFB00400155553004001AAA6444500
2FFFB004002FFFF80040000000000140
2FFFB003002FFFF80034444444420040
2FFFB000002FFFF80000000000000040
2FFFB0000027FFF80000000000000040
2FFFE6555565FFFD5555555555555710
2FFFFFFFFA15FFFFFFFFFFFFFFFFD200
2FFFFFFF8005FFFFFFFFFFFFFFFB1000
0DFFFFE50002EFFFFFFFFFFFFF800000
ENDCHAR
STARTCHAR ccedilla
ENCODING 231
SWIDTH 728 0
DWIDTH 20 0
BBX 20 28 0 -7
BITMAP
00000003444444444445
00000152000000000004
00001800034444444004
0003D400420000000004
004EF000400000000004
02EFD001300055555555
09FFD0022009FFFFFF70
0DFFD002200BFFFFE500
0FFFD002200CFFFD3000
1FFFD002200400000000
1FFFD002200400000000
1FFFD002200400000000
1FFFD002200400000000
1FFFD002200400000000
1FFFD001300400000000
1FFFE000400244444443
1FFFF100420000000005
0FFFF700034444644004
0EFFFE30000001400004
0AFFFFE7200004000005
04FFFFFFFD6004008AA8
00AFFFFFFF300101FF80
0009FFFFFD000006E500
000038CFFB00001A2000
000000AFFFFFFFA10000
000001EFFFFFF7000000
000003FFFFFE40000000
00000045555100000000
ENDCHAR
STARTCHAR egrave
ENCODING 232
SWIDTH 754 0
DWIDTH 21 0
BBX 20 31 1 -3
BITMAP
000006B9764200000000
00009B23579BCDBA7100
001BF800100000136600
01DFF800344444300400
06FFF800000000000400
06FFFC42100000000400
06FFFFFFFECA86430100
05FF8444444444444453
01BF2000000000000004
03DF2000000000000004
4EFF2005444444443004
BFFF2004000000000004
BFFF2004001333333343
BFFF2004009FFFFFFE40
BFFF2004009FFFFFE300
BFFF2004000000004100
BFFF2004000000002300
BFFF2006444444202300
BFFF2004000000002300
BFFF2004000000003100
BFFF2004008DDDDD6000
BFFF2004009FFFE50000
BFFF2004006AAA744451
BFFF2004000000000004
BFFF2005444444443004
BFFF2000000000000004
BFFF2000000000000004
BFFF9555555555555563
BFFFFFFFFFFFFFFFFE40
BFFFFFFFFFFFFFFFC200
7FFFFFFFFFFFFFFA1000
ENDCHAR
STARTCHAR eacute
ENCODING 233
SWIDTH 754 0
DWIDTH 21 0
BBX 20 31 1 -3
BITMAP
0000000000013568AA10
00000048ACDCA8643350
000007B4210000010040
00009F50144444410040
001BFF50000000000030
008FFF50000000013100
008FFF823579BDEF5000
008F8444444444444453
009F2000000000000004
06FF2000000000000004
6FFF2005444444443004
BFFF2004000000000004
BFFF2004001333333343
BFFF2004009FFFFFFE40
BFFF2004009FFFFFE300
BFFF2004000000004100
BFFF2004000000002300
BFFF2006444444202300
BFFF2004000000002300
BFFF2004000000003100
BFFF2004008DDDDD6000
BFFF2004009FFFE50000
BFFF2004006AAA744451
BFFF2004000000000004
BFFF2005444444443004
BFFF2000000000000004
BFFF2000000000000004
BFFF9555555555555563
BFFFFFFFFFFFFFFFFE40
BFFFFFFFFFFFFFFFC200
7FFFFFFFFFFFFFFA1000
ENDCHAR
STARTCHAR ecircumflex
ENCODING 234
SWIDTH 754 0
DWIDTH 21 0
BBX 20 32 1 -3
BITMAP
00000000014442000000
00000004540003540000
00000362000000015400
00005C00025453000400
0008FC00330002400400
009FFC00000000000400
01FFFC0048CFD9510400
02FFFFBEFFFFFFFFB500
02FF8444444444444453
01FF2000000000000004
0AFF2000000000000004
8FFF2005444444443004
BFFF2004000000000004
BFFF2004001333333343
BFFF2004009FFFFFFE40
BFFF2004009FFFFFE300
BFFF2004000000004100
BFFF2004000000002300
BFFF2006444444202300
BFFF2004000000002300
BFFF2004000000003100
BFFF2004008DDDDD6000
BFFF2004009FFFE50000
BFFF2004006AAA744451
BFFF2004000000000004
BFFF2005444444443004
BFFF2000000000000004
BFFF2000000000000004
BFFF9555555555555563
BFFFFFFFFFFFFFFFFE40
BFFFFFFFFFFFFFFFC200
7FFFFFFFFFFFFFFA1000
ENDCHAR
STARTCHAR edieresis
ENCODING 235
SWIDTH 754 0
DWIDTH 21 0
BBX 20 31 1 -3
BITMAP
00000444445134444420
00007700000890000040
0008F600000DA0000040
009FF600400DA0040040
06FFF600100DA0010040
08FFF600000DA0000030
08FFF900001EC0000320
08FFFFFFFFFFFFFFFFE3
08FF7222222222222236
05FF2000000000000004
1BFF2005444444443004
AFFF2004000000000004
BFFF2004001333333333
BFFF2004009FFFFFFE40
BFFF2004009FFFFFE300
BFFF2004000000004100
BFFF2004000000002300
BFFF2006444444202300
BFFF2004000000002300
BFFF2004000000003100
BFFF2004008DDDDD6000
BFFF2004009FFFE50000
BFFF2004006AAA744451
BFFF2004000000000004
BFFF2005444444443004
BFFF2000000000000004
BFFF2000000000000004
BFFF9555555555555563
BFFFFFFFFFFFFFFFFE40
BFFFFFFFFFFFFFFFC200
7FFFFFFFFFFFFFFA1000
ENDCHAR
STARTCHAR igrave
ENCODING 236
SWIDTH 705 0
DWIDTH 20 0
BBX 19 31 0 -3
BITMAP
000003BA864210000000
00005E23578ACDCA8300
0008FC00100000135900
00AFFC00244444400400
01FFFC00000000000400
01FFFE53100000000400
01FFFFFFFECB97531000
01FFE544444444444450
007EB000000000000040
007FB000000000000040
09FFB003444644441040
2FFFB000000400000040
3FFFC000000400000040
3FFFFDCC6004001CCB20
3FFFFFFF7004001FC100
2FFFFFFF7004001B1000
0688BFFF700400130000
00006FFF700400130000
00006FFF700400130000
00006FFF700400130000
00006FFF700400130000
00006FFF700400130000
00006AAA500400154440
0005A000000400000040
008FB003444644441040
0AFFB000000000000040
2FFFB000000000000040
3FFFE655555555555560
3FFFFFFFFFFFFFFFFA10
3FFFFFFFFFFFFFFF7000
1DFFFFFFFFFFFFD40000
ENDCHAR
STARTCHAR iacute
ENCODING 237
SWIDTH 705 0
DWIDTH 20 0
BBX 19 31 0 -3
BITMAP
0000000000024679B600
0000017ABDCB97532700
00002C63100000100400
0004EC00344444300400
006FFC00000000000300
01FFFC00000000122100
01FFFE23468ACEFB1000
01FFE544444444444450
01FFB000000000000040
00EFB000000000000040
07FFB003444644441040
2FFFB000000400000040
3FFFC000000400000040
3FFFFDCC6004001CCB20
3FFFFFFF7004001FC100
2FFFFFFF7004001B1000
0688BFFF700400130000
00006FFF700400130000
00006FFF700400130000
00006FFF700400130000
00006FFF700400130000
00006FFF700400130000
00006AAA500400154440
0005A000000400000040
008FB003444644441040
0AFFB000000000000040
2FFFB000000000000040
3FFFE655555555555560
3FFFFFFFFFFFFFFFFA10
3FFFFFFFFFFFFFFF7000
1DFFFFFFFFFFFFD40000
ENDCHAR
STARTCHAR icircumflex
ENCODING 238
SWIDTH 705 0
DWIDTH 20 0
BBX 19 32 0 -3
BITMAP
00000000004442000000
00000002440003540000
00000252000000015400
00002B00015453000400
0003EC00330002500400
004EFC00000000000400
00EFFC0038CFD9510400
01FFFFBEFFFFFFFFB500
01FFE544444444444450
01FFB000000000000040
01FFB000000000000040
06FFB003444644441040
2FFFB000000400000040
3FFFC000000400000040
3FFFFDCC6004001CCB20
3FFFFFFF7004001FC100
2FFFFFFF7004001B1000
0688BFFF700400130000
00006FFF700400130000
00006FFF700400130000
00006FFF700400130000
00006FFF700400130000
00006FFF700400130000
00006AAA500400154440
0005A000000400000040
008FB003444644441040
0AFFB000000000000040
2FFFB000000000000040
3FFFE655555555555560
3FFFFFFFFFFFFFFFFA10
3FFFFFFFFFFFFFFF7000
1DFFFFFFFFFFFFD40000
ENDCHAR
STARTCHAR idieresis
ENCODING 239
SWIDTH 705 0
DWIDTH 20 0
BBX 19 31 0 -3
BITMAP
00000544444044444510
0000A300003860000040
001BF200002F60000040
01CFF202202F60040040
0AFFF200102F60010040
0BFFF200002F60000030
0CFFF500005F80000400
0CFFFFFFFFFFFFFFFF90
0BFFD322222222222280
08FFB000000000000040
06FFB003444644441040
2FFFB000000400000040
3FFFC000000400000030
3FFFFDCC6004001CCB20
3FFFFFFF7004001FC100
2FFFFFFF7004001B1000
0688BFFF700400130000
00006FFF700400130000
00006FFF700400130000
00006FFF700400130000
00006FFF700400130000
00006FFF700400130000
00006AAA500400154440
0005A000000400000040
008FB003444644441040
0AFFB000000000000040
2FFFB000000000000040
3FFFE655555555555560
3FFFFFFFFFFFFFFFFA10
3FFFFFFFFFFFFFFF7000
1DFFFFFFFFFFFFD40000
ENDCHAR
STARTCHAR eth
ENCODING 240
SWIDTH 856 0
DWIDTH 24 0
BBX 25 24 -1 -3
BITMAP
00000164444444444444410000
00002C70000000000000044000
0003EF70000000000000004300
003EFF70044444444440000500
007FFF70040000000005100500
007FFF70040026665000500400
007FFF7004004FFFF500400410
007FFF7004004FFFF700400410
007FD1000400005FF700400410
007FC0000400002FF700400410
03EFC0034744102FF700400410
1EFFC0000400002FF700400410
2FFFD1000400005FF700400410
2FFFFF7004004FFFF600400410
2FFFFF7004004AFFF300400410
1EFFFF70040012221000500400
018FFF70040000000005200400
007FFF70044444444441000500
007FFF70000000000000004200
007FFF70000000000000043000
007FFFC5555555555569B20000
007FFFFFFFFFFFFFFFFB100000
007FFFFFFFFFFFFFFF90000000
003EFFFFFFFFFFEC9300000000
ENDCHAR
STARTCHAR ntilde
ENCODING 241
SWIDTH 853 0
DWIDTH 24 0
BBX 22 30 1 -3
BITMAP
0000000244444421354000
0000006300000023204000
00001AD000100000004000
0002DFD002344444004000
000EFFD000000000002000
000FFFE358975310211000
000F84445CFFFFF9444444
003F200001DFFFF2000004
05EF2000002DEFF2000004
5FFF20072003EFF2004004
BFFF200441006FF2004004
BFFF2004051008F2004004
BFFF2004005000A2004004
BFFF200400050011004004
BFFF200400015000004004
BFFF200400002400004004
BFFF200400200230004004
BFFF200400940033004004
BFFF2004009E2004204004
BFFF2004009FC100414004
BFFF2004009FFA00055004
BFFF2004009FFF80005004
BFFF2004009FFFF2004004
BFFF2004009FFFF2004004
BFFF2001009FFFF2001004
BFFF2000004CFFF2000004
BFFF9555554BFFF9555553
BFFFFFFFE50BFFFFFFFE50
BFFFFFFD300BFFFFFFD300
7FFFFFB10007FFFFFB1000
ENDCHAR
STARTCHAR ograve
ENCODING 242
SWIDTH 837 0
DWIDTH 23 0
BBX 23 32 0 -3
BITMAP
000000001000000000000000
0000000AFECB975310000000
000001CC23579BCEFEC40000
00003DFA0044310013580000
0001EFFA0000134440040000
0004FFFA0000000000040000
0004FFFD5310000000030000
0004FFFFFDB8532001120000
0002FFF93000000000253000
000028300000000000003400
000066000044444440000400
0008F1002500000004200140
00AFE0005000000000500040
06FFD0013006EFE700220040
0CFFD002200CFFFD00130040
0FFFD002200CFFFE00130040
1FFFD002200AFFFE00130040
1FFFD0022004FFFE00130040
1FFFD0022004FFFE00130040
1FFFD0022004FFFE00130040
1FFFD0022004FFFE00130040
1FFFD0022004FFFE00130040
1FFFD0013005FFFA00220040
1FFFD0005000232000500040
1FFFF1002510000015200040
0FFFF5000044444440000410
0EFFFD200000000000001500
0BFFFFE61000000000055000
05FFFFFFEB8765668BE50000
009FFFFFFFFFFFFFFD300000
0007EFFFFFFFFFFFA1000000
000016ADEFFEDB8300000000
ENDCHAR
STARTCHAR oacute
ENCODING 243
SWIDTH 837 0
DWIDTH 23 0
BBX 23 32 0 -3
BITMAP
000000000000000000100000
000000000024689BDFF70000
00000006DFFECB9753270000
0000008D5310013440040000
00001BFA0044431000040000
0001CFFA0000000000010000
0004FFFA0000000012420000
0004FFFC21002358B8300000
0004FFF93000000000253000
0003FE300000000000003400
0000C7000044444440000510
0007F1002500000004200140
009FE0005000000000500040
06FFD0013006EFE700220040
0CFFD002200CFFFD00130040
0FFFD002200CFFFE00130040
1FFFD002200AFFFE00130040
1FFFD0022004FFFE00130040
1FFFD0022004FFFE00130040
1FFFD0022004FFFE00130040
1FFFD0022004FFFE00130040
1FFFD0022004FFFE00130040
1FFFD0013005FFFA00220040
1FFFD0005000232000500040
1FFFF1002510000015200040
0FFFF5000044444440000410
0EFFFD200000000000001400
0BFFFFE61000000000055000
05FFFFFFEB8765668BE50000
009FFFFFFFFFFFFFFD300000
0007EFFFFFFFFFFFA1000000
000016ADEFFEDB8200000000
ENDCHAR
STARTCHAR ocircumflex
ENCODING 244
SWIDTH 837 0
DWIDTH 23 0
BBX 23 32 0 -3
BITMAP
000000000001444100000000
000000000454000354000000
000000046100000001530000
0000007A0002545200040000
000009FA0043000340040000
0000AFFA0000000000040000
0003FFFA0048DFD840040000
0004FFFEBEFEEDEEFEB30000
0004FFFD8410000013651000
0003FF800000000000006200
0001D9000044444440000500
0007F2002500000004200130
009FE0005000000000500040
05FFD0013006EFE700220040
0CFFD002200CFFFD00130040
0FFFD002200CFFFE00130040
1FFFD002200AFFFE00130040
1FFFD0022004FFFE00130040
1FFFD0022004FFFE00130040
1FFFD0022004FFFE00130040
1FFFD0022004FFFE00130040
1FFFD0022004FFFE00130040
1FFFD0013005FFFA00220040
1FFFD0005000232000500040
1FFFF0002510000015200040
0FFFF5000044444440000410
0EFFFD200000000000001500
0BFFFFE61000000000056000
05FFFFFFEB8665668AE50000
009FFFFFFFFFFFFFFE300000
0007EFFFFFFFFFFFB2000000
000016ADEFFEDB8300000000
ENDCHAR
STARTCHAR otilde
ENCODING 245
SWIDTH 837 0
DWIDTH 23 0
BBX 23 31 0 -3
BITMAP
000000002544442003620000
000000073000002453050000
000000AA0000000000040000
00001CFA0055542000040000
0001DFFA0000003540040000
0004FFFA0000000000040000
0004FFFC37AA863103510000
0004FFFFFB9766679B510000
0003FFE61000000000155000
0000BD200044444440001500
0007F5002500000004200310
009FF0005000000000500040
05FFD0013006EFE700220040
0CFFD002200CFFFD00130040
0FFFD002200CFFFE00130040
1FFFD002200AFFFE00130040
1FFFD0022004FFFE00130040
1FFFD0022004FFFE00130040
1FFFD0022004FFFE00130040
1FFFD0022004FFFE00130040
1FFFD0022004FFFE00130040
1FFFD0013005FFFA00220040
1FFFD0005000232000500040
1FFFF0002510000015200050
0FFFF4000044444440000320
0EFFFD100000000000001600
0BFFFFD50000000000057000
05FFFFFFEB8665668AE60000
009FFFFFFFFFFFFFFE400000
0007EFFFFFFFFFFFB2000000
000016ADEFFEDB8300000000
ENDCHAR
STARTCHAR odieresis
ENCODING 246
SWIDTH 837 0
DWIDTH 23 0
BBX 23 31 0 -3
BITMAP
000000154444404444450000
000002C00000494000023000
00003EF000004F3000013000
0005FFF004004F3013013000
000DFFF001004F3001013000
000EFFF000004F3000013000
000EFFF200007F6000031000
000EFFFFFFECBBBCEFE30000
000DFFFB5100000001574000
0002AF500044444440004500
0007F7002500000004200500
009FF1005000000000500140
05FFD0013006EFE700220040
0CFFD002200CFFFD00130040
0FFFD002200CFFFE00130040
1FFFD002200AFFFE00130040
1FFFD0022004FFFE00130040
1FFFD0022004FFFE00130040
1FFFD0022004FFFE00130040
1FFFD0022004FFFE00130040
1FFFD0022004FFFE00130040
1FFFD0013005FFFA00220040
1FFFD0005000232000500040
1FFFE0002510000015200050
0FFFF4000044444440000320
0EFFFC100000000000001600
0BFFFFD50000000000057000
05FFFFFFEA8665668AE70000
009FFFFFFFFFFFFFFE400000
0007EFFFFFFFFFFFB2000000
000016ADEFFEDB8300000000
ENDCHAR
STARTCHAR divide
ENCODING 247
SWIDTH 834 0
DWIDTH 23 0
BBX 22 22 1 -2
BITMAP
0000000004444444000000
00000000A4000004000000
0000001BF3000004100000
000001CFF3004004100000
000009FFF3001004100000
00000AFFF4000004000000
00000AFFFB777775000000
000058AAAAAAAA94444440
001B300000000000000031
03DF301444444444441031
5FFF300000000000000031
BFFF500000000000000040
BFFFFFFFFFFFFFFFFFFD30
BFFFFFFFF8222228FFB100
8FFFFFFFF3000004F80000
011112CFF3004004100000
000009FFF3001004100000
00000AFFF3000004000000
00000AFFF9555554000000
00000AFFFFFFFF80000000
00000AFFFFFFF600000000
000006FFFFFE4000000000
ENDCHAR
STARTCHAR oslash
ENCODING 248
SWIDTH 837 0
DWIDTH 23 0
BBX 23 29 0 -5
BITMAP
000000000000000044445000
000000000000000600002300
000000000000003800004000
000000015555555200005000
000000440000000004005100
000017100144444441000500
0002C4004400000011100220
003EE0024000000100010040
02EFD005001AEA0100030040
0AFFD004005FF41100040040
0EFFD004005FC01000040040
0FFFD004005F601040040040
1FFFD004005E110370040040
1FFFD0040059010970040040
1FFFD0040052101F70040040
1FFFD0040020107F70040040
1FFFD004000010DF70040040
1FFFD004000105FF60040040
1FFFE001100108B800420040
1FFFF1001110000004500050
0FFFF7000244544541000520
0EFFFF500410000000002700
0CFFFFD00200000000288000
07FFFF7000038899BDF60000
01DFFF30000BFFFFFE300000
002FFFECCCDFFFFFB2000000
005FFFFFFFFEDB8300000000
00BFFFFF6000000000000000
003777730000000000000000
ENDCHAR
STARTCHAR ugrave
ENCODING 249
SWIDTH 846 0
DWIDTH 24 0
BBX 22 31 1 -3
BITMAP
0000006B98642000000000
000009B23579BCDBA71000
0001BF8001000001366000
001DFF8003444443004000
006FFF8000000000004000
006FFFC421000000004000
006FFFFFFFECA864301000
005F744445DFFFF7444444
006F0000009FFFF1000004
09FF00010056EFF1001004
9FFF00040049FFF1004004
DFFF0004004DFFF1004004
DFFF0004004DFFF1004004
DFFF0004004DFFF1004004
DFFF0004004DFFF1004004
DFFF0004004DFFF1004004
DFFF0004004DFFF1004004
DFFF0004004DFFF1004004
DFFF0004004DFFF1004004
DFFF0004004DFFF1004004
DFFF0004004DFFF0004004
DFFF0004002ACC70004004
DFFF100500000000041004
DFFF300151000000430004
DFFF700003444444100032
BFFFE30000000000000160
8FFFFE7100000000005700
2FFFFFFFB9765668AE6000
07FFFFFFFFFFFFFFE40000
006EFFFFFFFFFFFB200000
00016ACEFFEDB830000000
ENDCHAR
STARTCHAR uacute
ENCODING 250
SWIDTH 846 0
DWIDTH 24 0
BBX 22 31 1 -3
BITMAP
00000000000013579B9000
000000069BCDB986427100
000001A842000001103100
00002CF102444443103100
0003DFF100000000003000
000CFFF100000000231000
000CFFF524689BDFD30000
000C744445DFFFF7444444
006F0000008CADF1000004
09FF000100409FF1001004
9FFF00040049FFF1004004
DFFF0004004DFFF1004004
DFFF0004004DFFF1004004
DFFF0004004DFFF1004004
DFFF0004004DFFF1004004
DFFF0004004DFFF1004004
DFFF0004004DFFF1004004
DFFF0004004DFFF1004004
DFFF0004004DFFF1004004
DFFF0004004DFFF1004004
DFFF0004004DFFF0004004
DFFF0004002ACC70004004
DFFF100500000000041004
DFFF300151000000430004
DFFF700003444444100032
BFFFE30000000000000160
8FFFFE7100000000005700
2FFFFFFFB9765668AE6000
07FFFFFFFFFFFFFFE40000
006EFFFFFFFFFFFB200000
00016ACEFFEDB830000000
ENDCHAR
STARTCHAR ucircumflex
ENCODING 251
SWIDTH 846 0
DWIDTH 24 0
BBX 22 32 1 -3
BITMAP
0000000000144420000000
0000000034300023300000
0000002300000000023000
000004B000354430004000
00006FC003200013004000
0007FFC000047510004000
001FFFD36BEFFFFC736000
002FFFFFFFFFFFFFFF6000
002F744445DFFFF7444444
006F0000008EFFF1000004
08FF00010040BFF1001004
9FFF00040049FFF1004004
DFFF0004004DFFF1004004
DFFF0004004DFFF1004004
DFFF0004004DFFF1004004
DFFF0004004DFFF1004004
DFFF0004004DFFF1004004
DFFF0004004DFFF1004004
DFFF0004004DFFF1004004
DFFF0004004DFFF1004004
DFFF0004004DFFF1004004
DFFF0004004DFFF1004004
DFFF0004003CFEA0004004
DFFF100500000000041004
DFFF300151000000430004
DFFF700003444444100032
BFFFE30000000000000160
8FFFFE7100000000005700
2FFFFFFFB9765668AE6000
07FFFFFFFFFFFFFFE40000
006EFFFFFFFFFFFB200000
00016ACEFFEDB830000000
ENDCHAR
STARTCHAR udieresis
ENCODING 252
SWIDTH 846 0
DWIDTH 24 0
BBX 22 31 1 -3
BITMAP
0000005444440444445100
00001C2000038600000400
0002DF200002F500000400
004EFF202202F500400400
00BFFF201102F500100400
00CFFF200002F500000300
00CFFF400005F800004000
00CFFFFFFFFFFFFFFFFFF5
00DF522222CFFFF5222237
1CFF0000009FFFF1000004
BFFF00020054EFF1002004
DFFF0004004BFFF1004004
DFFF0004004DFFF1004004
DFFF0004004DFFF1004004
DFFF0004004DFFF1004004
DFFF0004004DFFF1004004
DFFF0004004DFFF1004004
DFFF0004004DFFF1004004
DFFF0004004DFFF1004004
DFFF0004004DFFF1004004
DFFF0004004DFFF1004004
DFFF0004003CEE90004004
DFFF100500000000041004
DFFF200151000000440004
DFFF700004444444100022
BFFFE20000000000000050
8FFFFE6100000000004600
2FFFFFFFB8765668AD6000
07FFFFFFFFFFFFFFE40000
005EFFFFFFFFFFFB200000
000059CEFFEDB830000000
ENDCHAR
STARTCHAR yacute
ENCODING 253
SWIDTH 805 0
DWIDTH 23 0
BBX 22 31 0 -3
BITMAP
00000000000012468AB200
000000038ACDCA87532600
0000005B53100000100400
000007F700444444200400
0000AFF700000000000300
0005FFF700000000130000
0006FFFA23579BCEF70000
0006C444449FFFFC444445
001C7000003ECBF8000004
02DF700000312DF8000004
2EFF70040033DFF8004004
6FFF70040037FFF8004004
6FFF70040037FFF8004004
6FFF70040027FFF7004004
6FFF8004000AFFF3005004
6FFF90013004FF80013005
6FFFE10041008C10050005
6FFFFA0005000000410050
4FFFFF5001400002200330
0EFFFFE200320014001400
05FFFFFC00035640005000
009FFFFF80000400041000
000CFFFFF4000400230000
0002EFFFFC000400400000
00006FFFFC000400400000
00000AFFFC000100400000
000001FFFD000000400000
000001FFFF655555400000
000001FFFFFFFFF6000000
000001FFFFFFFE40000000
000000CFFFFFC200000000
ENDCHAR
STARTCHAR thorn
ENCODING 254
SWIDTH 792 0
DWIDTH 22 0
BBX 21 24 1 -3
BITMAP
0002644444400000000000
004E200000400000000000
06FF200000400000000000
6FFF200400244444441000
BFFF200400000000005200
BFFF200744444443000600
BFFF200400000001500140
BFFF200400000000220040
BFFF200400244200040040
BFFF2004008FFF20040040
BFFF2004008FFF40040040
BFFF2004008FFF40040040
BFFF2004008FFD10040040
BFFF200400000000220040
BFFF200400000001500140
BFFF200744444443000600
BFFF200400000000005200
BFFF2004002555679A1000
BFFF2001007FFFFF900000
BFFF2000007FFFF6000000
BFFF955555CEC820000000
BFFFFFFFE5000000000000
BFFFFFFE30000000000000
7FFFFFC200000000000000
ENDCHAR
STARTCHAR ydieresis
ENCODING 255
SWIDTH 805 0
DWIDTH 23 0
BBX 22 31 0 -3
BITMAP
0000003444442244444300
0000068000006B00000400
00008F800000BC00000400
000AFF800400BC00400400
005FFF800100BC00100400
006FFF800000BC00000300
006FFFB00001DE10002300
006FFFFFFFFFFFFFFFFFFA
006FB222227FFFFB222228
04EF7000003FFFF8000004
3FFF700200359FF8002004
6FFF70040035FFF8004004
6FFF70040037FFF8004004
6FFF70040037FFF8004004
6FFF70040019FFF5004004
6FFF80032007FFB0005003
6FFFC0005000BE20050002
6FFFF60005001100320010
4FFFFF3002300002300110
0DFFFFD100420015000300
04FFFFFA00035640003000
009FFFFF70000400031000
000CFFFFF4000400230000
0002EFFFFC000400400000
00006FFFFC000400400000
00000AFFFC000100400000
000001FFFD000000400000
000001FFFF655555400000
000001FFFFFFFFF6000000
000001FFFFFFFE40000000
000000CFFFFFC200000000
ENDCHAR
STARTCHAR Amacron
ENCODING 256
SWIDTH 830 0
DWIDTH 23 0
BBX 23 30 0 -3
BITMAP
000000034444444444420000
000000590000000000040000
000006F80044444430040000
00008FF80000000000040000
0004FFF80000000000040000
0005FFFB0000000000140000
0005FFFFFFFFFFFFFF900000
0005FFFFA322222223500000
0002EFFF1000000000320000
00001AFA0015444500040000
00008FF40050000150040000
0000EFD00220000050014000
0005FF7005007F3014004000
000BFF201400DF8005003100
002FFB005003FFD002300400
007FF5005007FFF200500400
00DFF1014008BBB500500320
04FFD0031000000000320040
09FFB0040000000000230040
0DFFB0044444444444530040
1FFFB0040000000000130040
2FFFB0040015555400130040
2FFFB004002FFFFC00130040
2FFFB004002FFFFC00130040
2FFFB000002FFFFC00000040
2FFFB0000023FFFC00000040
2FFFE6555561FFFF65555630
2FFFFFFFFA11FFFFFFFFE300
2FFFFFFF8001FFFFFFFC2000
1DFFFFE60000BFFFFF910000
ENDCHAR
STARTCHAR amacron
ENCODING 257
SWIDTH 830 0
DWIDTH 23 0
BBX 23 30 0 -3
BITMAP
000000034444444444420000
000000590000000000040000
000006F80044444430040000
00008FF80000000000040000
0004FFF80000000000040000
0005FFFB0000000000140000
0005FFFFFFFFFFFFFF900000
0005FFFFA322222223500000
0002EFFF1000000000320000
00001AFA0015444500040000
00008FF40050000150040000
0000EFD00220000050014000
0005FF7005007F3014004000
000BFF201400DF8005003100
002FFB005003FFD002300400
007FF5005007FFF200500400
00DFF1014008BBB500500320
04FFD0031000000000320040
09FFB0040000000000230040
0DFFB0044444444444530040
1FFFB0040000000000130040
2FFFB0040015555400130040
2FFFB004002FFFFC00130040
2FFFB004002FFFFC00130040
2FFFB000002FFFFC00000040
2FFFB0000023FFFC00000040
2FFFE6555561FFFF65555630
2FFFFFFFFA11FFFFFFFFE300
2FFFFFFF8001FFFFFFFC2000
1DFFFFE60000BFFFFF910000
ENDCHAR
STARTCHAR Abreve
ENCODING 258
SWIDTH 830 0
DWIDTH 23 0
BBX 23 32 0 -3
BITMAP
000000044445001544430000
00000076000222C200040000
000008F501018EF101040000
00009FF60500353005040000
0006FFF70250000052030000
0008FFFB0014444410010000
0008FFFF6000000000200000
0006FFFFFB52101250000000
0003FFFFFFFFFFFFFE700000
0000AFFF8100000001A10000
000007EE1000000000260000
000009F90015444500080000
00008FF30050000150052000
0000EFD00220000050007000
0005FF7005007F3014007000
000BFF101400DF8005002400
002FFA005003FFD002300700
007FF5005007FFF200500600
00DFF1014008BBB500500230
04FFC0031000000000320050
09FFB0040000000000230040
0DFFB0044444444444530040
1FFFB0040000000000130040
2FFFB0040015555400130040
2FFFB004002FFFFC00130040
2FFFB004002FFFFC00130040
2FFFB000002FFFFC00000040
2FFFB0000023FFFC00000040
2FFFE6555561FFFF65555520
2FFFFFFFFA11FFFFFFFFD300
2FFFFFFF8001FFFFFFFB1000
1DFFFFE60000BFFFFF900000
ENDCHAR
STARTCHAR abreve
ENCODING 259
SWIDTH 830 0
DWIDTH 23 0
BBX 23 32 0 -3
BITMAP
000000044445001544430000
00000076000222C200040000
000008F501018EF101040000
00009FF60500353005040000
0006FFF70250000052030000
0008FFFB0014444410010000
0008FFFF6000000000200000
0006FFFFFB52101250000000
0003FFFFFFFFFFFFFE700000
0000AFFF8100000001A10000
000007EE1000000000260000
000009F90015444500080000
00008FF30050000150052000
0000EFD00220000050007000
0005FF7005007F3014007000
000BFF101400DF8005002400
002FFA005003FFD002300700
007FF5005007FFF200500600
00DFF1014008BBB500500230
04FFC0031000000000320050
09FFB0040000000000230040
0DFFB0044444444444530040
1FFFB0040000000000130040
2FFFB0040015555400130040
2FFFB004002FFFFC00130040
2FFFB004002FFFFC00130040
2FFFB000002FFFFC00000040
2FFFB0000023FFFC00000040
2FFFE6555561FFFF65555520
2FFFFFFFFA11FFFFFFFFD300
2FFFFFFF8001FFFFFFFB1000
1DFFFFE60000BFFFFF900000
ENDCHAR
STARTCHAR Aogonek
ENCODING 260
SWIDTH 830 0
DWIDTH 23 0
BBX 23 30 0 -9
BITMAP
000000005444444445400000
000000092000000000410000
000000AC0000000000040000
00000AF60015444500040000
00008FE10050000150022000
0000EFA00220000050004000
0005FF4005007F3014004000
000BFD001400DF8005001400
002FF8005003FFD002300400
007FF3005007FFF200500400
00DFE0014008BBB500500130
04FFC0031000000000320040
09FFB0040000000000230040
0DFFB0044444444444530040
1FFFB0040000000000130040
2FFFB0040015555400130040
2FFFB004002FFFFC00130040
2FFFB004002FFFFC00230040
2FFFB000002FFFFC00500040
2FFFB0000023FFFB02200040
2FFFE6555561FFF804004420
2FFFFFFFFA11FFF604006410
2FFFFFFF8003FFF404000040
1DFFFFE60005FFF303530040
000000000008FFF600000040
00000000000AFFFE51000130
00000000000AFFFFFFFFF700
000000000006FFFFFFFF5000
000000000000BFFFFFE40000
000000000000035555200000
ENDCHAR
STARTCHAR aogonek
ENCODING 261
SWIDTH 830 0
DWIDTH 23 0
BBX 23 30 0 -9
BITMAP
000000005444444445400000
000000092000000000410000
000000AC0000000000040000
00000AF60015444500040000
00008FE10050000150022000
0000EFA00220000050004000
0005FF4005007F3014004000
000BFD001400DF8005001400
002FF8005003FFD002300400
007FF3005007FFF200500400
00DFE0014008BBB500500130
04FFC0031000000000320040
09FFB0040000000000230040
0DFFB0044444444444530040
1FFFB0040000000000130040
2FFFB0040015555400130040
2FFFB004002FFFFC00130040
2FFFB004002FFFFC00230040
2FFFB000002FFFFC00500040
2FFFB0000023FFFB02200040
2FFFE6555561FFF804004420
2FFFFFFFFA11FFF604006410
2FFFFFFF8003FFF404000040
1DFFFFE60005FFF303530040
000000000008FFF600000040
00000000000AFFFE51000130
00000000000AFFFFFFFFF700
000000000006FFFFFFFF5000
000000000000BFFFFFE40000
000000000000035555200000
ENDCHAR
STARTCHAR Cacute
ENCODING 262
SWIDTH 728 0
DWIDTH 20 0
BBX 20 31 0 -3
BITMAP
000000000000024679B6
0000000179BDDB975427
0000002C631000001004
000003ED003444443004
00005FFD000000000003
0000FFFD000000000221
0001FFFE22468ACEFB10
0001FFFFB75444444445
0001FFB2000000000004
0000EC10000000000004
00008500034444444004
000AF100520000000004
00BFD000400000000004
06FFD0022006EFFFFFB1
0CFFD002200BFFFFF900
0FFFD002200CFFFF7000
1FFFD002200755530000
1FFFD002200400000000
1FFFD002200400000000
1FFFD002200400000000
1FFFD002200400000000
1FFFD002300400000000
1FFFD000400244444443
1FFFF100510000000004
0FFFF500034444444004
0EFFFC10000000000004
0BFFFFC2000000000004
05FFFFFFB86555555556
00BFFFFFFFFFFFFFFF90
001BFFFFFFFFFFFFF600
00005ADEFFFFFFFD3000
ENDCHAR
STARTCHAR cacute
ENCODING 263
SWIDTH 728 0
DWIDTH 20 0
BBX 20 31 0 -3
BITMAP
000000000000024679B6
0000000179BDDB975427
0000002C631000001004
000003ED003444443004
00005FFD000000000003
0000FFFD000000000221
0001FFFE22468ACEFB10
0001FFFFB75444444445
0001FFB2000000000004
0000EC10000000000004
00008500034444444004
000AF100520000000004
00BFD000400000000004
06FFD0022006EFFFFFB1
0CFFD002200BFFFFF900
0FFFD002200CFFFF7000
1FFFD002200755530000
1FFFD002200400000000
1FFFD002200400000000
1FFFD002200400000000
1FFFD002200400000000
1FFFD002300400000000
1FFFD000400244444443
1FFFF100510000000004
0FFFF500034444444004
0EFFFC10000000000004
0BFFFFC2000000000004
05FFFFFFB86555555556
00BFFFFFFFFFFFFFFF90
001BFFFFFFFFFFFFF600
00005ADEFFFFFFFD3000
ENDCHAR
STARTCHAR Ccircumflex
ENCODING 264
SWIDTH 728 0
DWIDTH 20 0
BBX 20 32 0 -3
BITMAP
00000000000344300000
00000000244100255100
00000015200000000450
000001C1001444400040
00002DF0024000151040
0002DFF0000000000040
000CFFF0037BEEA61040
000DFFFBDFFFFFFFFC70
000DFFFFB75444444445
000DFFB2000000000004
000CFC10000000000004
00029500034444444004
001AF100520000000004
00BFD000400000000004
06FFD0022006EFFFFFB1
0CFFD002200BFFFFF900
0FFFD002200CFFFF7000
1FFFD002200755530000
1FFFD002200400000000
1FFFD002200400000000
1FFFD002200400000000
1FFFD002200400000000
1FFFD002300400000000
1FFFD000400244444443
1FFFF100510000000004
0FFFF500034444444004
0EFFFC10000000000004
0BFFFFC2000000000004
05FFFFFFB86555555556
00BFFFFFFFFFFFFFFF90
001BFFFFFFFFFFFFF600
00005ADEFFFFFFFD3000
ENDCHAR
STARTCHAR ccircumflex
ENCODING 265
SWIDTH 728 0
DWIDTH 20 0
BBX 20 32 0 -3
BITMAP
00000000000344300000
00000000244100255100
00000015200000000450
000001C1001444400040
00002DF0024000151040
0002DFF0000000000040
000CFFF0037BEEA61040
000DFFFBDFFFFFFFFC70
000DFFFFB75444444445
000DFFB2000000000004
000CFC10000000000004
00029500034444444004
001AF100520000000004
00BFD000400000000004
06FFD0022006EFFFFFB1
0CFFD002200BFFFFF900
0FFFD002200CFFFF7000
1FFFD002200755530000
1FFFD002200400000000
1FFFD002200400000000
1FFFD002200400000000
1FFFD002200400000000
1FFFD002300400000000
1FFFD000400244444443
1FFFF100510000000004
0FFFF500034444444004
0EFFFC10000000000004
0BFFFFC2000000000004
05FFFFFFB86555555556
00BFFFFFFFFFFFFFFF90
001BFFFFFFFFFFFFF600
00005ADEFFFFFFFD3000
ENDCHAR
STARTCHAR Cdotaccent
ENCODING 266
SWIDTH 728 0
DWIDTH 20 0
BBX 20 31 0 -3
BITMAP
00000000015444443000
000000002C0000004000
00000003EF0003004000
0000005FFF0004004000
000000DFFF0000004000
000000EFFF0000003000
000000EFFF2000022000
000000EFB75444444445
000000A2000000000004
00001810000000000004
0002C500034444444004
003EF100520000000004
01EFD000400000000004
08FFD0022006EFFFFFB1
0DFFD002200BFFFFF900
0FFFD002200CFFFF7000
1FFFD002200755530000
1FFFD002200400000000
1FFFD002200400000000
1FFFD002200400000000
1FFFD002200400000000
1FFFD002300400000000
1FFFD000400244444443
1FFFF100510000000004
0FFFF500034444444004
0EFFFC10000000000004
0BFFFFC2000000000004
05FFFFFFB86555555556
00BFFFFFFFFFFFFFFF90
001BFFFFFFFFFFFFF600
00005ADEFFFFFFFD3000
ENDCHAR
STARTCHAR cdotaccent
ENCODING 267
SWIDTH 728 0
DWIDTH 20 0
BBX 20 31 0 -3
BITMAP
00000000015444443000
000000002C0000004000
00000003EF0003004000
0000005FFF0004004000
000000DFFF0000004000
000000EFFF0000003000
000000EFFF2000022000
000000EFB75444444445
000000A2000000000004
00001810000000000004
0002C500034444444004
003EF100520000000004
01EFD000400000000004
08FFD0022006EFFFFFB1
0DFFD002200BFFFFF900
0FFFD002200CFFFF7000
1FFFD002200755530000
1FFFD002200400000000
1FFFD002200400000000
1FFFD002200400000000
1FFFD002200400000000
1FFFD002300400000000
1FFFD000400244444443
1FFFF100510000000004
0FFFF500034444444004
0EFFFC10000000000004
0BFFFFC2000000000004
05FFFFFFB86555555556
00BFFFFFFFFFFFFFFF90
001BFFFFFFFFFFFFF600
00005ADEFFFFFFFD3000
ENDCHAR
STARTCHAR Ccaron
ENCODING 268
SWIDTH 728 0
DWIDTH 20 0
BBX 20 31 0 -3
BITMAP
00000065443000045570
000009F0001444410040
0001AFF0021000021040
000BFFF0002444410040
000DFFF2000000000020
000DFFFE820000004400
000DFFFFFFB5127D6000
000BFFFFB75444444445
00017DB2000000000004
00000510000000000004
0000A500034444444004
001CF100520000000004
01CFD000400000000004
07FFD0022006EFFFFFB1
0CFFD002200BFFFFF900
0FFFD002200CFFFF7000
1FFFD002200755530000
1FFFD002200400000000
1FFFD002200400000000
1FFFD002200400000000
1FFFD002200400000000
1FFFD002300400000000
1FFFD000400244444443
1FFFF100510000000004
0FFFF500034444444004
0EFFFC10000000000004
0BFFFFC2000000000004
05FFFFFFB86555555556
00BFFFFFFFFFFFFFFF90
001BFFFFFFFFFFFFF600
00005ADEFFFFFFFD3000
ENDCHAR
STARTCHAR ccaron
ENCODING 269
SWIDTH 728 0
DWIDTH 20 0
BBX 20 31 0 -3
BITMAP
00000065443000045570
000009F0001444410040
0001AFF0021000021040
000BFFF0002444410040
000DFFF2000000000020
000DFFFE820000004400
000DFFFFFFB5127D6000
000BFFFFB75444444445
00017DB2000000000004
00000510000000000004
0000A500034444444004
001CF100520000000004
01CFD000400000000004
07FFD0022006EFFFFFB1
0CFFD002200BFFFFF900
0FFFD002200CFFFF7000
1FFFD002200755530000
1FFFD002200400000000
1FFFD002200400000000
1FFFD002200400000000
1FFFD002200400000000
1FFFD002300400000000
1FFFD000400244444443
1FFFF100510000000004
0FFFF500034444444004
0EFFFC10000000000004
0BFFFFC2000000000004
05FFFFFFB86555555556
00BFFFFFFFFFFFFFFF90
001BFFFFFFFFFFFFF600
00005ADEFFFFFFFD3000
ENDCHAR
STARTCHAR Dcaron
ENCODING 270
SWIDTH 846 0
DWIDTH 24 0
BBX 22 31 1 -3
BITMAP
0000008444200014556000
00001CC000254440004000
0003DFC002100003004000
000EFFC000344441004000
002FFFE100000000001000
002FFFFD71000000520000
001FFFFFFFA4038C300000
000C733333333333456100
003E200000000000000530
05FF200000000000000051
6FFF200544444444300005
BFFF200400000000160005
BFFF200400000000013004
BFFF2004006CCCA0004004
BFFF2004007FFFF2004004
BFFF2004007FFFF2004004
BFFF2004006FFFF2004004
BFFF2004004BFFF2004004
BFFF2004004BFFF2004004
BFFF2004004BFFF2004004
BFFF2004004BFFF2004004
BFFF2004004BFFF2004004
BFFF20040038AA70014004
BFFF200400000000160004
BFFF200544444444400013
BFFF200000000000000050
BFFF200000000000001510
BFFF9555555555567A9100
BFFFFFFFFFFFFFFFF80000
BFFFFFFFFFFFFFFE500000
7FFFFFFFFFFFEB71000000
ENDCHAR
STARTCHAR dcaron
ENCODING 271
SWIDTH 846 0
DWIDTH 24 0
BBX 22 31 1 -3
BITMAP
0000008444200014556000
00001CC000254440004000
0003DFC002100003004000
000EFFC000344441004000
002FFFE100000000001000
002FFFFD71000000520000
001FFFFFFFA4038C300000
000C733333333333456100
003E200000000000000530
05FF200000000000000051
6FFF200544444444300005
BFFF200400000000160005
BFFF200400000000013004
BFFF2004006CCCA0004004
BFFF2004007FFFF2004004
BFFF2004007FFFF2004004
BFFF2004006FFFF2004004
BFFF2004004BFFF2004004
BFFF2004004BFFF2004004
BFFF2004004BFFF2004004
BFFF2004004BFFF2004004
BFFF2004004BFFF2004004
BFFF20040038AA70014004
BFFF200400000000160004
BFFF200544444444400013
BFFF200000000000000050
BFFF200000000000001510
BFFF9555555555567A9100
BFFFFFFFFFFFFFFFF80000
BFFFFFFFFFFFFFFE500000
7FFFFFFFFFFFEB71000000
ENDCHAR
STARTCHAR Dcroat
ENCODING 272
SWIDTH 856 0
DWIDTH 24 0
BBX 25 24 -1 -3
BITMAP
00000164444444444444410000
00002C70000000000000044000
0003EF70000000000000004300
003EFF70044444444440000500
007FFF70040000000005100500
007FFF70040026665000500400
007FFF7004004FFFF500400410
007FFF7004004FFFF700400410
007FD1000400005FF700400410
007FC0000400002FF700400410
03EFC0034744102FF700400410
1EFFC0000400002FF700400410
2FFFD1000400005FF700400410
2FFFFF7004004FFFF600400410
2FFFFF7004004AFFF300400410
1EFFFF70040012221000500400
018FFF70040000000005200400
007FFF70044444444441000500
007FFF70000000000000004200
007FFF70000000000000043000
007FFFC5555555555569B20000
007FFFFFFFFFFFFFFFFB100000
007FFFFFFFFFFFFFFF90000000
003EFFFFFFFFFFEC9300000000
ENDCHAR
STARTCHAR dcroat
ENCODING 273
SWIDTH 856 0
DWIDTH 24 0
BBX 25 24 -1 -3
BITMAP
00000164444444444444410000
00002C70000000000000044000
0003EF70000000000000004300
003EFF70044444444440000500
007FFF70040000000005100500
007FFF70040026665000500400
007FFF7004004FFFF500400410
007FFF7004004FFFF700400410
007FD1000400005FF700400410
007FC0000400002FF700400410
03EFC0034744102FF700400410
1EFFC0000400002FF700400410
2FFFD1000400005FF700400410
2FFFFF7004004FFFF600400410
2FFFFF7004004AFFF300400410
1EFFFF70040012221000500400
018FFF70040000000005200400
007FFF70044444444441000500
007FFF70000000000000004200
007FFF70000000000000043000
007FFFC5555555555569B20000
007FFFFFFFFFFFFFFFFB100000
007FFFFFFFFFFFFFFF90000000
003EFFFFFFFFFFEC9300000000
ENDCHAR
STARTCHAR Emacron
ENCODING 274
SWIDTH 754 0
DWIDTH 21 0
BBX 20 30 1 -3
BITMAP
00000244444444444300
00003B00000000000400
0004EC00344444400400
006FFC00000000000400
01FFFC00000000000300
02FFFE10000000002300
02FF8444444444444453
02FF2000000000000004
02FF2000000000000004
3EFF2005444444443004
AFFF2004000000000004
BFFF2004001333333343
BFFF2004009FFFFFFE40
BFFF2004009FFFFFE300
BFFF2004000000004100
BFFF2004000000002300
BFFF2006444444202300
BFFF2004000000002300
BFFF2004000000003100
BFFF2004008DDDDD6000
BFFF2004009FFFE50000
BFFF2004006AAA744451
BFFF2004000000000004
BFFF2005444444443004
BFFF2000000000000004
BFFF2000000000000004
BFFF9555555555555563
BFFFFFFFFFFFFFFFFE40
BFFFFFFFFFFFFFFFC200
7FFFFFFFFFFFFFFA1000
ENDCHAR
STARTCHAR emacron
ENCODING 275
SWIDTH 754 0
DWIDTH 21 0
BBX 20 30 1 -3
BITMAP
00000244444444444300
00003B00000000000400
0004EC00344444400400
006FFC00000000000400
01FFFC00000000000300
02FFFE10000000002300
02FF8444444444444453
02FF2000000000000004
02FF2000000000000004
3EFF2005444444443004
AFFF2004000000000004
BFFF2004001333333343
BFFF2004009FFFFFFE40
BFFF2004009FFFFFE300
BFFF2004000000004100
BFFF2004000000002300
BFFF2006444444202300
BFFF2004000000002300
BFFF2004000000003100
BFFF2004008DDDDD6000
BFFF2004009FFFE50000
BFFF2004006AAA744451
BFFF2004000000000004
BFFF2005444444443004
BFFF2000000000000004
BFFF2000000000000004
BFFF9555555555555563
BFFFFFFFFFFFFFFFFE40
BFFFFFFFFFFFFFFFC200
7FFFFFFFFFFFFFFA1000
ENDCHAR
STARTCHAR Ebreve
ENCODING 276
SWIDTH 754 0
DWIDTH 21 0
BBX 20 32 1 -3
BITMAP
00000154443004444500
00002C00004079000140
0003ED00006AF8010040
004EFD00501441050040
00EFFE00610000260120
00FFFF40044444300100
00FFFFD1000000002100
00DFFFFE831001430000
00AF8444444444444453
003F2000000000000004
03EF2000000000000004
4FFF2005444444443004
BFFF2004000000000004
BFFF2004001333333343
BFFF2004009FFFFFFE40
BFFF2004009FFFFFE300
BFFF2004000000004100
BFFF2004000000002300
BFFF2006444444202300
BFFF2004000000002300
BFFF2004000000003100
BFFF2004008DDDDD6000
BFFF2004009FFFE50000
BFFF2004006AAA744451
BFFF2004000000000004
BFFF2005444444443004
BFFF2000000000000004
BFFF2000000000000004
BFFF9555555555555563
BFFFFFFFFFFFFFFFFE40
BFFFFFFFFFFFFFFFC200
7FFFFFFFFFFFFFFA1000
ENDCHAR
STARTCHAR ebreve
ENCODING 277
SWIDTH 754 0
DWIDTH 21 0
BBX 20 32 1 -3
BITMAP
00000154443004444500
00002C00004079000140
0003ED00006AF8010040
004EFD00501441050040
00EFFE00610000260120
00FFFF40044444300100
00FFFFD1000000002100
00DFFFFE831001430000
00AF8444444444444453
003F2000000000000004
03EF2000000000000004
4FFF2005444444443004
BFFF2004000000000004
BFFF2004001333333343
BFFF2004009FFFFFFE40
BFFF2004009FFFFFE300
BFFF2004000000004100
BFFF2004000000002300
BFFF2006444444202300
BFFF2004000000002300
BFFF2004000000003100
BFFF2004008DDDDD6000
BFFF2004009FFFE50000
BFFF2004006AAA744451
BFFF2004000000000004
BFFF2005444444443004
BFFF2000000000000004
BFFF2000000000000004
BFFF9555555555555563
BFFFFFFFFFFFFFFFFE40
BFFFFFFFFFFFFFFFC200
7FFFFFFFFFFFFFFA1000
ENDCHAR
STARTCHAR Edotaccent
ENCODING 278
SWIDTH 754 0
DWIDTH 21 0
BBX 20 31 1 -3
BITMAP
00000000544444300000
0000001B300000400000
000002DF200300400000
00004EFF200400400000
0000BFFF200000400000
0000CFFF200000300000
0000CFFF500002300000
00027444444444444453
004E2000000000000004
06FF2000000000000004
6FFF2005444444443004
BFFF2004000000000004
BFFF2004001333333343
BFFF2004009FFFFFFE40
BFFF2004009FFFFFE300
BFFF2004000000004100
BFFF2004000000002300
BFFF2006444444202300
BFFF2004000000002300
BFFF2004000000003100
BFFF2004008DDDDD6000
BFFF2004009FFFE50000
BFFF2004006AAA744451
BFFF2004000000000004
BFFF2005444444443004
BFFF2000000000000004
BFFF2000000000000004
BFFF9555555555555563
BFFFFFFFFFFFFFFFFE40
BFFFFFFFFFFFFFFFC200
7FFFFFFFFFFFFFFA1000
ENDCHAR
STARTCHAR edotaccent
ENCODING 279
SWIDTH 754 0
DWIDTH 21 0
BBX 20 31 1 -3
BITMAP
00000000544444300000
0000001B300000400000
000002DF200300400000
00004EFF200400400000
0000BFFF200000400000
0000CFFF200000300000
0000CFFF500002300000
00027444444444444453
004E2000000000000004
06FF2000000000000004
6FFF2005444444443004
BFFF2004000000000004
BFFF2004001333333343
BFFF2004009FFFFFFE40
BFFF2004009FFFFFE300
BFFF2004000000004100
BFFF2004000000002300
BFFF2006444444202300
BFFF2004000000002300
BFFF2004000000003100
BFFF2004008DDDDD6000
BFFF2004009FFFE50000
BFFF2004006AAA744451
BFFF2004000000000004
BFFF2005444444443004
BFFF2000000000000004
BFFF2000000000000004
BFFF9555555555555563
BFFFFFFFFFFFFFFFFE40
BFFFFFFFFFFFFFFFC200
7FFFFFFFFFFFFFFA1000
ENDCHAR
STARTCHAR Eogonek
ENCODING 280
SWIDTH 754 0
DWIDTH 21 0
BBX 20 30 1 -9
BITMAP
00026444444444444453
004E2000000000000004
06FF2000000000000004
6FFF2005444444443004
BFFF2004000000000004
BFFF2004001333333343
BFFF2004009FFFFFFE40
BFFF2004009FFFFFE300
BFFF2004000000004100
BFFF2004000000002300
BFFF2006444444202300
BFFF2004000000002300
BFFF2004000000003100
BFFF2004008DDDDD6000
BFFF2004009FFFE50000
BFFF2004006AAA744451
BFFF2004000000000004
BFFF2005444444463004
BFFF2000000000040004
BFFF2000000000320004
BFFF9555555530400441
BFFFFFFFFFFF60400952
BFFFFFFFFFFF40400004
7FFFFFFFFFFF40353004
000000007FFF60000004
000000009FFFE5100013
00000000AFFFFFFFFF60
000000008FFFFFFFF500
000000002DFFFFFE4000
00000000004555520000
ENDCHAR
STARTCHAR eogonek
ENCODING 281
SWIDTH 754 0
DWIDTH 21 0
BBX 20 30 1 -9
BITMAP
00026444444444444453
004E2000000000000004
06FF2000000000000004
6FFF2005444444443004
BFFF2004000000000004
BFFF2004001333333343
BFFF2004009FFFFFFE40
BFFF2004009FFFFFE300
BFFF2004000000004100
BFFF2004000000002300
BFFF2006444444202300
BFFF2004000000002300
BFFF2004000000003100
BFFF2004008DDDDD6000
BFFF2004009FFFE50000
BFFF2004006AAA744451
BFFF2004000000000004
BFFF2005444444463004
BFFF2000000000040004
BFFF2000000000320004
BFFF9555555530400441
BFFFFFFFFFFF60400952
BFFFFFFFFFFF40400004
7FFFFFFFFFFF40353004
000000007FFF60000004
000000009FFFE5100013
00000000AFFFFFFFFF60
000000008FFFFFFFF500
000000002DFFFFFE4000
00000000004555520000
ENDCHAR
STARTCHAR Ecaron
ENCODING 282
SWIDTH 754 0
DWIDTH 21 0
BBX 20 31 1 -3
BITMAP
00000754430001455700
00009F00024444100400
001BFF00210000310400
00BFFF00024444100400
00EFFF20000000000200
00EFFFE8200000043000
00EFFFFFFB5127D60000
00BF8444444444444453
002E2000000000000004
03EF2000000000000004
4FFF2005444444443004
BFFF2004000000000004
BFFF2004001333333343
BFFF2004009FFFFFFE40
BFFF2004009FFFFFE300
BFFF2004000000004100
BFFF2004000000002300
BFFF2006444444202300
BFFF2004000000002300
BFFF2004000000003100
BFFF2004008DDDDD6000
BFFF2004009FFFE50000
BFFF2004006AAA744451
BFFF2004000000000004
BFFF2005444444443004
BFFF2000000000000004
BFFF2000000000000004
BFFF9555555555555563
BFFFFFFFFFFFFFFFFE40
BFFFFFFFFFFFFFFFC200
7FFFFFFFFFFFFFFA1000
ENDCHAR
STARTCHAR ecaron
ENCODING 283
SWIDTH 754 0
DWIDTH 21 0
BBX 20 31 1 -3
BITMAP
00000754430001455700
00009F00024444100400
001BFF00210000310400
00BFFF00024444100400
00EFFF20000000000200
00EFFFE8200000043000
00EFFFFFFB5127D60000
00BF8444444444444453
002E2000000000000004
03EF2000000000000004
4FFF2005444444443004
BFFF2004000000000004
BFFF2004001333333343
BFFF2004009FFFFFFE40
BFFF2004009FFFFFE300
BFFF2004000000004100
BFFF2004000000002300
BFFF2006444444202300
BFFF2004000000002300
BFFF2004000000003100
BFFF2004008DDDDD6000
BFFF2004009FFFE50000
BFFF2004006AAA744451
BFFF2004000000000004
BFFF2005444444443004
BFFF2000000000000004
BFFF2000000000000004
BFFF9555555555555563
BFFFFFFFFFFFFFFFFE40
BFFFFFFFFFFFFFFFC200
7FFFFFFFFFFFFFFA1000
ENDCHAR
STARTCHAR Gcircumflex
ENCODING 284
SWIDTH 808 0
DWIDTH 23 0
BBX 22 32 0 -3
BITMAP
0000000000003443000000
0000000002441002551000
0000000152000000004500
0000001C10014444000400
000002CF00240001510400
00002DFF00000000000400
0000BFFF0037BEEA610400
0000DFFFBDFFFFFFFFC700
0000DFFFB7544444444600
0000DFB200000000000400
0000DC1000000000000400
0000940003444444410400
000AF00052000000000400
00BFD00040000000000400
06FFD0013007EFFFFFD200
0CFFD002300CFFFFFB1000
0FFFD002300CFFFF900000
1FFFD00230075568444443
1FFFD002300401B4000004
1FFFD00230042CF3000004
1FFFD0023007EFF3004004
1FFFD002300CFFF3004004
1FFFD0013007DEE3004004
1FFFD00050000000004004
1FFFF10063000000004004
0FFFF50002444444444004
0EFFFC1000000000000004
0BFFFFC200000000000004
05FFFFFFB8655555555554
00BFFFFFFFFFFFFFFFFF60
001BFFFFFFFFFFFFFFE400
00005ADEFFFFFFFFFD3000
ENDCHAR
STARTCHAR gcircumflex
ENCODING 285
SWIDTH 808 0
DWIDTH 23 0
BBX 22 32 0 -3
BITMAP
0000000000003443000000
0000000002441002551000
0000000152000000004500
0000001C10014444000400
000002CF00240001510400
00002DFF00000000000400
0000BFFF0037BEEA610400
0000DFFFBDFFFFFFFFC700
0000DFFFB7544444444600
0000DFB200000000000400
0000DC1000000000000400
0000940003444444410400
000AF00052000000000400
00BFD00040000000000400
06FFD0013007EFFFFFD200
0CFFD002300CFFFFFB1000
0FFFD002300CFFFF900000
1FFFD00230075568444443
1FFFD002300401B4000004
1FFFD00230042CF3000004
1FFFD0023007EFF3004004
1FFFD002300CFFF3004004
1FFFD0013007DEE3004004
1FFFD00050000000004004
1FFFF10063000000004004
0FFFF50002444444444004
0EFFFC1000000000000004
0BFFFFC200000000000004
05FFFFFFB8655555555554
00BFFFFFFFFFFFFFFFFF60
001BFFFFFFFFFFFFFFE400
00005ADEFFFFFFFFFD3000
ENDCHAR
STARTCHAR Gbreve
ENCODING 286
SWIDTH 808 0
DWIDTH 23 0
BBX 22 32 0 -3
BITMAP
0000000244452004444400
00000049000041A6000400
000005F900008CF5010410
00006FF903202540050400
0002FFFB00600000340300
0004FFFE10144444200100
0004FFFFA0000000002000
0003FFFFFD631012520000
0000EFFFB7544444444500
00005FB200000000000400
0000061000000000000400
0000A40003444444410400
001BF00052000000000400
01CFD00040000000000400
07FFD0013007EFFFFFC200
0CFFD002300CFFFFFB1000
0FFFD002300CFFFF900000
1FFFD00230075568444443
1FFFD002300401B4000004
1FFFD00230042CF3000004
1FFFD0023007EFF3004004
1FFFD002300CFFF3004004
1FFFD0013007DEE3004004
1FFFD00050000000004004
1FFFF10063000000004004
0FFFF50002444444444004
0EFFFC1000000000000004
0BFFFFC200000000000004
05FFFFFFB8655555555554
00BFFFFFFFFFFFFFFFFF60
001BFFFFFFFFFFFFFFE400
00005ADEFFFFFFFFFD3000
ENDCHAR
STARTCHAR gbreve
ENCODING 287
SWIDTH 808 0
DWIDTH 23 0
BBX 22 32 0 -3
BITMAP
0000000244452004444400
00000049000041A6000400
000005F900008CF5010410
00006FF903202540050400
0002FFFB00600000340300
0004FFFE10144444200100
0004FFFFA0000000002000
0003FFFFFD631012520000
0000EFFFB7544444444500
00005FB200000000000400
0000061000000000000400
0000A40003444444410400
001BF00052000000000400
01CFD00040000000000400
07FFD0013007EFFFFFC200
0CFFD002300CFFFFFB1000
0FFFD002300CFFFF900000
1FFFD00230075568444443
1FFFD002300401B4000004
1FFFD00230042CF3000004
1FFFD0023007EFF3004004
1FFFD002300CFFF3004004
1FFFD0013007DEE3004004
1FFFD00050000000004004
1FFFF10063000000004004
0FFFF50002444444444004
0EFFFC1000000000000004
0BFFFFC200000000000004
05FFFFFFB8655555555554
00BFFFFFFFFFFFFFFFFF60
001BFFFFFFFFFFFFFFE400
00005ADEFFFFFFFFFD3000
ENDCHAR
STARTCHAR Gdotaccent
ENCODING 288
SWIDTH 808 0
DWIDTH 23 0
BBX 22 31 0 -3
BITMAP
0000000000344444500000
0000000006800000230000
000000008F800300130000
0000000AFF800400130000
0000005FFF800000130000
0000006FFF800000120000
0000006FFFA00000400000
0000006FB7544444444500
0000005200000000000400
0000061000000000000400
0001B40003444444410400
002DF00052000000000400
01DFD00040000000000400
08FFD0013007EFFFFFC200
0DFFD002300CFFFFFB1000
0FFFD002300CFFFF900000
1FFFD00230075568444443
1FFFD002300401B4000004
1FFFD00230042CF3000004
1FFFD0023007EFF3004004
1FFFD002300CFFF3004004
1FFFD0013007DEE3004004
1FFFD00050000000004004
1FFFF10063000000004004
0FFFF50002444444444004
0EFFFC1000000000000004
0BFFFFC200000000000004
05FFFFFFB8655555555554
00BFFFFFFFFFFFFFFFFF60
001BFFFFFFFFFFFFFFE400
00005ADEFFFFFFFFFD3000
ENDCHAR
STARTCHAR gdotaccent
ENCODING 289
SWIDTH 808 0
DWIDTH 23 0
BBX 22 31 0 -3
BITMAP
0000000000344444500000
0000000006800000230000
000000008F800300130000
0000000AFF800400130000
0000005FFF800000130000
0000006FFF800000120000
0000006FFFA00000400000
0000006FB7544444444500
0000005200000000000400
0000061000000000000400
0001B40003444444410400
002DF00052000000000400
01DFD00040000000000400
08FFD0013007EFFFFFC200
0DFFD002300CFFFFFB1000
0FFFD002300CFFFF900000
1FFFD00230075568444443
1FFFD002300401B4000004
1FFFD00230042CF3000004
1FFFD0023007EFF3004004
1FFFD002300CFFF3004004
1FFFD0013007DEE3004004
1FFFD00050000000004004
1FFFF10063000000004004
0FFFF50002444444444004
0EFFFC1000000000000004
0BFFFFC200000000000004
05FFFFFFB8655555555554
00BFFFFFFFFFFFFFFFFF60
001BFFFFFFFFFFFFFFE400
00005ADEFFFFFFFFFD3000
ENDCHAR
STARTCHAR Gcommaaccent
ENCODING 290
SWIDTH 808 0
DWIDTH 23 0
BBX 22 34 0 -13
BITMAP
0000000354444444444500
0000006200000000000400
0000191000000000000400
0002D50003444444410400
003EF10042000000000400
02EFD00050000000000400
09FFD0013006EFFFFFC200
0DFFD002300CFFFFFB1000
0FFFD002300CFFFF900000
1FFFD00230075558444443
1FFFD00230040094000004
1FFFD00230040AF3000004
1FFFD0023005BFF3002004
1FFFD002300CFFF3004004
1FFFD002300BFFF3004004
1FFFD00130039992004004
1FFFE00050000000004004
0FFFF30053000000004004
0EFFFA0002544444444004
0BFFFF8000000000000004
05FFFFFC73100000000002
00BFFFFFFFFFFFFFFFFF70
001BFFFFFFA333336FE500
00005ADFFF7000001D3000
00000009FF704443130000
0000006FFF700004130000
0000007FFF800004130000
0000007FFFFEEC04130000
0000007FFFD22131310000
0000006FFFB04430400000
00000019FFE32255000000
0000001EFFFFFF70000000
0000002FFFFFE400000000
0000001DFFDA2000000000
ENDCHAR
STARTCHAR gcommaaccent
ENCODING 291
SWIDTH 808 0
DWIDTH 23 0
BBX 22 34 0 -13
BITMAP
0000000354444444444500
0000006200000000000400
0000191000000000000400
0002D50003444444410400
003EF10042000000000400
02EFD00050000000000400
09FFD0013006EFFFFFC200
0DFFD002300CFFFFFB1000
0FFFD002300CFFFF900000
1FFFD00230075558444443
1FFFD00230040094000004
1FFFD00230040AF3000004
1FFFD0023005BFF3002004
1FFFD002300CFFF3004004
1FFFD002300BFFF3004004
1FFFD00130039992004004
1FFFE00050000000004004
0FFFF30053000000004004
0EFFFA0002544444444004
0BFFFF8000000000000004
05FFFFFC73100000000002
00BFFFFFFFFFFFFFFFFF70
001BFFFFFFA333336FE500
00005ADFFF7000001D3000
00000009FF704443130000
0000006FFF700004130000
0000007FFF800004130000
0000007FFFFEEC04130000
0000007FFFD22131310000
0000006FFFB04430400000
00000019FFE32255000000
0000001EFFFFFF70000000
0000002FFFFFE400000000
0000001DFFDA2000000000
ENDCHAR
STARTCHAR Hcircumflex
ENCODING 292
SWIDTH 859 0
DWIDTH 24 0
BBX 22 32 1 -3
BITMAP
0000000000044430000000
0000000025410025410000
0000001620000000045000
000002D000144430004000
00003EE002400015104000
0004EFE000000000004000
000DFFF0037BEEA5104000
000EFFFBDFFFFFFFFC6000
000E844444CFFFF9444445
003F2000007FFFF3000004
05EF200000419FF3000004
6FFF20040044FFF3004004
BFFF2004004AFFF3004004
BFFF2004004BFFF3004004
BFFF2004004BFFF3004004
BFFF20040038AAA2004004
BFFF200400000000004004
BFFF200400000000004004
BFFF200744444444445004
BFFF200400000000004004
BFFF200400000000004004
BFFF200400355551004004
BFFF2004007FFFF3004004
BFFF2004007FFFF3004004
BFFF2004007FFFF3004004
BFFF2004004BFFF3004004
BFFF2001004BFFF3001004
BFFF2000004BFFF3000004
BFFF9555555BFFF9555554
BFFFFFFFF80BFFFFFFFF70
BFFFFFFE500BFFFFFFE400
7FFFFFC30007FFFFFD3000
ENDCHAR
STARTCHAR hcircumflex
ENCODING 293
SWIDTH 859 0
DWIDTH 24 0
BBX 22 32 1 -3
BITMAP
0000000000044430000000
0000000025410025410000
0000001620000000045000
000002D000144430004000
00003EE002400015104000
0004EFE000000000004000
000DFFF0037BEEA5104000
000EFFFBDFFFFFFFFC6000
000E844444CFFFF9444445
003F2000007FFFF3000004
05EF200000419FF3000004
6FFF20040044FFF3004004
BFFF2004004AFFF3004004
BFFF2004004BFFF3004004
BFFF2004004BFFF3004004
BFFF20040038AAA2004004
BFFF200400000000004004
BFFF200400000000004004
BFFF200744444444445004
BFFF200400000000004004
BFFF200400000000004004
BFFF200400355551004004
BFFF2004007FFFF3004004
BFFF2004007FFFF3004004
BFFF2004007FFFF3004004
BFFF2004004BFFF3004004
BFFF2001004BFFF3001004
BFFF2000004BFFF3000004
BFFF9555555BFFF9555554
BFFFFFFFF80BFFFFFFFF70
BFFFFFFE500BFFFFFFE400
7FFFFFC30007FFFFFD3000
ENDCHAR
STARTCHAR Hbar
ENCODING 294
SWIDTH 879 0
DWIDTH 25 0
BBX 25 24 0 -3
BITMAP
00000644444500017444446000
0001C7000004002C8000003100
002DF700000404EF8000003100
02EFC400400349AA5004002510
06FF2000400000000004000040
07FF1000400000000004000040
1BFF1024744444444447430040
AFFF1000400000000004000040
CFFF6100400133332004001430
CFFFF7004004FFFF8004003500
CFFFF7004004FFFF8004003100
9FFFF700400000000004003100
07FFF700400000000004003100
07FFF700644444444447003100
07FFF700400000000004003100
07FFF700400000000004003100
07FFF700400255553004003100
07FFF7004004FFFF8004003100
07FFF7001004FFFF8001003100
07FFF7000005FFFF8000003100
07FFFC5555575FFFD555556000
07FFFFFFFFA15FFFFFFFFA1000
07FFFFFFF7005FFFFFFF800000
03EFFFFE50002EFFFFE5000000
ENDCHAR
STARTCHAR hbar
ENCODING 295
SWIDTH 879 0
DWIDTH 25 0
BBX 25 24 0 -3
BITMAP
00000644444500017444446000
0001C7000004002C8000003100
002DF700000404EF8000003100
02EFC400400349AA5004002510
06FF2000400000000004000040
07FF1000400000000004000040
1BFF1024744444444447430040
AFFF1000400000000004000040
CFFF6100400133332004001430
CFFFF7004004FFFF8004003500
CFFFF7004004FFFF8004003100
9FFFF700400000000004003100
07FFF700400000000004003100
07FFF700644444444447003100
07FFF700400000000004003100
07FFF700400000000004003100
07FFF700400255553004003100
07FFF7004004FFFF8004003100
07FFF7001004FFFF8001003100
07FFF7000005FFFF8000003100
07FFFC5555575FFFD555556000
07FFFFFFFFA15FFFFFFFFA1000
07FFFFFFF7005FFFFFFF800000
03EFFFFE50002EFFFFE5000000
ENDCHAR
STARTCHAR Itilde
ENCODING 296
SWIDTH 705 0
DWIDTH 20 0
BBX 19 30 0 -3
BITMAP
00000025444442145400
00000630000013320400
0000AC00010000000400
001CFC00334444400400
00DFFC00000000000200
01FFFD25887531020100
01FFE544444444444450
01FFB000000000000040
00EFB000000000000040
07FFB003444644441040
2FFFB000000400000040
3FFFC000000400000040
3FFFFDCC6004001CCB20
3FFFFFFF7004001FC100
2FFFFFFF7004001B1000
0688BFFF700400130000
00006FFF700400130000
00006FFF700400130000
00006FFF700400130000
00006FFF700400130000
00006FFF700400130000
00006AAA500400154440
0005A000000400000040
008FB003444644441040
0AFFB000000000000040
2FFFB000000000000040
3FFFE655555555555560
3FFFFFFFFFFFFFFFFA10
3FFFFFFFFFFFFFFF7000
1DFFFFFFFFFFFFD40000
ENDCHAR
STARTCHAR itilde
ENCODING 297
SWIDTH 705 0
DWIDTH 20 0
BBX 19 30 0 -3
BITMAP
00000025444442145400
00000630000013320400
0000AC00010000000400
001CFC00334444400400
00DFFC00000000000200
01FFFD25887531020100
01FFE544444444444450
01FFB000000000000040
00EFB000000000000040
07FFB003444644441040
2FFFB000000400000040
3FFFC000000400000040
3FFFFDCC6004001CCB20
3FFFFFFF7004001FC100
2FFFFFFF7004001B1000
0688BFFF700400130000
00006FFF700400130000
00006FFF700400130000
00006FFF700400130000
00006FFF700400130000
00006FFF700400130000
00006AAA500400154440
0005A000000400000040
008FB003444644441040
0AFFB000000000000040
2FFFB000000000000040
3FFFE655555555555560
3FFFFFFFFFFFFFFFFA10
3FFFFFFFFFFFFFFF7000
1DFFFFFFFFFFFFD40000
ENDCHAR
STARTCHAR Imacron
ENCODING 298
SWIDTH 705 0
DWIDTH 20 0
BBX 19 30 0 -3
BITMAP
00000244444444444300
00003B00000000000500
0004EC00344444400400
005FFC00000000000400
00EFFC00000000000300
01FFFE10000000002300
01FFFFFFFFFFFFFFFF90
01FFD322222222222280
00DFB000000000000040
05EFB003444644441040
2FFFB000000400000040
3FFFC000000400000030
3FFFFDCC6004001CCB20
3FFFFFFF7004001FC100
2FFFFFFF7004001B1000
0688BFFF700400130000
00006FFF700400130000
00006FFF700400130000
00006FFF700400130000
00006FFF700400130000
00006FFF700400130000
00006AAA500400154440
0005A000000400000040
008FB003444644441040
0AFFB000000000000040
2FFFB000000000000040
3FFFE655555555555560
3FFFFFFFFFFFFFFFFA10
3FFFFFFFFFFFFFFF7000
1DFFFFFFFFFFFFD40000
ENDCHAR
STARTCHAR imacron
ENCODING 299
SWIDTH 705 0
DWIDTH 20 0
BBX 19 30 0 -3
BITMAP
00000244444444444300
00003B00000000000500
0004EC00344444400400
005FFC00000000000400
00EFFC00000000000300
01FFFE10000000002300
01FFFFFFFFFFFFFFFF90
01FFD322222222222280
00DFB000000000000040
05EFB003444644441040
2FFFB000000400000040
3FFFC000000400000030
3FFFFDCC6004001CCB20
3FFFFFFF7004001FC100
2FFFFFFF7004001B1000
0688BFFF700400130000
00006FFF700400130000
00006FFF700400130000
00006FFF700400130000
00006FFF700400130000
00006FFF700400130000
00006AAA500400154440
0005A000000400000040
008FB003444644441040
0AFFB000000000000040
2FFFB000000000000040
3FFFE655555555555560
3FFFFFFFFFFFFFFFFA10
3FFFFFFFFFFFFFFF7000
1DFFFFFFFFFFFFD40000
ENDCHAR
STARTCHAR Ibreve
ENCODING 300
SWIDTH 705 0
DWIDTH 20 0
BBX 19 32 0 -3
BITMAP
00000344451005444400
000049000041A6000400
0005F900008CF4010400
006FF903102540050400
03FFFB00600000340300
04FFFE10144444200100
04FFFFA0000000002000
03FFFFFD631012510000
00EFE544444444444450
004FB000000000000040
007FB000000000000040
09FFB003444644441040
2FFFB000000400000040
3FFFC000000400000040
3FFFFDCC6004001CCB20
3FFFFFFF7004001FC100
2FFFFFFF7004001B1000
0688BFFF700400130000
00006FFF700400130000
00006FFF700400130000
00006FFF700400130000
00006FFF700400130000
00006FFF700400130000
00006AAA500400154440
0005A000000400000040
008FB003444644441040
0AFFB000000000000040
2FFFB000000000000040
3FFFE655555555555560
3FFFFFFFFFFFFFFFFA10
3FFFFFFFFFFFFFFF7000
1DFFFFFFFFFFFFD40000
ENDCHAR
STARTCHAR ibreve
ENCODING 301
SWIDTH 705 0
DWIDTH 20 0
BBX 19 32 0 -3
BITMAP
00000344451005444400
000049000041A6000400
0005F900008CF4010400
006FF903102540050400
03FFFB00600000340300
04FFFE10144444200100
04FFFFA0000000002000
03FFFFFD631012510000
00EFE544444444444450
004FB000000000000040
007FB000000000000040
09FFB003444644441040
2FFFB000000400000040
3FFFC000000400000040
3FFFFDCC6004001CCB20
3FFFFFFF7004001FC100
2FFFFFFF7004001B1000
0688BFFF700400130000
00006FFF700400130000
00006FFF700400130000
00006FFF700400130000
00006FFF700400130000
00006FFF700400130000
00006AAA500400154440
0005A000000400000040
008FB003444644441040
0AFFB000000000000040
2FFFB000000000000040
3FFFE655555555555560
3FFFFFFFFFFFFFFFFA10
3FFFFFFFFFFFFFFF7000
1DFFFFFFFFFFFFD40000
ENDCHAR
STARTCHAR Iogonek
ENCODING 302
SWIDTH 705 0
DWIDTH 20 0
BBX 19 30 0 -9
BITMAP
00005444444444444450
0008B000000000000040
00AFB000000000000040
0BFFB003444644441040
2FFFB000000400000040
3FFFC000000400000040
3FFFFDCC6004001CCB20
3FFFFFFF7004001FC100
2FFFFFFF7004001B1000
0688BFFF700400130000
00006FFF700400130000
00006FFF700400130000
00006FFF700400130000
00006FFF700400130000
00006FFF700400130000
00006AAA500400154440
0005A000000400000040
008FB003444644561040
0AFFB000000000400040
2FFFB000000000400040
3FFFE655555500402520
3FFFFFFFFFFD00404740
3FFFFFFFFFFB00400040
1DFFFFFFFFFB00541040
00000000FFFE00000040
00000002FFFFA2000040
00000003FFFFFFFFFC10
00000001FFFFFFFFB100
000000007FFFFFF90000
00000000025555400000
ENDCHAR
STARTCHAR iogonek
ENCODING 303
SWIDTH 705 0
DWIDTH 20 0
BBX 19 30 0 -9
BITMAP
00005444444444444450
0008B000000000000040
00AFB000000000000040
0BFFB003444644441040
2FFFB000000400000040
3FFFC000000400000040
3FFFFDCC6004001CCB20
3FFFFFFF7004001FC100
2FFFFFFF7004001B1000
0688BFFF700400130000
00006FFF700400130000
00006FFF700400130000
00006FFF700400130000
00006FFF700400130000
00006FFF700400130000
00006AAA500400154440
0005A000000400000040
008FB003444644561040
0AFFB000000000400040
2FFFB000000000400040
3FFFE655555500402520
3FFFFFFFFFFD00404740
3FFFFFFFFFFB00400040
1DFFFFFFFFFB00541040
00000000FFFE00000040
00000002FFFFA2000040
00000003FFFFFFFFFC10
00000001FFFFFFFFB100
000000007FFFFFF90000
00000000025555400000
ENDCHAR
STARTCHAR Idotaccent
ENCODING 304
SWIDTH 705 0
DWIDTH 20 0
BBX 19 31 0 -3
BITMAP
00000000344444500000
00000007800000230000
0000009F700300130000
00001BFF700400130000
00005FFF700000130000
00006FFF700000120000
00006FFFA00000400000
00007544444444444450
0008B000000000000040
009FB000000000000040
0BFFB003444644441040
2FFFB000000400000040
3FFFC000000400000040
3FFFFDCC6004001CCB20
3FFFFFFF7004001FC100
2FFFFFFF7004001B1000
0688BFFF700400130000
00006FFF700400130000
00006FFF700400130000
00006FFF700400130000
00006FFF700400130000
00006FFF700400130000
00006AAA500400154440
0005A000000400000040
008FB003444644441040
0AFFB000000000000040
2FFFB000000000000040
3FFFE655555555555560
3FFFFFFFFFFFFFFFFA10
3FFFFFFFFFFFFFFF7000
1DFFFFFFFFFFFFD40000
ENDCHAR
STARTCHAR dotlessi
ENCODING 305
SWIDTH 705 0
DWIDTH 20 0
BBX 19 24 0 -3
BITMAP
00005444444444444450
0008B000000000000040
00AFB000000000000040
0BFFB003444644441040
2FFFB000000400000040
3FFFC000000400000040
3FFFFDCC6004001CCB20
3FFFFFFF7004001FC100
2FFFFFFF7004001B1000
0688BFFF700400130000
00006FFF700400130000
00006FFF700400130000
00006FFF700400130000
00006FFF700400130000
00006FFF700400130000
00006AAA500400154440
0005A000000400000040
008FB003444644441040
0AFFB000000000000040
2FFFB000000000000040
3FFFE655555555555560
3FFFFFFFFFFFFFFFFA10
3FFFFFFFFFFFFFFF7000
1DFFFFFFFFFFFFD40000
ENDCHAR
STARTCHAR IJ
ENCODING 306
SWIDTH 844 0
DWIDTH 24 0
BBX 22 24 1 -3
BITMAP
0002644444400045444443
003E2000004006D0000004
05FF200000407FE0000004
5FFF20040049FFE0014004
BFFF2004007FFFE0014004
BFFF2004007FFFE0014004
BFFF2004007FFFE0014004
BFFF2004007FFFE0014004
BFFF2004007FFFE0014004
BFFF2002007FFFE0014004
BFFF2000007FFFE0014004
BFFF4000009FFFE0014004
BFFFECCCCBBFFFE0014004
BFFFFFFFC29FFFD0013004
BFFFFFFB109FFFB0032004
4AAAC99444799820060004
001C300000000000240004
03DF201444444444200031
4FFF200000000000000140
BFFF200000000000002500
BFFF9555555555556A6000
BFFFFFFFFFFFFFFFE40000
BFFFFFFFFFFFFFFD300000
7FFFFFFFFFFFEC71000000
ENDCHAR
STARTCHAR ij
ENCODING 307
SWIDTH 844 0
DWIDTH 24 0
BBX 22 24 1 -3
BITMAP
0002644444400045444443
003E2000004006D0000004
05FF200000407FE0000004
5FFF20040049FFE0014004
BFFF2004007FFFE0014004
BFFF2004007FFFE0014004
BFFF2004007FFFE0014004
BFFF2004007FFFE0014004
BFFF2004007FFFE0014004
BFFF2002007FFFE0014004
BFFF2000007FFFE0014004
BFFF4000009FFFE0014004
BFFFECCCCBBFFFE0014004
BFFFFFFFC29FFFD0013004
BFFFFFFB109FFFB0032004
4AAAC99444799820060004
001C300000000000240004
03DF201444444444200031
4FFF200000000000000140
BFFF200000000000002500
BFFF9555555555556A6000
BFFFFFFFFFFFFFFFE40000
BFFFFFFFFFFFFFFD300000
7FFFFFFFFFFFEC71000000
ENDCHAR
STARTCHAR Jcircumflex
ENCODING 308
SWIDTH 788 0
DWIDTH 22 0
BBX 24 32 0 -3
BITMAP
000000000000000244410000
000000000000145200044300
000000000005400000000152
0000000000A6000444420004
000000001CF6004100032004
00000002DFF6000034100004
00000007FFF7159EFFFC7304
00000008FFFFFFFFFFFFFFB1
00000008FFFFFF7000007900
00000007FFEABF4000004000
000000027308FF4002004000
00000000006FFF4004004000
00000000009FFF4004004000
00000000009FFF4004004000
00000000009FFF4004004000
00000000009FFF4004004000
00000000009FFF4004004000
0000444444BFFF4004004000
00096000009FFF4004004000
01BF6000008FFF4004004000
2DFF6004008FFF4004004000
8FFF6004008FFF4004004000
8FFF6004004CEB1004004000
8FFF60050000000014004000
8FFF80016100000260004000
8FFFC0000344445300004000
7FFFF6000000000000041000
4FFFFF910000000002620000
0DFFFFFFB9765679CB100000
04FFFFFFFFFFFFFF90000000
004DFFFFFFFFFFE600000000
000059CEFFEDA61000000000
ENDCHAR
STARTCHAR jcircumflex
ENCODING 309
SWIDTH 788 0
DWIDTH 22 0
BBX 24 32 0 -3
BITMAP
000000000000000244410000
000000000000145200044300
000000000005400000000152
0000000000A6000444420004
000000001CF6004100032004
00000002DFF6000034100004
00000007FFF7159EFFFC7304
00000008FFFFFFFFFFFFFFB1
00000008FFFFFF7000007900
00000007FFEABF4000004000
000000027308FF4002004000
00000000006FFF4004004000
00000000009FFF4004004000
00000000009FFF4004004000
00000000009FFF4004004000
00000000009FFF4004004000
00000000009FFF4004004000
0000444444BFFF4004004000
00096000009FFF4004004000
01BF6000008FFF4004004000
2DFF6004008FFF4004004000
8FFF6004008FFF4004004000
8FFF6004004CEB1004004000
8FFF60050000000014004000
8FFF80016100000260004000
8FFFC0000344445300004000
7FFFF6000000000000041000
4FFFFF910000000002620000
0DFFFFFFB9765679CB100000
04FFFFFFFFFFFFFF90000000
004DFFFFFFFFFFE600000000
000059CEFFEDA61000000000
ENDCHAR
STARTCHAR Kcommaaccent
ENCODING 310
SWIDTH 846 0
DWIDTH 24 0
BBX 22 34 1 -13
BITMAP
0002644444400045444452
004E200000400860000041
06FF200000409E00000050
6FFF2004004BF800500220
BFFF2004007FF200500400
BFFF2004007FA004101400
BFFF2004007F3005004000
BFFF2004006A0032007100
BFFF200400000050000330
BFFF200400000130000032
BFFF200644444644410004
BFFF200400000000051004
BFFF200400000000004004
BFFF2004006CCCA0004004
BFFF2004007FFFF1004004
BFFF2004007FFFF1004004
BFFF2004006FFFF1004004
BFFF2004004CFFF1004004
BFFF2001004CFFF1001004
BFFF2000004CFFF1000004
BFFF9555555CFFF8555554
BFFFFFFFFA49AAACFFFF50
BFFFFFFEC7000002FFE300
7FFFFFDCF6000001FC2000
000001BFF6044431300000
000006FFF6000041300000
000007FFF8000041300000
000007FFFFEEB042200000
000007FFFD221414000000
000006FFFB044205000000
0000019FFD323550000000
000001EFFFFFF600000000
000003FFFFFE4000000000
000001DFFDA20000000000
ENDCHAR
STARTCHAR kcommaaccent
ENCODING 311
SWIDTH 846 0
DWIDTH 24 0
BBX 22 34 1 -13
BITMAP
0002644444400045444452
004E200000400860000041
06FF200000409E00000050
6FFF2004004BF800500220
BFFF2004007FF200500400
BFFF2004007FA004101400
BFFF2004007F3005004000
BFFF2004006A0032007100
BFFF200400000050000330
BFFF200400000130000032
BFFF200644444644410004
BFFF200400000000051004
BFFF200400000000004004
BFFF2004006CCCA0004004
BFFF2004007FFFF1004004
BFFF2004007FFFF1004004
BFFF2004006FFFF1004004
BFFF2004004CFFF1004004
BFFF2001004CFFF1001004
BFFF2000004CFFF1000004
BFFF9555555CFFF8555554
BFFFFFFFFA49AAACFFFF50
BFFFFFFEC7000002FFE300
7FFFFFDCF6000001FC2000
000001BFF6044431300000
000006FFF6000041300000
000007FFF8000041300000
000007FFFFEEB042200000
000007FFFD221414000000
000006FFFB044205000000
0000019FFD323550000000
000001EFFFFFF600000000
000003FFFFFE4000000000
000001DFFDA20000000000
ENDCHAR
STARTCHAR kgreenlandic
ENCODING 312
SWIDTH 846 0
DWIDTH 24 0
BBX 22 24 1 -3
BITMAP
0002644444400045444452
004E200000400860000041
06FF200000409E00000050
6FFF2004004BF800500220
BFFF2004007FF200500400
BFFF2004007FA004101400
BFFF2004007F3005004000
BFFF2004006A0032007100
BFFF200400000050000330
BFFF200400000130000032
BFFF200644444644410004
BFFF200400000000051004
BFFF200400000000004004
BFFF2004006CCCA0004004
BFFF2004007FFFF1004004
BFFF2004007FFFF1004004
BFFF2004006FFFF1004004
BFFF2004004CFFF1004004
BFFF2001004CFFF1001004
BFFF2000004CFFF1000004
BFFF9555555CFFF8555554
BFFFFFFFF70CFFFFFFFF50
BFFFFFFE400CFFFFFFE300
7FFFFFC20008FFFFFC2000
ENDCHAR
STARTCHAR Lacute
ENCODING 313
SWIDTH 795 0
DWIDTH 22 0
BBX 21 31 1 -3
BITMAP
0000000000013576000000
0000257999986426200000
0005842000000002300000
008F201344444102300000
1AFF201100000002200000
9FFF200000000242000000
BFFF624679BDFF70000000
BFFFB88888DFE400000000
BFFF3000007A3000000000
7FFF200000400000000000
4EFF200400400000000000
BFFF200400400000000000
BFFF200400400000000000
BFFF200400400000000000
BFFF200400400000000000
BFFF200400400000000000
BFFF200400400044444430
BFFF200400400960000040
BFFF20040041CF50000040
BFFF2004006DFF50040040
BFFF2004007FFF50040040
BFFF2004007EEE50040040
BFFF200400000000040040
BFFF200400000000040040
BFFF200544444444440040
BFFF200000000000000040
BFFF200000000000000040
BFFF955555555555555540
BFFFFFFFFFFFFFFFFFF500
BFFFFFFFFFFFFFFFFE3000
7FFFFFFFFFFFFFFFC20000
ENDCHAR
STARTCHAR lacute
ENCODING 314
SWIDTH 795 0
DWIDTH 22 0
BBX 21 31 1 -3
BITMAP
0000000000013576000000
0000257999986426200000
0005842000000002300000
008F201344444102300000
1AFF201100000002200000
9FFF200000000242000000
BFFF624679BDFF70000000
BFFFB88888DFE400000000
BFFF3000007A3000000000
7FFF200000400000000000
4EFF200400400000000000
BFFF200400400000000000
BFFF200400400000000000
BFFF200400400000000000
BFFF200400400000000000
BFFF200400400000000000
BFFF200400400044444430
BFFF200400400960000040
BFFF20040041CF50000040
BFFF2004006DFF50040040
BFFF2004007FFF50040040
BFFF2004007EEE50040040
BFFF200400000000040040
BFFF200400000000040040
BFFF200544444444440040
BFFF200000000000000040
BFFF200000000000000040
BFFF955555555555555540
BFFFFFFFFFFFFFFFFFF500
BFFFFFFFFFFFFFFFFE3000
7FFFFFFFFFFFFFFFC20000
ENDCHAR
STARTCHAR Lcommaaccent
ENCODING 315
SWIDTH 795 0
DWIDTH 22 0
BBX 21 34 1 -13
BITMAP
0002644444400000000000
004E200000400000000000
06FF200100400000000000
6FFF200400400000000000
BFFF200400400000000000
BFFF200400400000000000
BFFF200400400000000000
BFFF200400400000000000
BFFF200400400000000000
BFFF200400400044444430
BFFF200400400960000040
BFFF20040041CF50000040
BFFF2004006DFF50040040
BFFF2004007FFF50040040
BFFF2004007EEE50040040
BFFF200400000000040040
BFFF200400000000040040
BFFF200544444444440040
BFFF200000000000000040
BFFF200000000000000040
BFFF500000000000000020
BFFFFFFFFFFFFFFFFFF500
BFFFFFFFF7333339FE3000
7FFFFFFFF2000005C20000
000002CFF2144514000000
00000AFFF2000314000000
00000BFFF4000314000000
00000BFFFFEE8404000000
00000BFFFA220504000000
00000AFFF7144113000000
000002BFFB223530000000
000004FFFFFFE300000000
000006FFFFFC2000000000
000004EFFD810000000000
ENDCHAR
STARTCHAR lcommaaccent
ENCODING 316
SWIDTH 795 0
DWIDTH 22 0
BBX 21 34 1 -13
BITMAP
0002644444400000000000
004E200000400000000000
06FF200100400000000000
6FFF200400400000000000
BFFF200400400000000000
BFFF200400400000000000
BFFF200400400000000000
BFFF200400400000000000
BFFF200400400000000000
BFFF200400400044444430
BFFF200400400960000040
BFFF20040041CF50000040
BFFF2004006DFF50040040
BFFF2004007FFF50040040
BFFF2004007EEE50040040
BFFF200400000000040040
BFFF200400000000040040
BFFF200544444444440040
BFFF200000000000000040
BFFF200000000000000040
BFFF500000000000000020
BFFFFFFFFFFFFFFFFFF500
BFFFFFFFF7333339FE3000
7FFFFFFFF2000005C20000
000002CFF2144514000000
00000AFFF2000314000000
00000BFFF4000314000000
00000BFFFFEE8404000000
00000BFFFA220504000000
00000AFFF7144113000000
000002BFFB223530000000
000004FFFFFFE300000000
000006FFFFFC2000000000
000004EFFD810000000000
ENDCHAR
STARTCHAR Lcaron
ENCODING 317
SWIDTH 795 0
DWIDTH 22 0
BBX 21 24 1 -3
BITMAP
0002644444400164444530
004E200000402D50000040
06FF20010044EF20100130
6FFF2004006FFE00400400
BFFF2004007FFC00500400
BFFF2004007FFA00200400
BFFF2004007FF700001400
BFFF2004007FFA33336000
BFFF2004007FFFFFFD2000
BFFF2004007FFFDA954430
BFFF2004007FFF60000040
BFFF20040042CF50000040
BFFF2004006DFF50040040
BFFF2004007FFF50040040
BFFF2004007EEE50040040
BFFF200400000000040040
BFFF200400000000040040
BFFF200544444444440040
BFFF200000000000000040
BFFF200000000000000040
BFFF955555555555555540
BFFFFFFFFFFFFFFFFFF500
BFFFFFFFFFFFFFFFFE3000
7FFFFFFFFFFFFFFFC20000
ENDCHAR
STARTCHAR lcaron
ENCODING 318
SWIDTH 795 0
DWIDTH 22 0
BBX 21 24 1 -3
BITMAP
0002644444400164444530
004E200000402D50000040
06FF20010044EF20100130
6FFF2004006FFE00400400
BFFF2004007FFC00500400
BFFF2004007FFA00200400
BFFF2004007FF700001400
BFFF2004007FFA33336000
BFFF2004007FFFFFFD2000
BFFF2004007FFFDA954430
BFFF2004007FFF60000040
BFFF20040042CF50000040
BFFF2004006DFF50040040
BFFF2004007FFF50040040
BFFF2004007EEE50040040
BFFF200400000000040040
BFFF200400000000040040
BFFF200544444444440040
BFFF200000000000000040
BFFF200000000000000040
BFFF955555555555555540
BFFFFFFFFFFFFFFFFFF500
BFFFFFFFFFFFFFFFFE3000
7FFFFFFFFFFFFFFFC20000
ENDCHAR
STARTCHAR Ldot
ENCODING 319
SWIDTH 795 0
DWIDTH 22 0
BBX 21 24 1 -3
BITMAP
0002644444400000000000
004E200000400000000000
06FF200000400000000000
6FFF200400400000000000
BFFF200400400154444510
BFFF200400402D10000040
BFFF20040045EF10020040
BFFF2004007FFF10040040
BFFF2004007FFF10000040
BFFF2004007FFF62222340
BFFF2004007FFFFFFFE500
BFFF2004007FFFDAAA7420
BFFF2004007FFF60000040
BFFF20040043CF50000040
BFFF2004005BDD50040040
BFFF200400000000040040
BFFF200400000000040040
BFFF200544444444440040
BFFF200000000000000040
BFFF200000000000000040
BFFF955555555555555530
BFFFFFFFFFFFFFFFFFE400
BFFFFFFFFFFFFFFFFD3000
7FFFFFFFFFFFFFFFC20000
ENDCHAR
STARTCHAR ldot
ENCODING 320
SWIDTH 795 0
DWIDTH 22 0
BBX 21 24 1 -3
BITMAP
0002644444400000000000
004E200000400000000000
06FF200000400000000000
6FFF200400400000000000
BFFF200400400154444510
BFFF200400402D10000040
BFFF20040045EF10020040
BFFF2004007FFF10040040
BFFF2004007FFF10000040
BFFF2004007FFF62222340
BFFF2004007FFFFFFFE500
BFFF2004007FFFDAAA7420
BFFF2004007FFF60000040
BFFF20040043CF50000040
BFFF2004005BDD50040040
BFFF200400000000040040
BFFF200400000000040040
BFFF200544444444440040
BFFF200000000000000040
BFFF200000000000000040
BFFF955555555555555530
BFFFFFFFFFFFFFFFFFE400
BFFFFFFFFFFFFFFFFD3000
7FFFFFFFFFFFFFFFC20000
ENDCHAR
STARTCHAR Lslash
ENCODING 321
SWIDTH 805 0
DWIDTH 23 0
BBX 23 24 -1 -3
BITMAP
000001644444600000000000
00002C700000310000000000
0003EF700100310000000000
003EFF700400310000000000
007FFF700400310000000000
007FFF700400323000000000
007FFF700400132500000000
007FF8300400000400000000
007FC0000401300400000000
009FC0034743000434444440
0AFFC0000400000990000040
1FFFD00004002CFF90000040
2FFFFA5004003FFF90040040
2FFFFF7004003FFF90040040
1FFFFF7004003EEE90040040
07CFFF700400000000040040
007FFF700400000000040040
007FFF700444444444450040
007FFF700000000000000040
007FFF700000000000000040
007FFFC55555555555555550
007FFFFFFFFFFFFFFFFFF900
007FFFFFFFFFFFFFFFFF6000
003EFFFFFFFFFFFFFFE40000
ENDCHAR
STARTCHAR lslash
ENCODING 322
SWIDTH 805 0
DWIDTH 23 0
BBX 23 24 -1 -3
BITMAP
000001644444600000000000
00002C700000310000000000
0003EF700100310000000000
003EFF700400310000000000
007FFF700400310000000000
007FFF700400323000000000
007FFF700400132500000000
007FF8300400000400000000
007FC0000401300400000000
009FC0034743000434444440
0AFFC0000400000990000040
1FFFD00004002CFF90000040
2FFFFA5004003FFF90040040
2FFFFF7004003FFF90040040
1FFFFF7004003EEE90040040
07CFFF700400000000040040
007FFF700400000000040040
007FFF700444444444450040
007FFF700000000000000040
007FFF700000000000000040
007FFFC55555555555555550
007FFFFFFFFFFFFFFFFFF900
007FFFFFFFFFFFFFFFFF6000
003EFFFFFFFFFFFFFFE40000
ENDCHAR
STARTCHAR Nacute
ENCODING 323
SWIDTH 853 0
DWIDTH 24 0
BBX 22 31 1 -3
BITMAP
00000000000013579A9000
000000059BCDBA86426200
0000009942000001102200
00001BF201444443102200
0002DFF200000000002100
000AFFF200000000231000
000BFFF624679BDFE30000
000B84445CFFFFF9444444
003E200001DEDDF2000004
05FF200000234EF2000004
6FFF20072003EFF2004004
BFFF200441006FF2004004
BFFF2004051008F2004004
BFFF2004005000A2004004
BFFF200400050011004004
BFFF200400015000004004
BFFF200400002400004004
BFFF200400200230004004
BFFF200400940033004004
BFFF2004009E2004204004
BFFF2004009FC100414004
BFFF2004009FFA00055004
BFFF2004009FFF80005004
BFFF2004009FFFF2004004
BFFF2004009FFFF2004004
BFFF2001009FFFF2001004
BFFF2000004CFFF2000004
BFFF9555554BFFF9555553
BFFFFFFFE50BFFFFFFFE50
BFFFFFFD300BFFFFFFD300
7FFFFFB10007FFFFFB1000
ENDCHAR
STARTCHAR nacute
ENCODING 324
SWIDTH 853 0
DWIDTH 24 0
BBX 22 31 1 -3
BITMAP
00000000000013579A9000
000000059BCDBA86426200
0000009942000001102200
00001BF201444443102200
0002DFF200000000002100
000AFFF200000000231000
000BFFF624679BDFE30000
000B84445CFFFFF9444444
003E200001DEDDF2000004
05FF200000234EF2000004
6FFF20072003EFF2004004
BFFF200441006FF2004004
BFFF2004051008F2004004
BFFF2004005000A2004004
BFFF200400050011004004
BFFF200400015000004004
BFFF200400002400004004
BFFF200400200230004004
BFFF200400940033004004
BFFF2004009E2004204004
BFFF2004009FC100414004
BFFF2004009FFA00055004
BFFF2004009FFF80005004
BFFF2004009FFFF2004004
BFFF2004009FFFF2004004
BFFF2001009FFFF2001004
BFFF2000004CFFF2000004
BFFF9555554BFFF9555553
BFFFFFFFE50BFFFFFFFE50
BFFFFFFD300BFFFFFFD300
7FFFFFB10007FFFFFB1000
ENDCHAR
STARTCHAR Ncommaaccent
ENCODING 325
SWIDTH 853 0
DWIDTH 24 0
BBX 22 34 1 -13
BITMAP
0002644444000026444444
004E2000014003E2000004
06FF200000234EF2000004
6FFF20072003EFF2004004
BFFF200441006FF2004004
BFFF2004051008F2004004
BFFF2004005000A2004004
BFFF200400050011004004
BFFF200400015000004004
BFFF200400002400004004
BFFF200400200230004004
BFFF200400940033004004
BFFF2004009E2004204004
BFFF2004009FC100414004
BFFF2004009FFA00055004
BFFF2004009FFF80005004
BFFF2004009FFFF2004004
BFFF2004009FFFF2004004
BFFF2001009FFFF2001004
BFFF2000004CFFF2000004
BFFF9555554BFFF9555553
BFFFFFFFE848AAACFFFE50
BFFFFFFD98000001FFD300
7FFFFFBAF8000000FB1000
000000AFF8044430400000
000005FFF8000040400000
000006FFF9000040400000
000006FFFFEEC041400000
000006FFFE321323100000
000005FFFC044305000000
0000008FFE322560000000
000000EFFFFFF700000000
000001FFFFFE5000000000
000000DFFEA20000000000
ENDCHAR
STARTCHAR ncommaaccent
ENCODING 326
SWIDTH 853 0
DWIDTH 24 0
BBX 22 34 1 -13
BITMAP
0002644444000026444444
004E2000014003E2000004
06FF200000234EF2000004
6FFF20072003EFF2004004
BFFF200441006FF2004004
BFFF2004051008F2004004
BFFF2004005000A2004004
BFFF200400050011004004
BFFF200400015000004004
BFFF200400002400004004
BFFF200400200230004004
BFFF200400940033004004
BFFF2004009E2004204004
BFFF2004009FC100414004
BFFF2004009FFA00055004
BFFF2004009FFF80005004
BFFF2004009FFFF2004004
BFFF2004009FFFF2004004
BFFF2001009FFFF2001004
BFFF2000004CFFF2000004
BFFF9555554BFFF9555553
BFFFFFFFE848AAACFFFE50
BFFFFFFD98000001FFD300
7FFFFFBAF8000000FB1000
000000AFF8044430400000
000005FFF8000040400000
000006FFF9000040400000
000006FFFFEEC041400000
000006FFFE321323100000
000005FFFC044305000000
0000008FFE322560000000
000000EFFFFFF700000000
000001FFFFFE5000000000
000000DFFEA20000000000
ENDCHAR
STARTCHAR Ncaron
ENCODING 327
SWIDTH 853 0
DWIDTH 24 0
BBX 22 32 1 -3
BITMAP
0000001200000000000000
000003B576300025555000
00005E9000354530004000
0007FF9003000012004000
003FFF9001444430004000
004FFFB000000000002000
004FFFFC61000001630000
004FFFFFFE9304AD400000
002E84445CFFFFF8444444
003E200001DFB8E2000004
05FF200000244EF2000004
6FFF20072003EFF2004004
BFFF200441006FF2004004
BFFF2004051008F2004004
BFFF2004005000A2004004
BFFF200400050011004004
BFFF200400015000004004
BFFF200400002400004004
BFFF200400200230004004
BFFF200400940033004004
BFFF2004009E2004204004
BFFF2004009FC100414004
BFFF2004009FFA00055004
BFFF2004009FFF80005004
BFFF2004009FFFF2004004
BFFF2004009FFFF2004004
BFFF2001009FFFF2001004
BFFF2000004CFFF2000004
BFFF9555554BFFF9555553
BFFFFFFFE50BFFFFFFFE50
BFFFFFFD300BFFFFFFD300
7FFFFFB10007FFFFFB1000
ENDCHAR
STARTCHAR ncaron
ENCODING 328
SWIDTH 853 0
DWIDTH 24 0
BBX 22 32 1 -3
BITMAP
0000001200000000000000
000003B576300025555000
00005E9000354530004000
0007FF9003000012004000
003FFF9001444430004000
004FFFB000000000002000
004FFFFC61000001630000
004FFFFFFE9304AD400000
002E84445CFFFFF8444444
003E200001DFB8E2000004
05FF200000244EF2000004
6FFF20072003EFF2004004
BFFF200441006FF2004004
BFFF2004051008F2004004
BFFF2004005000A2004004
BFFF200400050011004004
BFFF200400015000004004
BFFF200400002400004004
BFFF200400200230004004
BFFF200400940033004004
BFFF2004009E2004204004
BFFF2004009FC100414004
BFFF2004009FFA00055004
BFFF2004009FFF80005004
BFFF2004009FFFF2004004
BFFF2004009FFFF2004004
BFFF2001009FFFF2001004
BFFF2000004CFFF2000004
BFFF9555554BFFF9555553
BFFFFFFFE50BFFFFFFFE50
BFFFFFFD300BFFFFFFD300
7FFFFFB10007FFFFFB1000
ENDCHAR
STARTCHAR napostrophe
ENCODING 329
SWIDTH 853 0
DWIDTH 24 0
BBX 23 34 0 -3
BITMAP
000024444452000000000000
0003B0000004000000000000
005EC0000004000000000000
06FFC0344404000000000000
1FFFC0000404000000000000
2FFFD0000404000000000000
2FFFFEEE2404000000000000
2FFFF5211403000000000000
1FFFF1344000000000000000
07EFF4002100000000000000
09FFFFDDDD700002CDDDDD60
0CFFF4000077003E40000060
08FFF200000744EF20000040
05FFF20072007FFF20040040
0BFFF200441009FF20040040
0BFFF200405100AF20040040
0BFFF2004005000B20040040
0BFFF2004000500110040040
0BFFF2004000150000040040
0BFFF2004000024000040040
0BFFF2004002002300040040
0BFFF2004009400330040040
0BFFF2004009E20042040040
0BFFF2004009FC1004140040
0BFFF2004009FFA000550040
0BFFF2004009FFF800050040
0BFFF2004009FFFF20040040
0BFFF2004009FFFF20040040
0BFFF2001009FFFF20010040
0BFFF2000004CFFF20000040
0BFFF9555554BFFF95555530
0BFFFFFFFE50BFFFFFFFE500
0BFFFFFFD300BFFFFFFD3000
07FFFFFB10007FFFFFB10000
ENDCHAR
STARTCHAR Eng
ENCODING 330
SWIDTH 846 0
DWIDTH 24 0
BBX 22 27 1 -6
BITMAP
0000000455454444451000
0000045100000000003500
0000720003444444000050
001A700151000000420022
01CF300500000000050004
1DFF100400045410022004
7FFF0004008FFFB0013004
BFFF000400BFFFE0014004
DFFF000400BFFFE0014004
DFFF0004008FFFE0014004
DFFF0004004FFFE0014004
DFFF0004004FFFE0014004
DFFF0004004FFFE0014004
DFFF0004004FFFE0014004
DFFF0004004FFFE0014004
DFFF0004004FFFE0014004
DFFF0004004FFFD0014004
DFFF0004004FFF90013004
DFFF0001004F5000022004
DFFF000000AF2000060004
DFFF855556EF2015510051
DFFFFFFFFFFF2000000240
DFFFFFFDDFFF3000027300
9FFFFFB1BFFFECCDED2000
00000000BFFFFFFFB10000
00000000AFFFFFE7000000
0000000027776300000000
ENDCHAR
STARTCHAR eng
ENCODING 331
SWIDTH 846 0
DWIDTH 24 0
BBX 22 27 1 -6
BITMAP
0000000455454444451000
0000045100000000003500
0000720003444444000050
001A700151000000420022
01CF300500000000050004
1DFF100400045410022004
7FFF0004008FFFB0013004
BFFF000400BFFFE0014004
DFFF000400BFFFE0014004
DFFF0004008FFFE0014004
DFFF0004004FFFE0014004
DFFF0004004FFFE0014004
DFFF0004004FFFE0014004
DFFF0004004FFFE0014004
DFFF0004004FFFE0014004
DFFF0004004FFFE0014004
DFFF0004004FFFD0014004
DFFF0004004FFF90013004
DFFF0001004F5000022004
DFFF000000AF2000060004
DFFF855556EF2015510051
DFFFFFFFFFFF2000000240
DFFFFFFDDFFF3000027300
9FFFFFB1BFFFECCDED2000
00000000BFFFFFFFB10000
00000000AFFFFFE7000000
0000000027776300000000
ENDCHAR
STARTCHAR Omacron
ENCODING 332
SWIDTH 837 0
DWIDTH 23 0
BBX 23 30 0 -3
BITMAP
000000034444444444420000
0000005A0000000000040000
000008FA0044444440040000
0000AFFA0000000000040000
0003FFFA0000000000040000
0004FFFC1000000000130000
0004FFFFFFECBBBCEFA00000
0003FFFB5100000001563000
00009F500044444440004400
0007F7002500000004200400
009FF1005000000000500140
05FFD0013006EFE700220040
0CFFD002200CFFFD00130040
0FFFD002200CFFFE00130040
1FFFD002200AFFFE00130040
1FFFD0022004FFFE00130040
1FFFD0022004FFFE00130040
1FFFD0022004FFFE00130040
1FFFD0022004FFFE00130040
1FFFD0022004FFFE00130040
1FFFD0013005FFFA00220040
1FFFD0005000232000500040
1FFFE0002510000015200050
0FFFF4000044444440000320
0EFFFC100000000000001600
0BFFFFD50000000000058000
05FFFFFFEA8665668AE70000
009FFFFFFFFFFFFFFE400000
0007EFFFFFFFFFFFB2000000
000016ADEFFEDB8300000000
ENDCHAR
STARTCHAR omacron
ENCODING 333
SWIDTH 837 0
DWIDTH 23 0
BBX 23 30 0 -3
BITMAP
000000034444444444420000
0000005A0000000000040000
000008FA0044444440040000
0000AFFA0000000000040000
0003FFFA0000000000040000
0004FFFC1000000000130000
0004FFFFFFECBBBCEFA00000
0003FFFB5100000001563000
00009F500044444440004400
0007F7002500000004200400
009FF1005000000000500140
05FFD0013006EFE700220040
0CFFD002200CFFFD00130040
0FFFD002200CFFFE00130040
1FFFD002200AFFFE00130040
1FFFD0022004FFFE00130040
1FFFD0022004FFFE00130040
1FFFD0022004FFFE00130040
1FFFD0022004FFFE00130040
1FFFD0022004FFFE00130040
1FFFD0013005FFFA00220040
1FFFD0005000232000500040
1FFFE0002510000015200050
0FFFF4000044444440000320
0EFFFC100000000000001600
0BFFFFD50000000000058000
05FFFFFFEA8665668AE70000
009FFFFFFFFFFFFFFE400000
0007EFFFFFFFFFFFB2000000
000016ADEFFEDB8300000000
ENDCHAR
STARTCHAR Obreve
ENCODING 334
SWIDTH 837 0
DWIDTH 23 0
BBX 23 32 0 -3
BITMAP
000000034445000544430000
00000067000131C300040000
000008F701009DF201040000
0000AFF70500253005040000
0005FFF90250000052040000
0007FFFD0014444410050000
0006FFFF8000000000510000
0004FFFFFC62101259200000
0001EFFFFEBA9899B6300000
00003DF83000000000254000
00003C300044444440002400
0005E6002500000004200410
007FF1005000000000500040
04FFD0013006EFE700220040
0BFFD002200CFFFD00130040
0EFFD002200CFFFE00130040
0FFFD002200AFFFE00130040
1FFFD0022004FFFE00130040
1FFFD0022004FFFE00130040
1FFFD0022004FFFE00130040
1FFFD0022004FFFE00130040
1FFFD0022004FFFE00130040
1FFFD0013005FFFA00220040
1FFFD0005000232000500040
1FFFE0002510000015200050
0FFFF4000044444440000320
0EFFFD100000000000001600
0BFFFFD50000000000057000
05FFFFFFEA8665668AE70000
00AFFFFFFFFFFFFFFE400000
0007EFFFFFFFFFFFB2000000
000016ADEFFEDB8300000000
ENDCHAR
STARTCHAR obreve
ENCODING 335
SWIDTH 837 0
DWIDTH 23 0
BBX 23 32 0 -3
BITMAP
000000034445000544430000
00000067000131C300040000
000008F701009DF201040000
0000AFF70500253005040000
0005FFF90250000052040000
0007FFFD0014444410050000
0006FFFF8000000000510000
0004FFFFFC62101259200000
0001EFFFFEBA9899B6300000
00003DF83000000000254000
00003C300044444440002400
0005E6002500000004200410
007FF1005000000000500040
04FFD0013006EFE700220040
0BFFD002200CFFFD00130040
0EFFD002200CFFFE00130040
0FFFD002200AFFFE00130040
1FFFD0022004FFFE00130040
1FFFD0022004FFFE00130040
1FFFD0022004FFFE00130040
1FFFD0022004FFFE00130040
1FFFD0022004FFFE00130040
1FFFD0013005FFFA00220040
1FFFD0005000232000500040
1FFFE0002510000015200050
0FFFF4000044444440000320
0EFFFD100000000000001600
0BFFFFD50000000000057000
05FFFFFFEA8665668AE70000
00AFFFFFFFFFFFFFFE400000
0007EFFFFFFFFFFFB2000000
000016ADEFFEDB8300000000
ENDCHAR
STARTCHAR Ohungarumlaut
ENCODING 336
SWIDTH 837 0
DWIDTH 23 0
BBX 23 34 0 -3
BITMAP
000000001544440044445100
00000002B000041830000400
0000003DB000058F00002300
000004EF701009FC00104000
00000EFF40500CF802304000
00003FFF10501FF505004000
00007FFD00504FF205004000
0000AFFA00007FE000031000
0000EFF60000AFB000040000
0002FFF80001EFB000030000
0006FFFFFFECBBBCEFB00000
0008FFFB5100000001563000
0001AF500044444440004400
0007F7002500000004200400
009FF1005000000000500140
05FFD0013006EFE700220040
0CFFD002200CFFFD00130040
0FFFD002200CFFFE00130040
1FFFD002200AFFFE00130040
1FFFD0022004FFFE00130040
1FFFD0022004FFFE00130040
1FFFD0022004FFFE00130040
1FFFD0022004FFFE00130040
1FFFD0022004FFFE00130040
1FFFD0013005FFFA00220040
1FFFD0005000232000500040
1FFFE0002510000015200050
0FFFF4000044444440000320
0EFFFC100000000000001600
0BFFFFD50000000000058000
05FFFFFFEA8665668AE70000
009FFFFFFFFFFFFFFE400000
0007EFFFFFFFFFFFB2000000
000016ADEFFEDB8300000000
ENDCHAR
STARTCHAR ohungarumlaut
ENCODING 337
SWIDTH 837 0
DWIDTH 23 0
BBX 23 34 0 -3
BITMAP
000000001544440044445100
00000002B000041830000400
0000003DB000058F00002300
000004EF701009FC00104000
00000EFF40500CF802304000
00003FFF10501FF505004000
00007FFD00504FF205004000
0000AFFA00007FE000031000
0000EFF60000AFB000040000
0002FFF80001EFB000030000
0006FFFFFFECBBBCEFB00000
0008FFFB5100000001563000
0001AF500044444440004400
0007F7002500000004200400
009FF1005000000000500140
05FFD0013006EFE700220040
0CFFD002200CFFFD00130040
0FFFD002200CFFFE00130040
1FFFD002200AFFFE00130040
1FFFD0022004FFFE00130040
1FFFD0022004FFFE00130040
1FFFD0022004FFFE00130040
1FFFD0022004FFFE00130040
1FFFD0022004FFFE00130040
1FFFD0013005FFFA00220040
1FFFD0005000232000500040
1FFFE0002510000015200050
0FFFF4000044444440000320
0EFFFC100000000000001600
0BFFFFD50000000000058000
05FFFFFFEA8665668AE70000
009FFFFFFFFFFFFFFE400000
0007EFFFFFFFFFFFB2000000
000016ADEFFEDB8300000000
ENDCHAR
STARTCHAR OE
ENCODING 338
SWIDTH 1115 0
DWIDTH 31 0
BBX 31 24 0 -3
BITMAP
00000003444444444444444444444430
00000151000000000000000000000040
00001910000000000000000000000040
0003D500024444444464444444420040
004EF100430000000040000000000040
02EFD000500000000040003333333330
09FFD0013007EEE8004002FFFFFFF600
0DFFD002200CFFF8004002FFFFFE4000
0FFFD002200CFFF80040000000032000
1FFFD002200CFFF80040000000004000
1FFFD002200CFFF80054444441004000
1FFFD002200CFFF80040000000004000
1FFFD002200CFFF80040000000013000
1FFFD002200CFFF8004001DDDDD70000
1FFFD001300BFFF8004002FFFF600000
1FFFD00050049AA5004001AAA7444420
1FFFF100430000000040000000000040
0FFFF500024444444464444444420040
0EFFFD10000000000000000000000040
0BFFFFC2000000000000000000000040
06FFFFFFB86555555555555555555640
00CFFFFFFFFFFFFFFFFFFFFFFFFFE500
001BFFFFFFFFFFFFFFFFFFFFFFFD3000
00005ADEFFFFFFFFFFFFFFFFFFB10000
ENDCHAR
STARTCHAR oe
ENCODING 339
SWIDTH 1115 0
DWIDTH 31 0
BBX 31 24 0 -3
BITMAP
00000003444444444444444444444430
00000151000000000000000000000040
00001910000000000000000000000040
0003D500024444444464444444420040
004EF100430000000040000000000040
02EFD000500000000040003333333330
09FFD0013007EEE8004002FFFFFFF600
0DFFD002200CFFF8004002FFFFFE4000
0FFFD002200CFFF80040000000032000
1FFFD002200CFFF80040000000004000
1FFFD002200CFFF80054444441004000
1FFFD002200CFFF80040000000004000
1FFFD002200CFFF80040000000013000
1FFFD002200CFFF8004001DDDDD70000
1FFFD001300BFFF8004002FFFF600000
1FFFD00050049AA5004001AAA7444420
1FFFF100430000000040000000000040
0FFFF500024444444464444444420040
0EFFFD10000000000000000000000040
0BFFFFC2000000000000000000000040
06FFFFFFB86555555555555555555640
00CFFFFFFFFFFFFFFFFFFFFFFFFFE500
001BFFFFFFFFFFFFFFFFFFFFFFFD3000
00005ADEFFFFFFFFFFFFFFFFFFB10000
ENDCHAR
STARTCHAR Racute
ENCODING 340
SWIDTH 843 0
DWIDTH 24 0
BBX 23 31 1 -3
BITMAP
000000000000013577100000
000000157999986532600000
000003A53100000000400000
00004E700244444300400000
0007FF700200000000400000
005FFF700000000132100000
007FFFA23579BCEFA0000000
007FB8888888888854000000
007F30000000000001610000
02CF20000000000000050000
3EFF20054444444200031000
AFFF20040000000420013000
BFFF20040059940040004000
BFFF2004008FFB0040004000
BFFF2004008FFC0040023000
BFFF2004008FF80040050000
BFFF20040000000050271000
BFFF20040000000230005100
BFFF20064444445642000500
BFFF20040000000003200400
BFFF20040000000000400310
BFFF2004008FFFF400400310
BFFF2004008FFFF700400310
BFFF2004008FFFF700400310
BFFF2004006CFFF700400310
BFFF20000046FFF700000310
BFFF20000046FFF700000310
BFFF95555546FFFC55555600
BFFFFFFFF606FFFFFFFFA100
BFFFFFFE4006FFFFFFF80000
7FFFFFC20003EFFFFE500000
ENDCHAR
STARTCHAR racute
ENCODING 341
SWIDTH 843 0
DWIDTH 24 0
BBX 23 31 1 -3
BITMAP
000000000000013577100000
000000157999986532600000
000003A53100000000400000
00004E700244444300400000
0007FF700200000000400000
005FFF700000000132100000
007FFFA23579BCEFA0000000
007FB8888888888854000000
007F30000000000001610000
02CF20000000000000050000
3EFF20054444444200031000
AFFF20040000000420013000
BFFF20040059940040004000
BFFF2004008FFB0040004000
BFFF2004008FFC0040023000
BFFF2004008FF80040050000
BFFF20040000000050271000
BFFF20040000000230005100
BFFF20064444445642000500
BFFF20040000000003200400
BFFF20040000000000400310
BFFF2004008FFFF400400310
BFFF2004008FFFF700400310
BFFF2004008FFFF700400310
BFFF2004006CFFF700400310
BFFF20000046FFF700000310
BFFF20000046FFF700000310
BFFF95555546FFFC55555600
BFFFFFFFF606FFFFFFFFA100
BFFFFFFE4006FFFFFFF80000
7FFFFFC20003EFFFFE500000
ENDCHAR
STARTCHAR Rcommaaccent
ENCODING 342
SWIDTH 843 0
DWIDTH 24 0
BBX 23 34 1 -13
BITMAP
000264444444444445200000
004E20000000000000420000
06FF20000000000000050000
6FFF20054444444200031000
BFFF20040000000420014000
BFFF20040059940040004000
BFFF2004008FFB0040004000
BFFF2004008FFC0040022000
BFFF2004008FF80040050000
BFFF20040000000050271000
BFFF20040000000230005100
BFFF20064444445642000500
BFFF20040000000003200400
BFFF20040000000000400310
BFFF2004008FFFF400400310
BFFF2004008FFFF700400310
BFFF2004008FFFF700400310
BFFF2004006BFFF700400310
BFFF20000046FFF700000310
BFFF20000046FFF700000310
BFFF95555546FFFC55555600
BFFFFFFFF846AAABFFFFA100
BFFFFFFE8A000000EFF80000
7FFFFFC9FA000000DE500000
0000009FFA03444040000000
000003FFFA00004040000000
000004FFFB00004040000000
000004FFFFEEE14050000000
000004FFFF32123130000000
000003FFFE03430500000000
0000007FFF42246100000000
000000CFFFFFF90000000000
000000EFFFFF700000000000
000000BFFEB3000000000000
ENDCHAR
STARTCHAR rcommaaccent
ENCODING 343
SWIDTH 843 0
DWIDTH 24 0
BBX 23 34 1 -13
BITMAP
000264444444444445200000
004E20000000000000420000
06FF20000000000000050000
6FFF20054444444200031000
BFFF20040000000420014000
BFFF20040059940040004000
BFFF2004008FFB0040004000
BFFF2004008FFC0040022000
BFFF2004008FF80040050000
BFFF20040000000050271000
BFFF20040000000230005100
BFFF20064444445642000500
BFFF20040000000003200400
BFFF20040000000000400310
BFFF2004008FFFF400400310
BFFF2004008FFFF700400310
BFFF2004008FFFF700400310
BFFF2004006BFFF700400310
BFFF20000046FFF700000310
BFFF20000046FFF700000310
BFFF95555546FFFC55555600
BFFFFFFFF846AAABFFFFA100
BFFFFFFE8A000000EFF80000
7FFFFFC9FA000000DE500000
0000009FFA03444040000000
000003FFFA00004040000000
000004FFFB00004040000000
000004FFFFEEE14050000000
000004FFFF32123130000000
000003FFFE03430500000000
0000007FFF42246100000000
000000CFFFFFF90000000000
000000EFFFFF700000000000
000000BFFEB3000000000000
ENDCHAR
STARTCHAR Rcaron
ENCODING 344
SWIDTH 843 0
DWIDTH 24 0
BBX 23 31 1 -3
BITMAP
000000844420001454500000
00001BB00035443000400000
0002CFB00210000300400000
000DFFB00034444100400000
002FFFD00000000000500000
002FFFFD7100000058100000
002FFFFFFFA4039EB1000000
002FFDDDDDDDDDEC30000000
000C40000000000014500000
01AF20000000000000150000
1CFF20054444444200040000
AFFF20040000000420013000
BFFF20040059940040004000
BFFF2004008FFB0040004000
BFFF2004008FFC0040022000
BFFF2004008FF80040050000
BFFF20040000000050271000
BFFF20040000000230005100
BFFF20064444445642000500
BFFF20040000000003200400
BFFF20040000000000400310
BFFF2004008FFFF400400310
BFFF2004008FFFF700400310
BFFF2004008FFFF700400310
BFFF2004006CFFF700400310
BFFF20000046FFF700000310
BFFF20000046FFF700000310
BFFF95555546FFFC55555600
BFFFFFFFF606FFFFFFFFA100
BFFFFFFE4006FFFFFFF80000
7FFFFFC20003EFFFFE500000
ENDCHAR
STARTCHAR rcaron
ENCODING 345
SWIDTH 843 0
DWIDTH 24 0
BBX 23 31 1 -3
BITMAP
000000844420001454500000
00001BB00035443000400000
0002CFB00210000300400000
000DFFB00034444100400000
002FFFD00000000000500000
002FFFFD7100000058100000
002FFFFFFFA4039EB1000000
002FFDDDDDDDDDEC30000000
000C40000000000014500000
01AF20000000000000150000
1CFF20054444444200040000
AFFF20040000000420013000
BFFF20040059940040004000
BFFF2004008FFB0040004000
BFFF2004008FFC0040022000
BFFF2004008FF80040050000
BFFF20040000000050271000
BFFF20040000000230005100
BFFF20064444445642000500
BFFF20040000000003200400
BFFF20040000000000400310
BFFF2004008FFFF400400310
BFFF2004008FFFF700400310
BFFF2004008FFFF700400310
BFFF2004006CFFF700400310
BFFF20000046FFF700000310
BFFF20000046FFF700000310
BFFF95555546FFFC55555600
BFFFFFFFF606FFFFFFFFA100
BFFFFFFE4006FFFFFFF80000
7FFFFFC20003EFFFFE500000
ENDCHAR
STARTCHAR Sacute
ENCODING 346
SWIDTH 750 0
DWIDTH 21 0
BBX 21 31 0 -3
BITMAP
00000000000024689B5000
00000017ACDCB975327000
000003C531000001004000
00004EB003444443004000
0007FFB000000000003000
002FFFB000000001221000
003FFFD23568ACEFA10000
003FFFFC85444444444400
003FFF6000000000000400
001EF60000000000000400
0004D00014444444300400
004EB00050000000000400
03FFA00410000000001400
0CFFA004000CFFFFFF8000
2FFFA0040008CEFFF60000
3FFFA00310000013642000
4FFFB00054100000002300
4FFFE10000344441000320
4FFFF80000000002400040
2FFFFFB400000000220040
0EFFFFFFEC975200140040
06FFFFFFFFFFFD00040040
005DE99999999600220040
0008A00000000001600040
01BFA00344444444000040
1CFFA00000000000000500
4FFFA00000000000005200
4FFFD555555555568A2000
4FFFFFFFFFFFFFFFA10000
4FFFFFFFFFFFFFF8000000
1DFFFFFFFFFED930000000
ENDCHAR
STARTCHAR sacute
ENCODING 347
SWIDTH 750 0
DWIDTH 21 0
BBX 21 31 0 -3
BITMAP
00000000000024689B5000
00000017ACDCB975327000
000003C531000001004000
00004EB003444443004000
0007FFB000000000003000
002FFFB000000001221000
003FFFD23568ACEFA10000
003FFFFC85444444444400
003FFF6000000000000400
001EF60000000000000400
0004D00014444444300400
004EB00050000000000400
03FFA00410000000001400
0CFFA004000CFFFFFF8000
2FFFA0040008CEFFF60000
3FFFA00310000013642000
4FFFB00054100000002300
4FFFE10000344441000320
4FFFF80000000002400040
2FFFFFB400000000220040
0EFFFFFFEC975200140040
06FFFFFFFFFFFD00040040
005DE99999999600220040
0008A00000000001600040
01BFA00344444444000040
1CFFA00000000000000500
4FFFA00000000000005200
4FFFD555555555568A2000
4FFFFFFFFFFFFFFFA10000
4FFFFFFFFFFFFFF8000000
1DFFFFFFFFFED930000000
ENDCHAR
STARTCHAR Scircumflex
ENCODING 348
SWIDTH 750 0
DWIDTH 21 0
BBX 21 32 0 -3
BITMAP
0000000000244410000000
0000000044300045300000
0000004400000000262000
0000067000354510004000
00008F7005200033004000
0009FF7000000000004000
005FFF70159DEC83004000
007FFFDBFFFFFFFFE92000
007FFFFC85444444444400
007FFF6000000000000400
006FF60000000000000400
0005C00014444444300400
004EB00050000000000400
04FFA00410000000001400
0CFFA004000CFFFFFF8000
2FFFA0040008CEFFF60000
3FFFA00310000013642000
4FFFB00054100000002300
4FFFE10000344441000320
4FFFF80000000002400040
2FFFFFB400000000220040
0DFFFFFFEC975200140040
06FFFFFFFFFFFD00040040
005DE99999999600220040
0008A00000000001600040
01BFA00344444444000040
1CFFA00000000000000500
4FFFA00000000000005200
4FFFD555555555568A2000
4FFFFFFFFFFFFFFFA10000
4FFFFFFFFFFFFFF8000000
1DFFFFFFFFFED930000000
ENDCHAR
STARTCHAR scircumflex
ENCODING 349
SWIDTH 750 0
DWIDTH 21 0
BBX 21 32 0 -3
BITMAP
0000000000244410000000
0000000044300045300000
0000004400000000262000
0000067000354510004000
00008F7005200033004000
0009FF7000000000004000
005FFF70159DEC83004000
007FFFDBFFFFFFFFE92000
007FFFFC85444444444400
007FFF6000000000000400
006FF60000000000000400
0005C00014444444300400
004EB00050000000000400
04FFA00410000000001400
0CFFA004000CFFFFFF8000
2FFFA0040008CEFFF60000
3FFFA00310000013642000
4FFFB00054100000002300
4FFFE10000344441000320
4FFFF80000000002400040
2FFFFFB400000000220040
0DFFFFFFEC975200140040
06FFFFFFFFFFFD00040040
005DE99999999600220040
0008A00000000001600040
01BFA00344444444000040
1CFFA00000000000000500
4FFFA00000000000005200
4FFFD555555555568A2000
4FFFFFFFFFFFFFFFA10000
4FFFFFFFFFFFFFF8000000
1DFFFFFFFFFED930000000
ENDCHAR
ENDFONT
